<svg width="30" height="38" viewBox="0 0 30 38" fill="none" xmlns="http://www.w3.org/2000/svg">
<path d="M12.2315 18.8614L22.6189 5.8766C22.9049 5.51993 23.0622 5.04304 23.0622 4.53456C23.0622 4.02579 22.9049 3.54919 22.6189 3.19195L21.7087 2.05476C21.4231 1.69696 21.0414 1.5 20.6346 1.5C20.2278 1.5 19.8465 1.69696 19.5607 2.05476L7.19291 17.5142C6.90599 17.8726 6.74888 18.3515 6.75001 18.8605C6.74888 19.3718 6.90577 19.8501 7.19291 20.2088L19.5492 35.6533C19.835 36.0111 20.2163 36.2081 20.6233 36.2081C21.0301 36.2081 21.4114 36.0111 21.6974 35.6533L22.6074 34.5161C23.1995 33.776 23.1995 32.571 22.6074 31.8312L12.2315 18.8614Z" fill="#6AA3FB"/>
</svg>
