<svg width="30" height="38" viewBox="0 0 30 38" fill="none" xmlns="http://www.w3.org/2000/svg">
<g clip-path="url(#clip0)">
<path d="M23.3338 17.2868L9.98345 0.599081C9.67467 0.212803 9.26248 0 8.82297 0C8.38347 0 7.97127 0.212803 7.6625 0.599081L6.67933 1.82773C6.03958 2.62833 6.03958 3.92954 6.67933 4.72893L17.89 18.7422L6.66689 32.7711C6.35812 33.1574 6.18763 33.6723 6.18763 34.2214C6.18763 34.7711 6.35812 35.286 6.66689 35.6726L7.65006 36.9009C7.95908 37.2872 8.37103 37.5 8.81054 37.5C9.25004 37.5 9.66224 37.2872 9.97101 36.9009L23.3338 20.198C23.6433 19.8105 23.8133 19.2931 23.8124 18.7431C23.8133 18.191 23.6433 17.6739 23.3338 17.2868Z" fill="#878788"/>
</g>
<defs>
<clipPath id="clip0">
<rect width="30" height="37.5" fill="white"/>
</clipPath>
</defs>
</svg>
