<svg width="20" height="20" viewBox="0 0 20 20" fill="none" xmlns="http://www.w3.org/2000/svg">
<g clip-path="url(#clip0)">
<path d="M19.5 10C19.5 15.2467 15.2467 19.5 10 19.5C4.7533 19.5 0.5 15.2467 0.5 10C0.5 4.7533 4.7533 0.5 10 0.5C15.2467 0.5 19.5 4.7533 19.5 10Z" fill="#F0F0F0" stroke="#878788"/>
<path d="M19.5 9.99996C19.5 15.2238 15.2239 19.5 10 19.5C8.59743 19.5 7.27296 19.2078 6.08437 18.6769C6.84108 18.8477 7.62923 18.9375 8.43749 18.9375C14.2137 18.9375 18.9375 14.2137 18.9375 8.43749C18.9375 7.62912 18.8477 6.84085 18.6768 6.08404C19.2078 7.27269 19.5 8.59726 19.5 9.99996Z" fill="#F0F0F0" stroke="#878788"/>
<path d="M10 10.6679L10.3536 11.0214L13.5411 14.2089C13.7208 14.3886 14.0292 14.3886 14.209 14.2089C14.209 14.2089 14.209 14.2089 14.209 14.2089M10 10.6679L14.209 14.2089M10 10.6679L9.64649 11.0214L6.459 14.2089C6.27928 14.3886 5.97083 14.3886 5.7911 14.2089C5.61138 14.0292 5.61138 13.7207 5.7911 13.541L8.97859 10.3535L9.33214 9.99998L8.97859 9.64643L5.7911 6.45894C5.61138 6.27922 5.61138 5.97077 5.7911 5.79104C5.97083 5.61132 6.27928 5.61132 6.459 5.79104L9.64649 8.97853L10 9.33208L10.3536 8.97853L13.5411 5.79104C13.7208 5.61132 14.0293 5.61132 14.209 5.79104C14.3887 5.97077 14.3887 6.27922 14.209 6.45894L11.0215 9.64643L10.6679 9.99998L11.0215 10.3535L14.209 13.541C14.3887 13.7207 14.3887 14.0291 14.209 14.2089M10 10.6679L14.209 14.2089" fill="#F0F0F0" stroke="#878788"/>
</g>
<defs>
<clipPath id="clip0">
<rect width="20" height="20" fill="white"/>
</clipPath>
</defs>
</svg>
