<svg width="20" height="20" viewBox="0 0 20 20" fill="none" xmlns="http://www.w3.org/2000/svg">
<g clip-path="url(#clip0)">
<path d="M10 20C15.5229 20 20 15.5229 20 10C20 4.47716 15.5229 0 10 0C4.47716 0 0 4.47716 0 10C0 15.5229 4.47716 20 10 20Z" fill="#E24C4B"/>
<path d="M20 9.99996C20 15.5 15.5 20 10 20C6.81252 20 4.00002 18.5625 2.1875 16.25C3.875 17.625 6.06251 18.4375 8.43749 18.4375C13.9375 18.4375 18.4375 13.9375 18.4375 8.43749C18.4375 6.06251 17.625 3.875 16.25 2.1875C18.5625 3.99994 20 6.81244 20 9.99996Z" fill="#D1403F"/>
<path d="M14.5625 14.5625C14.1876 14.9375 13.5625 14.9375 13.1875 14.5625L10 11.375L6.81256 14.5625C6.43757 14.9375 5.81254 14.9375 5.43755 14.5625C5.06256 14.1875 5.06256 13.5625 5.43755 13.1875L8.62504 9.99998L5.43755 6.81249C5.06256 6.43751 5.06256 5.81247 5.43755 5.43749C5.81254 5.0625 6.43757 5.0625 6.81256 5.43749L10 8.62498L13.1875 5.43749C13.5625 5.0625 14.1876 5.0625 14.5625 5.43749C14.9375 5.81247 14.9375 6.43751 14.5625 6.81249L11.3751 9.99998L14.5625 13.1875C14.9375 13.5625 14.9375 14.1874 14.5625 14.5625Z" fill="white"/>
</g>
<defs>
<clipPath id="clip0">
<rect width="20" height="20" fill="white"/>
</clipPath>
</defs>
</svg>
