<svg width="16" height="16" viewBox="0 0 16 16" fill="none" xmlns="http://www.w3.org/2000/svg">
<g clip-path="url(#clip0)">
<path d="M8.6165 11.9104L6.49107 14.7849C6.48565 14.79 6.47751 14.7915 6.47043 14.7887C6.46336 14.786 6.45872 14.7795 6.45872 14.7723V9.58643H8.6165V11.9104Z" fill="white"/>
<path d="M9.54127 11.9104L7.41584 13.3755C7.41042 13.3806 7.40228 13.3821 7.39518 13.3794C7.3881 13.3766 7.38347 13.3701 7.38347 13.3629V9.58643H9.54124V11.9104H9.54127Z" fill="#EAEAEA"/>
<path d="M8.6165 12.7819L7.41581 13.9386C7.41039 13.9437 7.40225 13.9452 7.39515 13.9425C7.38807 13.9397 7.38344 13.9332 7.38344 13.926V9.58643H8.61647V12.7819H8.6165Z" fill="#EAEAEA"/>
<path d="M14.889 2.6686C13.811 3.31697 11.1341 3.77634 8.00001 3.77634C4.86592 3.77634 2.18902 3.31697 1.11103 2.6686H1.11037C1.10361 2.66456 1.09738 2.67229 1.1021 2.6784L6.45657 9.58341C6.45795 9.58518 6.46011 9.58624 6.46246 9.58624H9.53759C9.5399 9.58624 9.54209 9.58518 9.54347 9.58341L14.8979 2.6784C14.9026 2.67229 14.8964 2.66456 14.8896 2.6686H14.889V2.6686Z" fill="#F1F1F1"/>
<path d="M1.22461 2.6686H1.22527C1.70555 2.92764 2.22371 3.11856 2.7631 3.23513L7.68584 9.58341C7.68722 9.58518 7.68941 9.58624 7.69173 9.58624H6.5767C6.57438 9.58624 6.57219 9.58518 6.57081 9.58341L1.21635 2.6784C1.21162 2.67229 1.21785 2.66456 1.22461 2.6686Z" fill="white"/>
<path d="M7.99998 3.77649V0.290527C3.91414 0.290527 0.601898 1.0709 0.601898 2.03351C0.601898 2.99612 3.91414 3.77649 7.99998 3.77649Z" fill="white"/>
<path d="M7.99998 0.290527V3.77649C12.0858 3.77649 15.3981 2.99612 15.3981 2.03351C15.3981 1.0709 12.0858 0.290527 7.99998 0.290527Z" fill="#EAEAEA"/>
<path d="M8.00001 3.77649C11.4049 3.77649 14.1651 2.99613 14.1651 2.03351C14.1651 1.07089 11.4049 0.290527 8.00001 0.290527C4.59514 0.290527 1.83495 1.07089 1.83495 2.03351C1.83495 2.99613 4.59514 3.77649 8.00001 3.77649Z" fill="url(#paint0_linear)"/>
<path d="M8 4.06694C4.17046 4.06694 0.293655 3.3685 0.293655 2.03347C0.293655 0.698436 4.17046 0 8 0C11.8295 0 15.7063 0.698436 15.7063 2.03347C15.7063 3.3685 11.8295 4.06694 8 4.06694ZM8 0.580982C3.67212 0.580982 0.910153 1.44113 0.910153 2.03347C0.910153 2.62581 3.67212 3.48595 8 3.48595C12.3279 3.48595 15.0898 2.62581 15.0898 2.03347C15.0898 1.44113 12.3279 0.580982 8 0.580982Z" fill="#878788"/>
<path d="M6.47094 15.0783C6.43005 15.0785 6.38948 15.0712 6.35157 15.0567C6.22963 15.009 6.15026 14.8966 6.15048 14.7722V9.58639C6.15045 9.50933 6.18292 9.43545 6.24074 9.38096C6.29856 9.32646 6.37696 9.29587 6.45873 9.2959H9.54128C9.62305 9.29587 9.70145 9.32646 9.75927 9.38096C9.81709 9.43545 9.84956 9.50933 9.84953 9.58639V11.9103C9.84953 11.9874 9.81703 12.0613 9.75921 12.1157L6.70903 14.9903C6.64476 15.0476 6.55938 15.0791 6.47094 15.0783ZM6.76698 9.87688V14.114L9.233 11.7901V9.87688H6.76698Z" fill="#878788"/>
<path d="M9.53749 9.87679H6.46249C6.36337 9.87579 6.27026 9.83186 6.21006 9.75763L0.85312 2.84985C0.763582 2.73523 0.773036 2.57686 0.875598 2.47238C0.978191 2.36791 1.14499 2.34682 1.2732 2.42205C2.33281 3.05894 5.03486 3.48589 7.99997 3.48589C10.9652 3.48589 13.6671 3.05894 14.7232 2.42376L14.7337 2.41754C14.8626 2.34655 15.0267 2.37054 15.1267 2.47501C15.2267 2.57948 15.2352 2.73576 15.147 2.84929L9.79233 9.75483C9.73222 9.83071 9.63799 9.87579 9.53749 9.87679ZM6.61542 9.29581H9.38475L13.9847 3.36363C12.5699 3.80193 10.3879 4.0669 8.00001 4.0669C5.6121 4.0669 3.42994 3.8019 2.01495 3.36333L6.61542 9.29581ZM14.8896 2.66858L14.893 2.67339L14.8896 2.66858Z" fill="#878788"/>
<path d="M13.064 15L10.0329 12L16.0951 12L13.064 15Z" fill="#878788"/>
</g>
<defs>
<linearGradient id="paint0_linear" x1="4.74808" y1="-1.03165" x2="5.3107" y2="5.60101" gradientUnits="userSpaceOnUse">
<stop stop-color="#F1F1F1"/>
<stop offset="0.1717" stop-color="#F1F1F1"/>
<stop offset="0.2" stop-color="#D4E1F4"/>
<stop offset="0.2001" stop-color="#DAE4F4"/>
<stop offset="0.2007" stop-color="#EBEBF4"/>
<stop offset="0.2014" stop-color="#F6F1F4"/>
<stop offset="0.2023" stop-color="#FDF4F4"/>
<stop offset="0.205" stop-color="#FFF5F4"/>
<stop offset="0.2522" stop-color="#FFF5F4"/>
<stop offset="0.26" stop-color="#F1F1F1"/>
<stop offset="0.3974" stop-color="#F1F1F1"/>
<stop offset="0.42" stop-color="#D4E1F4"/>
<stop offset="0.4201" stop-color="#DAE4F4"/>
<stop offset="0.4207" stop-color="#EBEBF4"/>
<stop offset="0.4214" stop-color="#F6F1F4"/>
<stop offset="0.4223" stop-color="#FDF4F4"/>
<stop offset="0.425" stop-color="#FFF5F4"/>
<stop offset="0.4894" stop-color="#FFF5F4"/>
<stop offset="0.5" stop-color="#F9F2F4"/>
<stop offset="0.5001" stop-color="#E8EBF4"/>
<stop offset="0.5003" stop-color="#DDE5F4"/>
<stop offset="0.5005" stop-color="#D6E2F4"/>
<stop offset="0.501" stop-color="#F1F1F1"/>
<stop offset="0.7062" stop-color="#F1F1F1"/>
<stop offset="0.74" stop-color="#D4E1F4"/>
<stop offset="0.741" stop-color="#FFF5F4"/>
<stop offset="0.8346" stop-color="#FFF5F4"/>
<stop offset="0.85" stop-color="#FFF5F4"/>
<stop offset="0.851" stop-color="#F1F1F1"/>
</linearGradient>
<clipPath id="clip0">
<rect width="16" height="15.0783" fill="white"/>
</clipPath>
</defs>
</svg>
