<svg width="16" height="16" viewBox="0 0 16 16" fill="none" xmlns="http://www.w3.org/2000/svg">
<g clip-path="url(#clip0)">
<path d="M8.61651 11.9104L6.49108 14.7849C6.48566 14.79 6.47752 14.7915 6.47045 14.7887C6.46337 14.786 6.45874 14.7795 6.45874 14.7723V9.58643H8.61651V11.9104Z" fill="white"/>
<path d="M9.54129 11.9104L7.41586 13.3755C7.41044 13.3806 7.4023 13.3821 7.39519 13.3794C7.38812 13.3766 7.38348 13.3701 7.38348 13.3629V9.58643H9.54126V11.9104H9.54129Z" fill="#A4C2F7"/>
<path d="M8.61651 12.7819L7.41582 13.9386C7.41041 13.9437 7.40227 13.9452 7.39516 13.9425C7.38809 13.9397 7.38345 13.9332 7.38345 13.926V9.58643H8.61648V12.7819H8.61651Z" fill="#E3E7F2"/>
<path d="M14.889 2.6686C13.811 3.31697 11.1341 3.77634 8.00002 3.77634C4.86594 3.77634 2.18903 3.31697 1.11104 2.6686H1.11038C1.10362 2.66456 1.09739 2.67229 1.10212 2.6784L6.45658 9.58341C6.45796 9.58518 6.46012 9.58624 6.46247 9.58624H9.5376C9.53992 9.58624 9.54211 9.58518 9.54348 9.58341L14.8979 2.6784C14.9026 2.67229 14.8964 2.66456 14.8897 2.6686H14.889V2.6686Z" fill="#A4C2F7"/>
<path d="M1.22461 2.6686H1.22527C1.70555 2.92764 2.22371 3.11856 2.7631 3.23513L7.68584 9.58341C7.68722 9.58518 7.68941 9.58624 7.69173 9.58624H6.5767C6.57438 9.58624 6.57219 9.58518 6.57081 9.58341L1.21635 2.6784C1.21162 2.67229 1.21785 2.66456 1.22461 2.6686Z" fill="white"/>
<path d="M7.99998 3.77649V0.290527C3.91414 0.290527 0.601898 1.0709 0.601898 2.03351C0.601898 2.99612 3.91414 3.77649 7.99998 3.77649Z" fill="white"/>
<path d="M8 0.290527V3.77649C12.0858 3.77649 15.3981 2.99612 15.3981 2.03351C15.3981 1.0709 12.0858 0.290527 8 0.290527Z" fill="#A4C2F7"/>
<path d="M8.00003 3.77649C11.4049 3.77649 14.1651 2.99613 14.1651 2.03351C14.1651 1.07089 11.4049 0.290527 8.00003 0.290527C4.59516 0.290527 1.83496 1.07089 1.83496 2.03351C1.83496 2.99613 4.59516 3.77649 8.00003 3.77649Z" fill="url(#paint0_linear)"/>
<path d="M8.00001 4.06694C4.17048 4.06694 0.293671 3.3685 0.293671 2.03347C0.293671 0.698436 4.17048 0 8.00001 0C11.8295 0 15.7064 0.698436 15.7064 2.03347C15.7064 3.3685 11.8295 4.06694 8.00001 4.06694ZM8.00001 0.580982C3.67213 0.580982 0.910168 1.44113 0.910168 2.03347C0.910168 2.62581 3.67213 3.48595 8.00001 3.48595C12.3279 3.48595 15.0898 2.62581 15.0898 2.03347C15.0898 1.44113 12.3279 0.580982 8.00001 0.580982Z" fill="#1982FE"/>
<path d="M6.47094 15.0783C6.43005 15.0785 6.38948 15.0712 6.35157 15.0567C6.22963 15.009 6.15026 14.8966 6.15048 14.7722V9.58639C6.15045 9.50933 6.18292 9.43545 6.24074 9.38096C6.29856 9.32646 6.37696 9.29587 6.45873 9.2959H9.54128C9.62305 9.29587 9.70145 9.32646 9.75927 9.38096C9.81709 9.43545 9.84956 9.50933 9.84953 9.58639V11.9103C9.84953 11.9874 9.81703 12.0613 9.75921 12.1157L6.70903 14.9903C6.64476 15.0476 6.55938 15.0791 6.47094 15.0783ZM6.76698 9.87688V14.114L9.233 11.7901V9.87688H6.76698Z" fill="#1982FE"/>
<path d="M9.53751 9.87679H6.4625C6.36338 9.87579 6.27028 9.83186 6.21007 9.75763L0.853135 2.84985C0.763597 2.73523 0.773052 2.57686 0.875613 2.47238C0.978206 2.36791 1.14501 2.34682 1.27321 2.42205C2.33283 3.05894 5.03487 3.48589 7.99999 3.48589C10.9653 3.48589 13.6671 3.05894 14.7232 2.42376L14.7337 2.41754C14.8626 2.34655 15.0267 2.37054 15.1267 2.47501C15.2267 2.57948 15.2352 2.73576 15.147 2.84929L9.79234 9.75483C9.73224 9.83071 9.638 9.87579 9.53751 9.87679ZM6.61544 9.29581H9.38476L13.9848 3.36363C12.5699 3.80193 10.3879 4.0669 8.00002 4.0669C5.61211 4.0669 3.42995 3.8019 2.01497 3.36333L6.61544 9.29581ZM14.8897 2.66858L14.893 2.67339L14.8897 2.66858Z" fill="#1982FE"/>
<path d="M13.5 15L10.4689 12L16.5311 12L13.5 15Z" fill="#1982FE"/>
</g>
<defs>
<linearGradient id="paint0_linear" x1="4.74809" y1="-1.03165" x2="5.31072" y2="5.60101" gradientUnits="userSpaceOnUse">
<stop stop-color="#D4E1F4"/>
<stop offset="0.1717" stop-color="#D4E1F4"/>
<stop offset="0.2" stop-color="#D4E1F4"/>
<stop offset="0.2001" stop-color="#DAE4F4"/>
<stop offset="0.2007" stop-color="#EBEBF4"/>
<stop offset="0.2014" stop-color="#F6F1F4"/>
<stop offset="0.2023" stop-color="#FDF4F4"/>
<stop offset="0.205" stop-color="#FFF5F4"/>
<stop offset="0.2522" stop-color="#FFF5F4"/>
<stop offset="0.26" stop-color="#D4E1F4"/>
<stop offset="0.3974" stop-color="#D4E1F4"/>
<stop offset="0.42" stop-color="#D4E1F4"/>
<stop offset="0.4201" stop-color="#DAE4F4"/>
<stop offset="0.4207" stop-color="#EBEBF4"/>
<stop offset="0.4214" stop-color="#F6F1F4"/>
<stop offset="0.4223" stop-color="#FDF4F4"/>
<stop offset="0.425" stop-color="#FFF5F4"/>
<stop offset="0.4894" stop-color="#FFF5F4"/>
<stop offset="0.5" stop-color="#F9F2F4"/>
<stop offset="0.5001" stop-color="#E8EBF4"/>
<stop offset="0.5003" stop-color="#DDE5F4"/>
<stop offset="0.5005" stop-color="#D6E2F4"/>
<stop offset="0.501" stop-color="#D4E1F4"/>
<stop offset="0.7062" stop-color="#D4E1F4"/>
<stop offset="0.74" stop-color="#D4E1F4"/>
<stop offset="0.741" stop-color="#FFF5F4"/>
<stop offset="0.8346" stop-color="#FFF5F4"/>
<stop offset="0.85" stop-color="#FFF5F4"/>
<stop offset="0.851" stop-color="#D4E1F4"/>
</linearGradient>
<clipPath id="clip0">
<rect width="16" height="15.0783" fill="white"/>
</clipPath>
</defs>
</svg>
