<svg width="32" height="32" viewBox="0 0 32 32" fill="none" xmlns="http://www.w3.org/2000/svg">
<path fill-rule="evenodd" clip-rule="evenodd" d="M8.06745 4.04497C7.94411 4.07531 8.26073 4.45199 8.38749 4.4257C8.4141 4.42018 8.44332 4.46059 8.45208 4.51545C8.47155 4.63634 8.77033 4.89812 8.83962 4.85528C8.86689 4.83839 8.87402 4.84927 8.85553 4.87914C8.83686 4.90915 8.91541 5.03071 9.02966 5.14902C9.629 5.76945 12.5799 8.7554 16.6308 12.8402L21.1724 17.4199L21.6021 17.0349C22.5188 16.2137 23.0422 15.7423 23.3314 15.4774C23.7582 15.0864 23.9224 14.9382 25.3773 13.6309C26.0914 12.9891 26.7115 12.4285 26.7553 12.3848C26.8371 12.3032 27.0088 12.148 28.4733 10.8312C28.9402 10.4116 29.5019 9.90634 29.7216 9.70868C29.9414 9.51101 30.2054 9.27618 30.3084 9.18676L30.4956 9.02431V6.53269V4.04107L19.847 4.03458C13.9902 4.03084 8.97027 4.02533 8.69161 4.02208C8.4128 4.01884 8.13188 4.02906 8.06745 4.04497ZM2.28235 6.95496V9.0201L2.64441 9.33461C2.84354 9.5076 3.0404 9.68498 3.08178 9.72881C3.12333 9.77279 3.24683 9.88525 3.35653 9.97905C3.46608 10.0727 3.76924 10.3444 4.03003 10.5828C4.291 10.821 4.77412 11.2587 5.10373 11.5554C5.93222 12.3012 5.97603 12.3407 6.65165 12.953C6.98125 13.2518 7.45254 13.6776 7.69906 13.8995C7.94574 14.1213 8.29465 14.4376 8.4748 14.6023C8.80554 14.905 10.4778 16.4099 10.9435 16.8241C11.0823 16.9474 11.4658 17.2956 11.796 17.598C12.1261 17.9003 12.5306 18.2668 12.6948 18.4123C12.8591 18.558 13.1676 18.8369 13.3804 19.0322L13.7673 19.3874V23.6907V27.9939L16.3514 29.7196C17.7728 30.6686 18.9525 31.435 18.9731 31.4224C18.9937 31.4098 19.0103 29.2268 19.0097 26.5713L19.0089 21.7431L17.2746 19.9854C9.13206 11.734 5.08426 7.67716 5.02828 7.71172C5.00733 7.72471 4.99321 7.70296 4.99695 7.66352C5.0023 7.60786 2.35652 4.89 2.29679 4.89C2.28884 4.89 2.28235 5.81927 2.28235 6.95496Z" fill="#6AA3FB"/>
<path fill-rule="evenodd" clip-rule="evenodd" d="M1.89651 1.20435L1.03638 2.06822L2.06593 3.11693C2.63216 3.6937 5.22293 6.31158 7.82297 8.93433C10.4232 11.5572 13.1603 14.3211 13.9054 15.0763L15.2603 16.4495L15.5376 16.1766L15.8147 15.9037L15.5774 15.6523L15.3403 15.4008L15.5912 15.6376L15.8421 15.8744L16.4131 15.3017L16.9841 14.7292L16.8363 14.5662C16.755 14.4767 15.4401 13.1448 13.9144 11.6064C8.7558 6.40555 6.54298 4.17213 4.64649 2.2529L2.75663 0.340332L1.89651 1.20435ZM2.10748 2.243C2.43627 2.57261 2.694 2.84233 2.6802 2.84233C2.6664 2.84233 2.38628 2.57261 2.0575 2.243C1.72886 1.91356 1.47114 1.64383 1.48494 1.64383C1.49857 1.64383 1.77884 1.91356 2.10748 2.243ZM10.7713 10.807C10.8644 10.9031 10.9293 10.9816 10.9157 10.9816C10.9019 10.9816 10.8144 10.9031 10.7213 10.807C10.6281 10.7107 10.5632 10.6322 10.5768 10.6322C10.5906 10.6322 10.6781 10.7107 10.7713 10.807ZM11.1707 11.2064C11.2638 11.3024 11.3289 11.3812 11.3151 11.3812C11.3015 11.3812 11.214 11.3024 11.1208 11.2064C11.0277 11.1103 10.9626 11.0316 10.9764 11.0316C10.99 11.0316 11.0775 11.1103 11.1707 11.2064ZM11.5702 11.6059C11.6634 11.702 11.7283 11.7807 11.7146 11.7807C11.7008 11.7807 11.6134 11.702 11.5202 11.6059C11.4271 11.5097 11.3621 11.4311 11.3758 11.4311C11.3896 11.4311 11.4771 11.5097 11.5702 11.6059ZM11.9696 12.0053C12.0627 12.1014 12.1279 12.1801 12.114 12.1801C12.1003 12.1801 12.0129 12.1014 11.9198 12.0053C11.8266 11.9092 11.7615 11.8305 11.7753 11.8305C11.789 11.8305 11.8764 11.9092 11.9696 12.0053ZM12.3692 12.4049C12.4624 12.5009 12.5272 12.5797 12.5136 12.5797C12.4997 12.5797 12.4123 12.5009 12.3192 12.4049C12.226 12.3086 12.1611 12.2301 12.1747 12.2301C12.1885 12.2301 12.2759 12.3086 12.3692 12.4049ZM12.7685 12.8043C12.8619 12.9005 12.9268 12.979 12.9129 12.979C12.8994 12.979 12.8119 12.9005 12.7187 12.8043C12.6255 12.7082 12.5605 12.6295 12.5743 12.6295C12.5879 12.6295 12.6753 12.7082 12.7685 12.8043ZM13.1681 13.2038C13.2613 13.2999 13.3263 13.3786 13.3126 13.3786C13.2988 13.3786 13.2113 13.2999 13.1181 13.2038C13.0249 13.1076 12.96 13.029 12.9737 13.029C12.9875 13.029 13.075 13.1076 13.1681 13.2038ZM13.5676 13.6032C13.6608 13.6994 13.7257 13.778 13.712 13.778C13.6983 13.778 13.6108 13.6994 13.5176 13.6032C13.4246 13.5071 13.3594 13.4284 13.3732 13.4284C13.3871 13.4284 13.4744 13.5071 13.5676 13.6032ZM13.9671 14.0027C14.0602 14.0988 14.1253 14.1776 14.1115 14.1776C14.0977 14.1776 14.0102 14.0988 13.917 14.0027C13.8239 13.9068 13.7589 13.8279 13.7726 13.8279C13.7864 13.8279 13.8739 13.9068 13.9671 14.0027ZM14.3666 14.4022C14.4597 14.4984 14.5247 14.577 14.511 14.577C14.4972 14.577 14.4098 14.4984 14.3167 14.4022C14.2235 14.3061 14.1583 14.2274 14.1721 14.2274C14.186 14.2274 14.2734 14.3061 14.3666 14.4022ZM14.766 14.8017C14.8591 14.8978 14.9242 14.9765 14.9104 14.9765C14.8966 14.9765 14.8093 14.8978 14.7161 14.8017C14.6229 14.7057 14.558 14.627 14.5717 14.627C14.5854 14.627 14.6728 14.7057 14.766 14.8017ZM16.1401 15.6249L15.2931 16.4729L16.5427 17.7346C17.23 18.4285 18.9181 20.1309 20.2939 21.5181C21.6696 22.905 23.3163 24.5677 23.953 25.2132C24.5899 25.8587 25.8221 27.1001 26.6912 27.9725L28.2718 29.5581L29.1333 28.6976L29.9949 27.8372L29.184 27.016C27.8515 25.6666 22.8249 20.5956 19.8388 17.5884C18.3033 16.0419 17.0335 14.7767 17.017 14.7767C17.0006 14.7767 16.6058 15.1584 16.1401 15.6249ZM15.1655 15.2011C15.2588 15.2974 15.3236 15.3759 15.3099 15.3759C15.2963 15.3759 15.2087 15.2974 15.1156 15.2011C15.0224 15.105 14.9574 15.0265 14.9712 15.0265C14.9849 15.0265 15.0723 15.105 15.1655 15.2011ZM16.3638 16.3996C16.4571 16.4956 16.5221 16.5743 16.5084 16.5743C16.4947 16.5743 16.4072 16.4956 16.314 16.3996C16.221 16.3035 16.1558 16.2248 16.1696 16.2248C16.1833 16.2248 16.2708 16.3035 16.3638 16.3996ZM16.7635 16.7992C16.8566 16.8952 16.9215 16.974 16.9079 16.974C16.8941 16.974 16.8066 16.8952 16.7134 16.7992C16.6203 16.7029 16.5553 16.6244 16.569 16.6244C16.5828 16.6244 16.6703 16.7029 16.7635 16.7992ZM17.1629 17.1986C17.256 17.2946 17.3211 17.3734 17.3073 17.3734C17.2936 17.3734 17.2061 17.2946 17.1131 17.1986C17.0199 17.1025 16.9548 17.0238 16.9685 17.0238C16.9822 17.0238 17.0697 17.1025 17.1629 17.1986ZM17.5624 17.5981C17.6555 17.6942 17.7205 17.7729 17.7068 17.7729C17.693 17.7729 17.6055 17.6942 17.5125 17.5981C17.4192 17.5019 17.3544 17.4234 17.3679 17.4234C17.3817 17.4234 17.4692 17.5019 17.5624 17.5981ZM17.9618 17.9975C18.0551 18.0937 18.12 18.1723 18.1062 18.1723C18.0926 18.1723 18.0051 18.0937 17.912 17.9975C17.8188 17.9014 17.7538 17.8227 17.7676 17.8227C17.7811 17.8227 17.8686 17.9014 17.9618 17.9975ZM18.3613 18.397C18.4545 18.4931 18.5195 18.5718 18.5057 18.5718C18.492 18.5718 18.4046 18.4931 18.3114 18.397C18.2182 18.3008 18.1533 18.2223 18.167 18.2223C18.1807 18.2223 18.2683 18.3008 18.3613 18.397ZM18.7608 18.7964C18.8541 18.8927 18.9189 18.9712 18.9051 18.9712C18.8916 18.9712 18.8041 18.8927 18.7109 18.7964C18.6178 18.7004 18.5527 18.6217 18.5665 18.6217C18.5803 18.6217 18.6676 18.7004 18.7608 18.7964ZM19.1602 19.196C19.2534 19.292 19.3185 19.3707 19.3048 19.3707C19.2909 19.3707 19.2035 19.292 19.1103 19.196C19.0172 19.0999 18.9522 19.0212 18.9659 19.0212C18.9797 19.0212 19.0672 19.0999 19.1602 19.196ZM19.5599 19.5953C19.653 19.6917 19.7178 19.7701 19.7043 19.7701C19.6905 19.7701 19.603 19.6917 19.5098 19.5953C19.4167 19.4993 19.3516 19.4206 19.3654 19.4206C19.3792 19.4206 19.4667 19.4993 19.5599 19.5953ZM19.9593 19.995C20.0524 20.0911 20.1175 20.1698 20.1037 20.1698C20.0899 20.1698 20.0025 20.0911 19.9092 19.995C19.8161 19.8989 19.7512 19.8202 19.7649 19.8202C19.7786 19.8202 19.8661 19.8989 19.9593 19.995ZM20.3588 20.3944C20.4519 20.4906 20.5169 20.5692 20.5032 20.5692C20.4894 20.5692 20.4019 20.4906 20.3088 20.3944C20.2156 20.2983 20.1506 20.2197 20.1643 20.2197C20.1781 20.2197 20.2656 20.2983 20.3588 20.3944ZM20.7582 20.7939C20.8514 20.89 20.9164 20.9687 20.9026 20.9687C20.889 20.9687 20.8016 20.89 20.7084 20.7939C20.615 20.6978 20.5502 20.6191 20.564 20.6191C20.5775 20.6191 20.665 20.6978 20.7582 20.7939Z" fill="#D50003"/>
<path fill-rule="evenodd" clip-rule="evenodd" d="M2.97924 0.558059C3.1016 0.688551 3.20839 0.795173 3.21634 0.795173C3.25383 0.795173 3.21423 0.750375 2.99384 0.543455L2.75658 0.320801L2.97924 0.558059ZM2.28221 0.77018C2.16097 0.893843 2.07286 0.994948 2.08665 0.994948C2.10045 0.994948 2.21081 0.893843 2.3322 0.77018C2.45342 0.646669 2.54139 0.545577 2.52776 0.545577C2.51396 0.545577 2.40344 0.646669 2.28221 0.77018ZM1.49754 1.55679L0.989258 2.06849L1.10172 2.19345C1.16371 2.26209 1.2692 2.36222 1.33622 2.41595C1.40341 2.46967 1.36284 2.41384 1.24616 2.29196L1.03389 2.0701L1.54477 1.55744C1.82585 1.27555 2.04446 1.04493 2.03082 1.04493C2.01703 1.04493 1.77716 1.27522 1.49754 1.55679ZM3.8801 1.46931C3.97326 1.5654 4.06073 1.6441 4.07453 1.6441C4.08816 1.6441 4.02324 1.5654 3.93009 1.46931C3.83693 1.37324 3.74946 1.29453 3.73566 1.29453C3.72203 1.29453 3.78695 1.37324 3.8801 1.46931ZM1.98538 3.07971C1.98685 3.10032 2.05987 3.17189 2.14767 3.23875L2.30721 3.36047L2.1605 3.20143C2.00794 3.03589 1.98068 3.0169 1.98538 3.07971ZM7.87501 4.03234C7.87501 4.0549 7.9344 4.12793 8.00694 4.19463L8.13904 4.3157L8.05368 4.18213C7.97042 4.05198 7.97124 4.04824 8.08404 4.02666C8.17135 4.00995 8.15999 4.00297 8.0373 3.99778C7.94803 3.99404 7.87501 4.00962 7.87501 4.03234ZM8.61146 4.02633C8.6733 4.03818 8.77441 4.03818 8.83623 4.02633C8.89791 4.01433 8.84744 4.0046 8.72378 4.0046C8.60027 4.0046 8.54964 4.01433 8.61146 4.02633ZM19.8477 4.02845L30.4973 4.04126L30.4839 6.55804C30.4766 7.94236 30.4873 9.06442 30.508 9.05177C30.5286 9.03895 30.5455 7.89514 30.5455 6.50984V3.99111L19.8719 4.00346L9.19814 4.01579L19.8477 4.02845ZM6.8013 4.4405C6.99216 4.63265 7.15947 4.79007 7.1731 4.79007C7.18689 4.79007 7.04198 4.63265 6.85129 4.4405C6.66044 4.24818 6.49311 4.09093 6.47948 4.09093C6.46569 4.09093 6.61062 4.24818 6.8013 4.4405ZM8.15625 4.366C8.13954 4.40983 8.14619 4.43303 8.17118 4.41762C8.19601 4.40219 8.34532 4.52457 8.50274 4.68962C8.80118 5.0025 8.85701 5.03838 8.85701 4.91697C8.85701 4.87706 8.84191 4.85368 8.82359 4.86504C8.76906 4.8988 8.46915 4.62291 8.45552 4.52651C8.44854 4.47766 8.42987 4.44391 8.4138 4.45153C8.39789 4.45916 8.34028 4.42507 8.28576 4.37591C8.19715 4.29557 8.18368 4.2946 8.15625 4.366ZM2.23223 6.92855V9.01704L2.36969 9.13811L2.50698 9.25917L2.39452 9.13113L2.28221 9.00308V6.93877C2.28221 4.87754 2.28238 4.87446 2.38202 4.96485C2.43703 5.01452 2.48199 5.02993 2.48199 4.99926C2.48199 4.94878 2.33073 4.83989 2.26047 4.83989C2.24504 4.83989 2.23223 5.77987 2.23223 6.92855ZM7.34691 4.97687C7.42742 5.06579 7.50417 5.12746 7.51764 5.114C7.53111 5.10069 7.53274 5.08397 7.52121 5.07715C7.50985 5.07034 7.4331 5.00851 7.35065 4.94002L7.20086 4.81539L7.34691 4.97687ZM9.62269 5.81362C10.0477 6.2393 10.4059 6.58774 10.4187 6.58774C10.4314 6.58774 10.1396 6.28053 9.77004 5.90515C9.40068 5.52978 9.05906 5.1815 9.01103 5.1312C8.96282 5.08089 8.90699 5.03966 8.88671 5.03966C8.86643 5.03966 9.19765 5.38794 9.62269 5.81362ZM3.79928 6.36719C4.67612 7.25507 5.02992 7.64505 5.00216 7.69309C4.98043 7.73058 4.98204 7.74356 5.00557 7.72197C5.02926 7.70055 5.27303 7.90276 5.5473 8.17151C5.82173 8.4401 6.01371 8.61586 5.97428 8.56215C5.93484 8.50826 5.14969 7.70948 4.22967 6.78686C3.30966 5.86441 3.11589 5.67552 3.79928 6.36719ZM7.89984 5.53903C8.09069 5.73133 8.258 5.8886 8.2718 5.8886C8.28543 5.8886 8.14067 5.73133 7.94982 5.53903C7.75912 5.34672 7.59181 5.18945 7.57801 5.18945C7.56422 5.18945 7.70915 5.34672 7.89984 5.53903ZM4.37946 5.51404C4.47261 5.61011 4.5601 5.68882 4.57388 5.68882C4.58751 5.68882 4.52261 5.61011 4.42946 5.51404C4.3363 5.41796 4.24882 5.33926 4.23503 5.33926C4.2214 5.33926 4.28631 5.41796 4.37946 5.51404ZM4.63101 5.74838C4.68424 5.82806 6.8263 7.96572 6.8263 7.93928C6.8263 7.92321 6.32709 7.4159 5.71705 6.81202C5.107 6.20798 4.61835 5.72939 4.63101 5.74838ZM8.99853 6.63756C9.1058 6.74743 9.2048 6.83734 9.21843 6.83734C9.23223 6.83734 9.15562 6.74743 9.04835 6.63756C8.94108 6.52769 8.84208 6.43779 8.82844 6.43779C8.81465 6.43779 8.89125 6.52769 8.99853 6.63756ZM10.8251 7.02462C11.0289 7.23738 11.2293 7.43115 11.2706 7.45517C11.3118 7.47919 11.1549 7.30505 10.9221 7.06828C10.6892 6.83133 10.4888 6.63756 10.4766 6.63756C10.4646 6.63756 10.6214 6.8117 10.8251 7.02462ZM9.6975 7.3367C9.80478 7.44658 9.90378 7.53647 9.91757 7.53647C9.93136 7.53647 9.85476 7.44658 9.74749 7.3367C9.64022 7.22683 9.54122 7.13692 9.52743 7.13692C9.51379 7.13692 9.59024 7.22683 9.6975 7.3367ZM11.7199 9.40896C11.9797 9.66992 12.2028 9.88334 12.2154 9.88334C12.2583 9.88334 11.3459 8.9479 11.2965 8.94125C11.2696 8.93768 11.4601 9.14801 11.7199 9.40896ZM2.8228 9.55518C2.97794 9.70433 3.11475 9.81647 3.12692 9.8043C3.15094 9.78028 2.6274 9.29017 2.57368 9.28644C2.5555 9.28514 2.66764 9.4062 2.8228 9.55518ZM29.9688 9.49644L29.7715 9.70854L29.9836 9.5112C30.1811 9.32766 30.2187 9.28416 30.1811 9.28416C30.1728 9.28416 30.0774 9.37959 29.9688 9.49644ZM13.917 10.1581C14.1769 10.4189 14.4008 10.6325 14.4144 10.6325C14.4282 10.6325 14.2269 10.4189 13.9669 10.1581C13.7072 9.89712 13.4834 9.68355 13.4696 9.68355C13.456 9.68355 13.6572 9.89712 13.917 10.1581ZM3.40574 10.0627C3.54303 10.1962 3.73405 10.3728 3.83028 10.4547L4.0049 10.6037L3.8801 10.4632C3.81146 10.3859 3.62045 10.2095 3.45572 10.0711L3.15613 9.81956L3.40574 10.0627ZM29.4186 9.99581L29.2722 10.1581L29.4343 10.0114C29.5237 9.93072 29.5967 9.85769 29.5967 9.8491C29.5967 9.81047 29.5555 9.84439 29.4186 9.99581ZM7.42546 10.0581C7.51861 10.1542 7.60609 10.2329 7.61988 10.2329C7.63368 10.2329 7.5686 10.1542 7.47544 10.0581C7.38229 9.96204 7.29482 9.88334 7.28103 9.88334C7.2674 9.88334 7.33231 9.96204 7.42546 10.0581ZM13.243 10.932C13.7917 11.4812 14.252 11.9308 14.2656 11.9308C14.2794 11.9308 13.8417 11.4812 13.2929 10.932C12.7441 10.3827 12.2839 9.93333 12.2702 9.93333C12.2565 9.93333 12.6942 10.3827 13.243 10.932ZM9.07335 10.2579C9.1665 10.354 9.25397 10.4327 9.26777 10.4327C9.2814 10.4327 9.21648 10.354 9.12333 10.2579C9.03018 10.1618 8.9427 10.0831 8.92891 10.0831C8.91527 10.0831 8.98019 10.1618 9.07335 10.2579ZM28.3481 10.9395C27.8677 11.3798 27.4232 11.7748 27.3605 11.8172C27.2979 11.8595 27.2574 11.9051 27.2706 11.9184C27.2916 11.9394 27.7136 11.5802 28.3681 10.9845C28.7768 10.6123 29.2709 10.1363 29.2471 10.1376C29.2333 10.1385 28.829 10.4994 28.3481 10.9395ZM9.04835 11.681C9.81711 12.4501 10.4572 13.0794 10.4708 13.0794C10.4846 13.0794 9.86693 12.4501 9.09834 11.681C8.32973 10.9121 7.68967 10.2829 7.67588 10.2829C7.66208 10.2829 8.27975 10.9121 9.04835 11.681ZM9.4729 10.6573C9.56605 10.7535 9.65352 10.8321 9.66716 10.8321C9.68095 10.8321 9.61604 10.7535 9.52272 10.6573C9.42956 10.5612 9.34209 10.4827 9.32846 10.4827C9.31466 10.4827 9.37974 10.5612 9.4729 10.6573ZM4.27965 10.8571C4.37281 10.9533 4.46028 11.0318 4.47391 11.0318C4.48771 11.0318 4.42279 10.9533 4.32949 10.8571C4.23633 10.761 4.14886 10.6823 4.13523 10.6823C4.12143 10.6823 4.1865 10.761 4.27965 10.8571ZM15.4152 11.6542C15.9506 12.2024 16.3945 12.6612 16.4013 12.6737C16.4082 12.6862 16.4242 12.6859 16.4369 12.6732C16.4496 12.6606 16.0059 12.2018 15.4507 11.6537L14.4413 10.6573L15.4152 11.6542ZM4.57925 11.1029C4.57925 11.1177 4.68424 11.2256 4.81278 11.343C4.94115 11.4603 5.10409 11.6093 5.17469 11.674C5.38549 11.8673 6.0796 12.4886 6.35403 12.7297C6.49912 12.8571 6.46488 12.8138 6.275 12.6297C5.80615 12.1752 4.57925 11.0706 4.57925 11.1029ZM9.92227 11.0947C9.92227 11.1016 10.5346 11.7139 11.2831 12.4554L12.6437 13.8033L11.2959 12.4425C10.0432 11.1781 9.92227 11.0593 9.92227 11.0947ZM26.6474 12.4933C26.192 12.933 26.2956 12.8532 26.9096 12.2907C27.0659 12.1477 27.1783 12.0309 27.1593 12.0314C27.1404 12.0317 26.91 12.2396 26.6474 12.4933ZM16.9131 13.1747C17.1463 13.4199 17.3452 13.6126 17.3552 13.6026C17.3765 13.5814 16.5606 12.7299 16.5183 12.7292C16.502 12.7291 16.6797 12.9295 16.9131 13.1747ZM6.87417 13.1916C7.08108 13.4119 7.12588 13.4518 7.12588 13.4143C7.12588 13.4062 7.01926 13.2996 6.88878 13.1769L6.6515 12.9544L6.87417 13.1916ZM25.8741 13.1916L25.6767 13.4039L25.889 13.2064C26.0864 13.0228 26.1241 12.9793 26.0864 12.9793C26.0783 12.9793 25.9828 13.075 25.8741 13.1916ZM10.5214 13.1429C10.5214 13.1504 10.6956 13.3245 10.9085 13.5298L11.2956 13.903L10.9223 13.5161C10.5755 13.1567 10.5214 13.1065 10.5214 13.1429ZM7.17586 13.4414C7.17586 13.4785 7.54247 13.8249 7.85002 14.0784C8.03405 14.23 8.03209 14.226 7.82502 14.0268C7.3018 13.5234 7.17586 13.4098 7.17586 13.4414ZM25.1491 13.8423C24.9138 14.068 24.779 14.2055 24.8495 14.1478C25.0456 13.9876 25.63 13.4308 25.6018 13.4312C25.5882 13.4317 25.3844 13.6164 25.1491 13.8423ZM17.4986 13.782C17.5596 13.8455 17.6221 13.8851 17.6375 13.8696C17.6527 13.8543 17.6028 13.8023 17.5265 13.7541L17.3876 13.6664L17.4986 13.782ZM19.4849 15.7757C20.3909 16.682 21.1417 17.4236 21.1532 17.4236C21.1797 17.4236 21.3812 17.6285 19.5128 15.7535C18.6218 14.8595 17.8805 14.1278 17.8651 14.1278C17.8499 14.1278 18.5788 14.8693 19.4849 15.7757ZM8.07462 14.2874C8.39401 14.5844 8.5829 14.7311 8.42419 14.5589C8.32812 14.4546 8.20446 14.3457 8.1496 14.3168C8.09458 14.2879 8.06099 14.2745 8.07462 14.2874ZM24.3125 14.5792C24.1665 14.7155 24.0595 14.8269 24.0748 14.8269C24.0903 14.8269 24.2269 14.7145 24.3785 14.5773C24.53 14.44 24.6371 14.3284 24.6162 14.3295C24.5953 14.3305 24.4586 14.4429 24.3125 14.5792ZM12.4296 15.1009C12.6414 15.3184 12.8216 15.4863 12.83 15.4739C12.8383 15.4613 12.6649 15.2834 12.4449 15.0782L12.0445 14.7052L12.4296 15.1009ZM16.9333 14.7848C16.9101 14.8223 16.9198 14.8288 16.9611 14.8032C17.0037 14.7768 17.3914 15.1271 18.1548 15.8816L19.285 16.999L18.162 15.863C17.0144 14.7022 16.9948 14.6851 16.9333 14.7848ZM8.92354 15.0515C9.0167 15.1479 9.10418 15.2264 9.11798 15.2264C9.13161 15.2264 9.06669 15.1479 8.97354 15.0515C8.88039 14.9556 8.79291 14.8767 8.77912 14.8767C8.76548 14.8767 8.83039 14.9556 8.92354 15.0515ZM23.8016 15.0641L23.6296 15.2513L23.8287 15.0766C23.9382 14.9805 24.0376 14.8963 24.0492 14.8893C24.0608 14.8825 24.0486 14.8767 24.0221 14.8767C23.9954 14.8767 23.8962 14.9612 23.8016 15.0641ZM9.17689 15.2617C9.17883 15.2835 9.3713 15.4698 9.60468 15.6759C10.0068 16.0308 10.2629 16.2616 10.5917 16.5654C10.6714 16.6391 10.7214 16.6725 10.7027 16.6398C10.6526 16.5517 9.17266 15.2152 9.17689 15.2617ZM23.3031 15.5136L23.0302 15.8007L23.3172 15.5277C23.5841 15.2742 23.6274 15.2264 23.5903 15.2264C23.5825 15.2264 23.4533 15.3555 23.3031 15.5136ZM12.8684 15.5359C12.928 15.6191 16.4863 19.1713 16.5103 19.1713C16.5457 19.1713 13.6937 16.2946 13.218 15.8506C13.0121 15.6584 12.8549 15.5167 12.8684 15.5359ZM14.6161 15.8506C14.7931 16.029 14.9491 16.1751 14.9628 16.1751C14.9766 16.1751 14.843 16.029 14.6661 15.8506C14.4892 15.6719 14.3331 15.5259 14.3195 15.5259C14.3057 15.5259 14.4393 15.6719 14.6161 15.8506ZM15.9391 15.7761C15.8522 15.8723 15.844 15.8727 15.7441 15.7886C15.6415 15.7022 15.6411 15.7023 15.7265 15.8037C15.7963 15.8867 15.8011 15.9208 15.7516 15.9784C15.7176 16.0178 15.774 15.9728 15.877 15.8781C15.98 15.7835 16.0642 15.6993 16.0642 15.691C16.0642 15.655 16.0238 15.6823 15.9391 15.7761ZM22.5308 16.2072L22.0814 16.6358L22.5434 16.2253C22.9481 15.8656 23.0428 15.7712 22.9927 15.7772C22.9859 15.778 22.7779 15.9716 22.5308 16.2072ZM15.0156 16.2293C15.0156 16.2412 15.628 16.8574 16.3764 17.5987L17.7372 18.9466L16.5198 17.7164C15.6967 16.8845 15.315 16.4657 15.3414 16.4228C15.3678 16.3802 15.3606 16.3719 15.3194 16.3975C15.2829 16.4198 15.2084 16.3887 15.1368 16.3215C15.0703 16.2588 15.0156 16.2175 15.0156 16.2293ZM10.7712 16.6872C10.7712 16.7001 11.0015 16.9206 11.2831 17.1774C11.5645 17.4341 11.7386 17.581 11.67 17.5038C11.5184 17.3334 10.7712 16.6545 10.7712 16.6872ZM21.8286 16.8367L21.682 16.999L21.8444 16.8524C21.9336 16.7718 22.0067 16.6987 22.0067 16.6903C22.0067 16.6515 21.9653 16.6855 21.8286 16.8367ZM21.38 17.2334L21.1827 17.4428L21.3656 17.2959C21.5182 17.1734 21.6418 17.0241 21.5907 17.0241C21.5833 17.0241 21.4886 17.1184 21.38 17.2334ZM11.9945 17.823C12.1018 17.9329 12.2008 18.0228 12.2146 18.0228C12.2284 18.0228 12.1518 17.9329 12.0445 17.823C11.9373 17.7131 11.8383 17.6234 11.8245 17.6234C11.8108 17.6234 11.8872 17.7131 11.9945 17.823ZM12.3691 18.1383C12.3691 18.147 12.4421 18.2199 12.5314 18.3005L12.6936 18.4471L12.5469 18.2848C12.4103 18.1336 12.3691 18.0997 12.3691 18.1383ZM13.0655 18.7937C13.1601 18.8915 13.246 18.9715 13.2564 18.9715C13.2997 18.9715 13.0372 18.6762 12.9683 18.6472C12.927 18.63 12.9708 18.6959 13.0655 18.7937ZM13.5707 19.25C13.6651 19.362 13.7525 19.4456 13.7648 19.4356C13.7771 19.4257 13.6999 19.334 13.5931 19.2319L13.3989 19.0465L13.5707 19.25ZM16.6563 19.3633C16.7484 19.45 16.8363 19.5209 16.8513 19.5209C16.9001 19.5209 16.6926 19.3135 16.5891 19.2588C16.5339 19.2296 16.564 19.2766 16.6563 19.3633ZM17.3624 20.0949C17.4269 20.1635 17.4904 20.2085 17.5039 20.1949C17.5372 20.1618 17.3599 19.9702 17.2962 19.9702C17.2682 19.9702 17.2979 20.0263 17.3624 20.0949ZM18.2136 20.9439C18.5265 21.2598 18.7976 21.5183 18.8162 21.5183C18.8349 21.5183 18.5949 21.2598 18.2833 20.9439C17.9715 20.6281 17.7003 20.3697 17.6806 20.3697C17.6608 20.3697 17.9009 20.6281 18.2136 20.9439ZM23.4548 21.2435C23.9348 21.7242 24.3387 22.1174 24.3524 22.1174C24.3662 22.1174 23.9846 21.7242 23.5046 21.2435C23.0244 20.763 22.6205 20.3697 22.6067 20.3697C22.5932 20.3697 22.9746 20.763 23.4548 21.2435ZM21.5562 22.8289C21.8442 23.1242 22.0857 23.3658 22.093 23.3658C22.1292 23.3658 22.0681 23.3019 21.5695 22.8156L21.0329 22.2922L21.5562 22.8289ZM22.4809 23.7653C22.6717 23.9575 22.839 24.1149 22.8528 24.1149C22.8664 24.1149 22.7217 23.9575 22.5308 23.7653C22.3401 23.573 22.1728 23.4158 22.159 23.4158C22.1453 23.4158 22.2901 23.573 22.4809 23.7653ZM23.0802 24.3646C23.1875 24.4743 23.2864 24.5642 23.3002 24.5642C23.3138 24.5642 23.2374 24.4743 23.1301 24.3646C23.0228 24.2546 22.9238 24.1647 22.91 24.1647C22.8963 24.1647 22.9728 24.2546 23.0802 24.3646ZM28.8476 26.6866C29.0799 26.9199 29.281 27.111 29.2949 27.111C29.3087 27.111 29.1298 26.9199 28.8975 26.6866C28.6653 26.4531 28.4641 26.262 28.4502 26.262C28.4367 26.262 28.6153 26.4531 28.8476 26.6866ZM29.4968 27.3357C29.5898 27.4318 29.6773 27.5105 29.6911 27.5105C29.7049 27.5105 29.6399 27.4318 29.5467 27.3357C29.4535 27.2395 29.366 27.1609 29.3524 27.1609C29.3387 27.1609 29.4035 27.2395 29.4968 27.3357ZM29.3719 28.4592C29.0433 28.7889 28.7856 29.0584 28.7993 29.0584C28.813 29.0584 29.0931 28.7889 29.4219 28.4592C29.7505 28.1296 30.0082 27.8599 29.9947 27.8599C29.9809 27.8599 29.7007 28.1296 29.3719 28.4592ZM13.7213 27.9453C13.7192 27.9789 13.8466 28.0929 14.0044 28.199C14.3578 28.4363 14.4164 28.4711 14.4164 28.443C14.4164 28.4308 14.2716 28.3267 14.0948 28.2114C13.9177 28.096 13.7622 27.9755 13.749 27.9433C13.7315 27.9003 13.7243 27.9007 13.7213 27.9453ZM26.9251 28.2595C27.0605 28.3967 27.1823 28.509 27.196 28.509C27.2098 28.509 27.1103 28.3967 26.9751 28.2595C26.8397 28.1222 26.7179 28.0098 26.7042 28.0098C26.6904 28.0098 26.7899 28.1222 26.9251 28.2595ZM27.724 29.0584C27.9976 29.3329 28.2328 29.5578 28.2466 29.5578C28.2603 29.5578 28.0477 29.3329 27.774 29.0584C27.5004 28.7838 27.2652 28.5591 27.2517 28.5591C27.2379 28.5591 27.4504 28.7838 27.724 29.0584ZM28.4982 29.3329C28.3767 29.4567 28.2889 29.5578 28.3024 29.5578C28.3163 29.5578 28.4267 29.4567 28.548 29.3329C28.6694 29.2095 28.7574 29.1083 28.7436 29.1083C28.7299 29.1083 28.6194 29.2095 28.4982 29.3329ZM15.8147 29.3807C15.8147 29.3937 15.9439 29.491 16.1017 29.5972C16.4515 29.832 16.5137 29.8692 16.5137 29.8428C16.5137 29.8314 16.3564 29.7174 16.1643 29.5897C15.9719 29.4619 15.8147 29.3678 15.8147 29.3807ZM16.8968 30.111C16.9588 30.1859 17.2628 30.3771 17.2628 30.3413C17.2628 30.3296 17.1672 30.2571 17.0505 30.1802C16.9337 30.1031 16.8646 30.072 16.8968 30.111ZM18.0617 30.8761C18.0617 30.89 18.1628 30.9709 18.2863 31.0559C18.41 31.1409 18.511 31.1992 18.511 31.1855C18.511 31.1716 18.41 31.0909 18.2863 31.0059C18.1628 30.9208 18.0617 30.8626 18.0617 30.8761Z" fill="#6AA3FB"/>
</svg>
