<svg width="20" height="20" viewBox="0 0 20 20" fill="none" xmlns="http://www.w3.org/2000/svg">
<path d="M11.9757 13.2131C11.5041 13.6857 10.8757 13.9457 10.2082 13.9457C9.54076 13.9457 8.91241 13.6857 8.44077 13.2131L4.89909 9.67157C4.42668 9.19977 4.16667 8.57157 4.16667 7.90401C4.16667 7.23644 4.42668 6.60825 4.89909 6.1366C5.37073 5.66404 5.99908 5.40404 6.66665 5.40404C7.33406 5.40404 7.96241 5.66404 8.43406 6.1366L10.2082 7.90981L15.1057 3.0124C13.5057 1.64828 11.4341 0.820801 9.16662 0.820801C4.10411 0.820801 0 4.92491 0 9.98727C0 15.0498 4.10411 19.1539 9.16662 19.1539C14.229 19.1539 18.3331 15.0498 18.3331 9.98727C18.3331 9.03986 18.189 8.12648 17.9223 7.2665L11.9757 13.2131Z" fill="#4CAF50"/>
<path d="M10.2082 12.2789C9.99486 12.2789 9.78155 12.1973 9.61904 12.0348L6.07751 8.49307C5.75159 8.1673 5.75159 7.64057 6.07751 7.3148C6.40328 6.98887 6.92986 6.98887 7.25578 7.3148L10.2082 10.2672L18.5774 1.89814C18.9032 1.57237 19.4297 1.57237 19.7557 1.89814C20.0814 2.22406 20.0814 2.75064 19.7557 3.07656L10.7973 12.0348C10.635 12.1973 10.4215 12.2789 10.2082 12.2789V12.2789Z" fill="#2196F3"/>
</svg>
