<svg width="20" height="20" viewBox="0 0 20 20" fill="none" xmlns="http://www.w3.org/2000/svg">
<path d="M10.2082 14.4457C11.008 14.4457 11.7637 14.1332 12.3293 13.5666L8.08723 13.5667C8.65283 14.1332 9.40845 14.4457 10.2082 14.4457ZM4.54577 10.0253L8.08688 13.5663H12.3296L17.6566 8.23933C17.7722 8.80371 17.8331 9.38813 17.8331 9.98727C17.8331 14.7736 13.9528 18.6539 9.16662 18.6539C4.38025 18.6539 0.499995 14.7736 0.499995 9.98727C0.499995 5.20106 4.38025 1.3208 9.16662 1.3208C11.115 1.3208 12.91 1.96671 14.3575 3.05356L10.2081 7.20281L8.78795 5.7834C8.78785 5.78329 8.78775 5.78319 8.78765 5.78309C8.22203 5.21654 7.4664 4.90404 6.66665 4.90404C5.86675 4.90404 5.1111 5.21654 4.54548 5.78312C3.97916 6.34869 3.66668 7.10412 3.66668 7.90401C3.66668 8.70408 3.9793 9.45961 4.54577 10.0253Z" fill="#F0F0F0" stroke="#878788" stroke-width="0.99999"/>
<path d="M6.43107 8.13953L6.43098 8.13944C6.30043 8.00894 6.30043 7.79892 6.43098 7.66843L6.43114 7.66827C6.56159 7.53776 6.77152 7.53764 6.90223 7.66835L9.85463 10.6207L10.2082 10.9743L10.5617 10.6207L18.9309 2.25169L18.5782 1.899L18.9309 2.25169C19.0613 2.12128 19.2713 2.1211 19.402 2.2516C19.5326 2.38229 19.5326 2.59241 19.402 2.72309L10.4438 11.6812L10.4436 11.6814C10.3787 11.7463 10.2942 11.7789 10.2082 11.7789C10.1223 11.7789 10.0378 11.7464 9.9726 11.6812C9.9726 11.6812 9.97259 11.6812 9.97259 11.6812L6.43107 8.13953Z" stroke="#878788" stroke-width="0.99999"/>
</svg>
