<svg width="32" height="32" viewBox="0 0 32 32" fill="none" xmlns="http://www.w3.org/2000/svg">
<g clip-path="url(#clip0)">
<path d="M15.9707 24.4764C12.1504 24.4857 8.78928 21.9546 7.74276 18.2801C6.69625 14.6059 8.21951 10.6838 11.4716 8.67858C14.7236 6.67363 18.912 7.07425 21.7247 9.65963C24.5377 12.245 25.2896 16.3846 23.5652 19.7941L26.2935 22.5241C27.1555 21.1749 27.7417 19.6683 28.0173 18.0913H31.4014V13.8345H28.0173C27.7131 12.0766 27.0225 10.4084 25.9955 8.94982L28.3844 6.55541L25.3782 3.54915L22.9838 5.93836C21.5252 4.91107 19.8569 4.2205 18.0991 3.91626V0.532227H13.8423V3.91626C12.0847 4.2205 10.4162 4.91107 8.9579 5.93836L6.56348 3.54915L3.55722 6.55541L5.94617 8.94982C4.91888 10.4084 4.22831 12.0766 3.92433 13.8345H0.540039V18.0913H3.92433C4.22831 19.8491 4.91888 21.5174 5.94617 22.9759L3.55722 25.3704L6.56348 28.3766L8.9579 25.9874C10.4162 27.0147 12.0847 27.7053 13.8423 28.0095V31.3935H18.0991V28.0095C18.5311 27.9339 18.959 27.8349 19.3804 27.7136C20.4924 27.3899 21.5514 26.9069 22.5252 26.2797L19.8019 23.5574C18.615 24.1609 17.3022 24.4758 15.9707 24.4764V24.4764Z" fill="#9BC9FF"/>
<path d="M18.0989 31.9255H13.8422C13.5484 31.9255 13.3101 31.6873 13.3101 31.3934V28.4492C11.7842 28.126 10.3309 27.5241 9.02323 26.6737L6.93903 28.7532C6.73119 28.9605 6.39473 28.9605 6.18714 28.7532L3.18088 25.747C2.97329 25.5391 2.97329 25.2026 3.18088 24.9951L5.26014 22.9109C4.40978 21.603 3.80754 20.1493 3.48408 18.6232H0.539904C0.246059 18.6232 0.0078125 18.385 0.0078125 18.0911V13.8344C0.0078125 13.5405 0.246059 13.3023 0.539904 13.3023H3.48408C3.80754 11.7764 4.40952 10.323 5.25962 9.01516L3.18036 6.93096C2.97277 6.72337 2.97277 6.38692 3.18036 6.17907L6.18662 3.1728C6.39421 2.96548 6.73067 2.96548 6.93852 3.1728L9.02271 5.25233C10.3306 4.40171 11.784 3.79973 13.3101 3.47626V0.532092C13.3101 0.238246 13.5484 0 13.8422 0H18.0989C18.3928 0 18.631 0.238246 18.631 0.532092V3.47626C20.1571 3.79947 21.6103 4.40145 22.9182 5.25181L25.0024 3.17229C25.2102 2.96496 25.5464 2.96496 25.7542 3.17229L28.7605 6.17855C28.9678 6.3864 28.9678 6.72285 28.7605 6.93044L26.6818 9.01516C27.5319 10.323 28.1338 11.7764 28.4573 13.3023H31.4012C31.6951 13.3023 31.9333 13.5405 31.9333 13.8344V18.0911C31.9333 18.385 31.6951 18.6232 31.4012 18.6232H28.4573C28.2848 19.446 28.0299 20.2491 27.6963 21.0207C27.5784 21.2881 27.2669 21.4102 26.9987 21.2943C26.7304 21.1784 26.6056 20.868 26.7194 20.5988C27.079 19.7666 27.3388 18.8947 27.4932 18.0012C27.5368 17.7458 27.7582 17.5593 28.0172 17.559H30.8691V14.3665H28.0172C27.7582 14.3662 27.5368 14.1797 27.4932 13.9243C27.1993 12.2459 26.5391 10.6527 25.5594 9.25834C25.4108 9.04686 25.4357 8.75899 25.6186 8.57634L27.6324 6.55865L25.3775 4.3035L23.3598 6.31755C23.1769 6.5002 22.8893 6.52514 22.6776 6.37653C21.2826 5.39652 19.6885 4.73634 18.009 4.44302C17.7529 4.39911 17.5658 4.17619 17.5668 3.91612V1.06418H14.3743V3.91612C14.3743 4.17515 14.1875 4.39651 13.9321 4.44042C12.2537 4.73401 10.6606 5.39444 9.26642 6.37393C9.05467 6.52254 8.76706 6.4976 8.58415 6.31495L6.56647 4.3009L4.31157 6.5558L6.32536 8.57348C6.50827 8.75639 6.53321 9.04426 6.3846 9.25575C5.40459 10.6509 4.74442 12.2449 4.45083 13.9243C4.40692 14.1807 4.18426 14.3675 3.92419 14.3665H1.072V17.559H3.92419C4.18323 17.5593 4.40432 17.7458 4.44823 18.0012C4.74156 19.6806 5.402 21.2746 6.38174 22.6698C6.53061 22.8812 6.50567 23.1691 6.32276 23.352L4.30871 25.3697L6.56387 27.6246L8.58156 25.6106C8.76446 25.4279 9.05207 25.403 9.26356 25.5516C10.6587 26.5316 12.2527 27.1918 13.9321 27.4851C14.1875 27.529 14.3743 27.7504 14.3743 28.0094V30.8613H17.5668V28.0094C17.5671 27.7504 17.7534 27.5293 18.0085 27.4851C18.8797 27.3354 19.7308 27.0855 20.5445 26.7402C20.815 26.6254 21.1275 26.7514 21.2424 27.0221C21.3572 27.2926 21.2312 27.6049 20.9607 27.72C20.2096 28.038 19.4294 28.2824 18.631 28.4492V31.3934C18.631 31.6873 18.3928 31.9255 18.0989 31.9255V31.9255Z" fill="#1E81CE"/>
<path d="M15.9706 25.0083C12.1108 25.0049 8.67926 22.5505 7.42853 18.8989C6.17806 15.2472 7.38462 11.2043 10.4319 8.83537C13.4795 6.46642 17.6949 6.29442 20.9254 8.4072C24.1556 10.5197 25.6877 14.4507 24.7389 18.1922C24.6973 18.3818 24.556 18.5338 24.3697 18.5887C24.1834 18.6435 23.9821 18.5925 23.8444 18.4559C23.7067 18.319 23.6542 18.1181 23.7077 17.9316C24.5859 14.4639 23.0468 10.8362 19.9433 9.05777C16.8402 7.2791 12.9321 7.78522 10.3841 10.2958C7.83617 12.8061 7.27213 16.7063 9.00428 19.8357C10.7367 22.9652 14.341 24.5578 17.8212 23.7313C18.1073 23.6638 18.3941 23.8407 18.4616 24.1268C18.5292 24.4131 18.352 24.6997 18.0659 24.7672C17.3793 24.9285 16.6762 25.0093 15.9706 25.0083V25.0083Z" fill="#1E81CE"/>
<path d="M28.8164 32.0002C27.9699 32.0015 27.1575 31.6653 26.5594 31.0662L16.7284 21.2355L14.1854 21.4381C14.03 21.4501 13.8773 21.3937 13.7669 21.2838L9.78241 17.2996C9.65796 17.1752 9.60288 16.9972 9.63562 16.8244L10.2342 13.6599C10.2709 13.4664 10.4117 13.3089 10.6 13.2507C10.7884 13.1928 10.9934 13.2434 11.1329 13.3827L14.5 16.7499L16.5939 16.5859L16.7575 14.4921L13.3907 11.1252C13.2514 10.9857 13.2005 10.7807 13.2587 10.5923C13.3166 10.404 13.4741 10.2632 13.6679 10.2265L16.8321 9.62793C17.0051 9.59519 17.1828 9.65027 17.3073 9.77472L21.2915 13.7589C21.4019 13.8691 21.4583 14.0224 21.4458 14.1777L21.2432 16.7205L31.0741 26.5515C31.986 27.4647 32.2586 28.8373 31.7647 30.0298C31.2705 31.2221 30.1071 31.9997 28.8164 32.0002ZM16.9311 20.1531C17.0722 20.1531 17.2075 20.2092 17.3073 20.309L27.3105 30.3122C28.1533 31.1158 29.4784 31.1158 30.3212 30.3122C31.1528 29.4811 31.1528 28.1329 30.3212 27.3018L20.318 17.2983C20.2076 17.1882 20.1512 17.0351 20.1636 16.8798L20.3663 14.3367L16.7544 10.7243L14.856 11.0836L17.6845 13.9122C17.7944 14.0221 17.8508 14.1749 17.8389 14.33L17.6201 17.1229C17.5998 17.384 17.3922 17.5914 17.1311 17.6119L14.3392 17.8299C14.1841 17.8421 14.0316 17.7857 13.9217 17.6758L11.0924 14.8454L10.7333 16.7439L14.3457 20.3558L16.8885 20.1531C16.9028 20.1536 16.9168 20.1531 16.9311 20.1531Z" fill="#1E81CE"/>
<path d="M28.7407 30.3293C27.8592 30.3293 27.1444 29.6145 27.1444 28.733C27.1444 27.8515 27.8592 27.1367 28.7407 27.1367C29.6225 27.1367 30.337 27.8515 30.337 28.733C30.337 29.6145 29.6225 30.3293 28.7407 30.3293ZM28.7407 28.2009C28.4468 28.2009 28.2086 28.4392 28.2086 28.733C28.2086 29.0268 28.4468 29.2651 28.7407 29.2651C29.0345 29.2651 29.2728 29.0268 29.2728 28.733C29.2728 28.4392 29.0345 28.2009 28.7407 28.2009Z" fill="#1E81CE"/>
</g>
<defs>
<clipPath id="clip0">
<rect width="32" height="32" fill="white"/>
</clipPath>
</defs>
</svg>
