<svg width="32" height="32" viewBox="0 0 32 32" fill="none" xmlns="http://www.w3.org/2000/svg">
<g clip-path="url(#clip0)">
<path d="M15.9706 24.4764C12.1503 24.4857 8.78916 21.9546 7.74264 18.2801C6.69613 14.6059 8.21939 10.6838 11.4714 8.67858C14.7235 6.67363 18.9119 7.07425 21.7246 9.65963C24.5376 12.245 25.2895 16.3846 23.5651 19.7941L26.2934 22.5241C27.1554 21.1749 27.7416 19.6683 28.0172 18.0913H31.4012V13.8345H28.0172C27.713 12.0766 27.0224 10.4084 25.9954 8.94983L28.3843 6.55541L25.3781 3.54915L22.9836 5.93836C21.5251 4.91107 19.8568 4.2205 18.0989 3.91626V0.532227H13.8422V3.91626C12.0846 4.2205 10.4161 4.91107 8.95778 5.93836L6.56336 3.54915L3.5571 6.55541L5.94605 8.94983C4.91876 10.4084 4.22819 12.0766 3.92421 13.8345H0.539917V18.0913H3.92421C4.22819 19.8491 4.91876 21.5174 5.94605 22.976L3.5571 25.3704L6.56336 28.3766L8.95778 25.9874C10.4161 27.0147 12.0846 27.7053 13.8422 28.0095V31.3936H18.0989V28.0095C18.531 27.9339 18.9589 27.8349 19.3803 27.7136C20.4923 27.3899 21.5513 26.9069 22.5251 26.2797L19.8017 23.5574C18.6149 24.1609 17.3021 24.4758 15.9706 24.4764V24.4764Z" fill="#F1F1F1"/>
<path d="M18.0991 31.9255H13.8423C13.5485 31.9255 13.3102 31.6873 13.3102 31.3934V28.4492C11.7844 28.126 10.331 27.5241 9.02336 26.6737L6.93916 28.7532C6.73131 28.9605 6.39485 28.9605 6.18726 28.7532L3.181 25.747C2.97341 25.5391 2.97341 25.2026 3.181 24.9951L5.26026 22.9109C4.4099 21.603 3.80766 20.1493 3.4842 18.6232H0.540026C0.246181 18.6232 0.00793457 18.385 0.00793457 18.0911V13.8344C0.00793457 13.5405 0.246181 13.3023 0.540026 13.3023H3.4842C3.80766 11.7764 4.40964 10.323 5.25974 9.01516L3.18048 6.93096C2.97289 6.72337 2.97289 6.38692 3.18048 6.17907L6.18675 3.1728C6.39433 2.96548 6.73079 2.96548 6.93864 3.1728L9.02284 5.25233C10.3307 4.40171 11.7841 3.79973 13.3102 3.47626V0.532092C13.3102 0.238246 13.5485 0 13.8423 0H18.0991C18.3929 0 18.6311 0.238246 18.6311 0.532092V3.47626C20.1573 3.79947 21.6104 4.40145 22.9183 5.25181L25.0025 3.17229C25.2103 2.96496 25.5465 2.96496 25.7544 3.17229L28.7606 6.17855C28.968 6.3864 28.968 6.72285 28.7606 6.93044L26.6819 9.01516C27.532 10.323 28.134 11.7764 28.4574 13.3023H31.4013C31.6952 13.3023 31.9334 13.5405 31.9334 13.8344V18.0911C31.9334 18.385 31.6952 18.6232 31.4013 18.6232H28.4574C28.2849 19.446 28.03 20.2491 27.6964 21.0207C27.5785 21.2881 27.267 21.4102 26.9989 21.2943C26.7305 21.1784 26.6058 20.868 26.7196 20.5988C27.0791 19.7666 27.3389 18.8947 27.4933 18.0012C27.5369 17.7458 27.7583 17.5593 28.0173 17.559H30.8693V14.3665H28.0173C27.7583 14.3662 27.5369 14.1797 27.4933 13.9243C27.1994 12.2459 26.5393 10.6527 25.5595 9.25834C25.4109 9.04686 25.4358 8.75899 25.6187 8.57634L27.6325 6.55865L25.3776 4.3035L23.36 6.31755C23.177 6.5002 22.8894 6.52514 22.6777 6.37653C21.2828 5.39652 19.6886 4.73634 18.0092 4.44302C17.753 4.39911 17.5659 4.17619 17.567 3.91612V1.06418H14.3744V3.91612C14.3744 4.17515 14.1876 4.39651 13.9322 4.44042C12.2538 4.73401 10.6607 5.39444 9.26654 6.37393C9.05479 6.52254 8.76718 6.4976 8.58428 6.31495L6.56659 4.3009L4.31169 6.5558L6.32548 8.57348C6.50839 8.75639 6.53333 9.04426 6.38472 9.25575C5.40472 10.6509 4.74454 12.2449 4.45095 13.9243C4.40704 14.1807 4.18439 14.3675 3.92432 14.3665H1.07212V17.559H3.92432C4.18335 17.5593 4.40445 17.7458 4.44835 18.0012C4.74168 19.6806 5.40212 21.2746 6.38186 22.6698C6.53073 22.8812 6.50579 23.1691 6.32289 23.352L4.30884 25.3697L6.56399 27.6246L8.58168 25.6106C8.76458 25.4279 9.05219 25.403 9.26368 25.5516C10.6589 26.5316 12.2528 27.1918 13.9322 27.4851C14.1876 27.529 14.3744 27.7504 14.3744 28.0094V30.8613H17.567V28.0094C17.5672 27.7504 17.7535 27.5293 18.0086 27.4851C18.8798 27.3354 19.7309 27.0855 20.5446 26.7402C20.8151 26.6254 21.1277 26.7514 21.2425 27.0221C21.3573 27.2926 21.2313 27.6049 20.9609 27.72C20.2098 28.038 19.4295 28.2824 18.6311 28.4492V31.3934C18.6311 31.6873 18.3929 31.9255 18.0991 31.9255V31.9255Z" fill="#878788"/>
<path d="M15.9707 25.0083C12.111 25.0049 8.67938 22.5505 7.42865 18.8989C6.17819 15.2472 7.38475 11.2043 10.4321 8.83537C13.4796 6.46642 17.6951 6.29442 20.9255 8.4072C24.1558 10.5197 25.6879 14.4506 24.739 18.1922C24.6975 18.3818 24.5561 18.5338 24.3698 18.5886C24.1836 18.6435 23.9822 18.5925 23.8445 18.4559C23.7068 18.319 23.6543 18.1181 23.7079 17.9316C24.586 14.4639 23.0469 10.8362 19.9435 9.05777C16.8403 7.2791 12.9322 7.78522 10.3843 10.2958C7.8363 12.806 7.27225 16.7063 9.0044 19.8357C10.7368 22.9652 14.3412 24.5578 17.8213 23.7313C18.1074 23.6638 18.3942 23.8407 18.4618 24.1268C18.5293 24.4131 18.3521 24.6996 18.0661 24.7672C17.3794 24.9285 16.6763 25.0093 15.9707 25.0083V25.0083Z" fill="#878788"/>
<path d="M28.8165 32.0002C27.97 32.0015 27.1576 31.6653 26.5595 31.0662L16.7286 21.2355L14.1855 21.4381C14.0302 21.4501 13.8774 21.3937 13.767 21.2838L9.78253 17.2996C9.65808 17.1752 9.603 16.9972 9.63574 16.8244L10.2343 13.6599C10.271 13.4664 10.4118 13.3089 10.6002 13.2507C10.7885 13.1928 10.9935 13.2434 11.133 13.3827L14.5002 16.7499L16.594 16.5859L16.7577 14.4921L13.3908 11.1252C13.2515 10.9857 13.2006 10.7807 13.2588 10.5923C13.3167 10.404 13.4742 10.2632 13.668 10.2265L16.8322 9.62793C17.0053 9.59519 17.183 9.65027 17.3074 9.77472L21.2916 13.7589C21.402 13.8691 21.4584 14.0224 21.4459 14.1777L21.2433 16.7205L31.0743 26.5515C31.9862 27.4647 32.2587 28.8373 31.7648 30.0298C31.2707 31.2221 30.1072 31.9997 28.8165 32.0002ZM16.9312 20.1531C17.0723 20.1531 17.2077 20.2092 17.3074 20.309L27.3106 30.3122C28.1535 31.1158 29.4785 31.1158 30.3213 30.3122C31.153 29.4811 31.153 28.1329 30.3213 27.3018L20.3181 17.2983C20.2077 17.1882 20.1513 17.0351 20.1638 16.8798L20.3664 14.3367L16.7545 10.7243L14.8561 11.0836L17.6847 13.9122C17.7946 14.0221 17.8509 14.1749 17.839 14.33L17.6202 17.1229C17.6 17.384 17.3924 17.5914 17.1313 17.6119L14.3393 17.8299C14.1842 17.8421 14.0317 17.7857 13.9218 17.6758L11.0925 14.8454L10.7334 16.7439L14.3458 20.3558L16.8886 20.1531C16.9029 20.1536 16.9169 20.1531 16.9312 20.1531Z" fill="#878788"/>
<path d="M28.7408 30.3293C27.8593 30.3293 27.1445 29.6145 27.1445 28.733C27.1445 27.8515 27.8593 27.1367 28.7408 27.1367C29.6226 27.1367 30.3371 27.8515 30.3371 28.733C30.3371 29.6145 29.6226 30.3293 28.7408 30.3293ZM28.7408 28.2009C28.447 28.2009 28.2087 28.4391 28.2087 28.733C28.2087 29.0268 28.447 29.2651 28.7408 29.2651C29.0347 29.2651 29.2729 29.0268 29.2729 28.733C29.2729 28.4391 29.0347 28.2009 28.7408 28.2009Z" fill="#878788"/>
</g>
<defs>
<clipPath id="clip0">
<rect width="32" height="32" fill="white"/>
</clipPath>
</defs>
</svg>
