<svg width="32" height="32" viewBox="0 0 32 32" fill="none" xmlns="http://www.w3.org/2000/svg">
<g clip-path="url(#clip0)">
<path d="M31.4667 12.7998L15.6427 14.3998L14.8587 14.3144L0.533325 12.7998L5.07199 7.80777C5.57622 7.24992 6.29336 6.93205 7.04533 6.93311H24.9547C25.7066 6.93205 26.4238 7.24992 26.928 7.80777L31.4667 12.7998Z" fill="#F1F1F1"/>
<path d="M29.8667 12.7998L14.8587 14.3144L0.533325 12.7998L5.07199 7.80778C5.57622 7.24992 6.29336 6.93205 7.04533 6.93311H23.3547C24.1066 6.93205 24.8238 7.24992 25.328 7.80778L29.8667 12.7998Z" fill="#F1F1F1"/>
<path d="M21.8666 1.06654V10.1332H10.1333V1.06654C10.1333 0.771985 10.3721 0.533203 10.6666 0.533203H21.3333C21.6279 0.533203 21.8666 0.771985 21.8666 1.06654Z" fill="#F1F1F1"/>
<path d="M20.2666 1.06654V10.1332H10.1333V1.06654C10.1333 0.771985 10.3721 0.533203 10.6666 0.533203H19.7333C20.0278 0.533203 20.2666 0.771985 20.2666 1.06654Z" fill="white"/>
<path d="M31.4667 12.8003V22.9336C31.4667 23.6409 31.1857 24.3191 30.6856 24.8192C30.1855 25.3193 29.5072 25.6003 28.8 25.6003H3.19999C2.49275 25.6003 1.81447 25.3193 1.31437 24.8192C0.814277 24.3191 0.533325 23.6409 0.533325 22.9336V12.8003H31.4667Z" fill="#F1F1F1"/>
<path d="M29.8667 12.8003V22.9336C29.8667 23.6409 29.5857 24.3191 29.0856 24.8192C28.5855 25.3193 27.9072 25.6003 27.2 25.6003H3.19999C2.49275 25.6003 1.81447 25.3193 1.31437 24.8192C0.814277 24.3191 0.533325 23.6409 0.533325 22.9336V12.8003H29.8667Z" fill="#F1F1F1"/>
<path d="M24.5333 20.7999V25.5999H7.46667V20.7999C7.46667 18.4435 9.37693 16.5332 11.7333 16.5332H20.2667C22.6231 16.5332 24.5333 18.4435 24.5333 20.7999Z" fill="#F1F1F1"/>
<path d="M22.9333 20.7999V25.5999H7.46667V20.7999C7.46667 18.4435 9.37693 16.5332 11.7333 16.5332H18.6667C21.0231 16.5332 22.9333 18.4435 22.9333 20.7999Z" fill="#F1F1F1"/>
<path d="M28.2666 17.6001C28.8557 17.6001 29.3333 17.1226 29.3333 16.5335C29.3333 15.9444 28.8557 15.4668 28.2666 15.4668C27.6775 15.4668 27.2 15.9444 27.2 16.5335C27.2 17.1226 27.6775 17.6001 28.2666 17.6001Z" fill="#F1F1F1"/>
<path d="M22.4 22.4002V24.5335H9.59998V22.4002C9.60173 21.8118 10.0783 21.3353 10.6666 21.3335H21.3333C21.9217 21.3353 22.3982 21.8118 22.4 22.4002Z" fill="#F1F1F1"/>
<path d="M20.8 22.4002V24.5335H9.59998V22.4002C9.60173 21.8118 10.0783 21.3353 10.6666 21.3335H19.7333C20.3217 21.3353 20.7982 21.8118 20.8 22.4002Z" fill="#F1F1F1"/>
<path d="M26.1333 29.8668H5.86659C5.66458 29.8668 5.4799 29.7527 5.38956 29.572C5.29922 29.3913 5.31871 29.1751 5.43992 29.0135L7.99992 25.6001L9.59992 23.4668H22.3999L23.9999 25.6001L26.5599 29.0135C26.6811 29.1751 26.7006 29.3913 26.6103 29.572C26.5199 29.7527 26.3353 29.8668 26.1333 29.8668Z" fill="#F1F1F1"/>
<path d="M24.5333 29.8668H5.86659C5.66458 29.8668 5.4799 29.7527 5.38956 29.572C5.29922 29.3913 5.31871 29.1751 5.43992 29.0135L7.99992 25.6001L9.59992 23.4668H20.7999L22.3999 25.6001L24.9599 29.0135C25.0811 29.1751 25.1006 29.3913 25.0103 29.572C24.9199 29.7527 24.7353 29.8668 24.5333 29.8668Z" fill="#F1F1F1"/>
<path d="M22.1066 31.4668H9.89331C9.71257 31.4664 9.54432 31.3745 9.44631 31.2226C9.3483 31.0708 9.33387 30.8796 9.40797 30.7148L11.5893 25.9148C11.6762 25.7245 11.8655 25.6017 12.0746 25.6001H19.9253C20.1345 25.6017 20.3238 25.7245 20.4106 25.9148L22.592 30.7148C22.6661 30.8796 22.6517 31.0708 22.5536 31.2226C22.4556 31.3745 22.2874 31.4664 22.1066 31.4668Z" fill="#F1F1F1"/>
<path d="M20.7466 31.4668H9.89331C9.71257 31.4664 9.54432 31.3745 9.44631 31.2226C9.3483 31.0708 9.33387 30.8796 9.40797 30.7148L11.5893 25.9148C11.6762 25.7245 11.8655 25.6017 12.0746 25.6001H18.56C18.77 25.5988 18.9608 25.7224 19.0453 25.9148L21.232 30.7148C21.3061 30.8796 21.2917 31.0708 21.1936 31.2226C21.0956 31.3745 20.9274 31.4664 20.7466 31.4668Z" fill="white"/>
<path d="M2.99992 25.6227H4.59992C3.12716 25.6227 1.93325 24.4288 1.93325 22.9561V12.8227L6.47192 7.83073C6.97615 7.27287 7.69329 6.955 8.44525 6.95606L6.84525 6.95606C6.09329 6.955 5.37615 7.27287 4.87192 7.83073L0.333252 12.8227V22.9561C0.333252 24.4288 1.52716 25.6227 2.99992 25.6227Z" fill="white"/>
<path d="M20.2666 26.1336H11.7333C11.4387 26.1336 11.2 25.8948 11.2 25.6002C11.2 25.3057 11.4387 25.0669 11.7333 25.0669H20.2666C20.5612 25.0669 20.8 25.3057 20.8 25.6002C20.8 25.8948 20.5612 26.1336 20.2666 26.1336Z" fill="#949495"/>
<path d="M20.2666 26.1336H11.7333C11.4387 26.1336 11.2 25.8948 11.2 25.6002C11.2 25.3057 11.4387 25.0669 11.7333 25.0669H20.2666C20.5612 25.0669 20.8 25.3057 20.8 25.6002C20.8 25.8948 20.5612 26.1336 20.2666 26.1336Z" fill="#949495"/>
<path d="M20.2666 26.1336H11.7333C11.4387 26.1336 11.2 25.8948 11.2 25.6002C11.2 25.3057 11.4387 25.0669 11.7333 25.0669H20.2666C20.5612 25.0669 20.8 25.3057 20.8 25.6002C20.8 25.8948 20.5612 26.1336 20.2666 26.1336Z" fill="#949495"/>
<path d="M0 22.9336V16.0003V12.8003H1.06667V16.0003V22.9336H0Z" fill="white"/>
<path d="M0.533333 20.2666C0.238781 20.2666 0 20.5054 0 20.7999V22.9333H1.06667V20.7999C1.06667 20.5054 0.827885 20.2666 0.533333 20.2666Z" fill="#949495"/>
<path d="M1.06667 12.8003H0V16.5336C0 16.8282 0.238781 17.067 0.533333 17.067C0.827885 17.067 1.06667 16.8282 1.06667 16.5336V12.8003Z" fill="#949495"/>
<path d="M0 18.6666C0.00206954 18.8078 0.0572986 18.943 0.154667 19.0453L0.234667 19.1093C0.264388 19.1295 0.296673 19.1456 0.330667 19.1573C0.360887 19.1727 0.393247 19.1835 0.426667 19.1893C0.461944 19.1952 0.497579 19.1988 0.533333 19.2C0.674521 19.1979 0.809737 19.1427 0.912 19.0453C0.960212 18.9943 0.998228 18.9346 1.024 18.8693C1.10447 18.6704 1.06061 18.4428 0.912 18.288C0.86101 18.2398 0.80127 18.2017 0.736 18.176C0.671881 18.1486 0.603028 18.1341 0.533333 18.1333C0.392146 18.1354 0.25693 18.1906 0.154667 18.288C0.0572986 18.3902 0.00206954 18.5254 0 18.6666H0Z" fill="#949495"/>
<path d="M8 26.1332H3.2C1.43342 26.1315 0.00176394 24.6998 0 22.9332C0 22.6387 0.238781 22.3999 0.533333 22.3999C0.827885 22.3999 1.06667 22.6387 1.06667 22.9332C1.06667 24.1114 2.02179 25.0666 3.2 25.0666H8C8.29455 25.0666 8.53333 25.3054 8.53333 25.5999C8.53333 25.8945 8.29455 26.1332 8 26.1332Z" fill="#949495"/>
<path d="M28.8 26.1333H24C23.7054 26.1333 23.4667 25.8945 23.4667 25.5999C23.4667 25.3054 23.7054 25.0666 24 25.0666H28.8C29.9782 25.0666 30.9333 24.1115 30.9333 22.9333V13.3333H0.533333C0.238781 13.3333 0 13.0945 0 12.7999C0 12.5054 0.238781 12.2666 0.533333 12.2666H31.4667C31.7612 12.2666 32 12.5054 32 12.7999V22.9333C31.9982 24.6998 30.5666 26.1315 28.8 26.1333Z" fill="#949495"/>
<path d="M31.4666 13.3332H0.53329C0.32211 13.3333 0.130775 13.2088 0.0453495 13.0156C-0.0400759 12.8225 -0.00350053 12.5972 0.138624 12.441L4.67836 7.44737C5.28538 6.78091 6.14489 6.40072 7.04636 6.3999H10.1333C10.4278 6.3999 10.6666 6.63868 10.6666 6.93324C10.6666 7.22779 10.4278 7.46657 10.1333 7.46657H7.04636C6.44528 7.46703 5.87221 7.72065 5.46769 8.16524L1.73916 12.2666H30.2608L26.5322 8.16524C26.1277 7.72065 25.5546 7.46703 24.9536 7.46657H21.8666C21.5721 7.46657 21.3333 7.22779 21.3333 6.93324C21.3333 6.63868 21.5721 6.3999 21.8666 6.3999H24.9536C25.855 6.40072 26.7145 6.78091 27.3216 7.44737L31.8613 12.441C32.0034 12.5972 32.04 12.8225 31.9546 13.0156C31.8691 13.2088 31.6778 13.3333 31.4666 13.3332Z" fill="#949495"/>
<path d="M24.5334 26.1333H24C23.7055 26.1333 23.4667 25.8945 23.4667 25.6C23.4667 25.3054 23.7055 25.0667 24 25.0667V20.8C23.9977 18.7391 22.3276 17.069 20.2667 17.0667H11.7334C9.67246 17.069 8.00237 18.7391 8.00002 20.8V25.0667C8.29457 25.0667 8.53335 25.3054 8.53335 25.6C8.53335 25.8945 8.29457 26.1333 8.00002 26.1333H7.46668C7.17213 26.1333 6.93335 25.8945 6.93335 25.6V20.8C6.93658 18.1504 9.08372 16.0032 11.7334 16H20.2667C22.9163 16.0032 25.0635 18.1504 25.0667 20.8V25.6C25.0667 25.8945 24.8279 26.1333 24.5334 26.1333Z" fill="#949495"/>
<path d="M20.2666 26.1336H11.7333C11.4387 26.1336 11.2 25.8948 11.2 25.6002C11.2 25.3057 11.4387 25.0669 11.7333 25.0669H20.2666C20.5612 25.0669 20.8 25.3057 20.8 25.6002C20.8 25.8948 20.5612 26.1336 20.2666 26.1336Z" fill="#949495"/>
<path d="M28.2666 18.1331C27.383 18.1331 26.6666 17.4168 26.6666 16.5331C26.6666 15.6494 27.383 14.9331 28.2666 14.9331C29.1503 14.9331 29.8666 15.6494 29.8666 16.5331C29.8666 17.4168 29.1503 18.1331 28.2666 18.1331ZM28.2666 15.9998C27.9721 15.9998 27.7333 16.2386 27.7333 16.5331C27.7333 16.8277 27.9721 17.0664 28.2666 17.0664C28.5612 17.0664 28.8 16.8277 28.8 16.5331C28.8 16.2386 28.5612 15.9998 28.2666 15.9998Z" fill="#949495"/>
<path d="M26.1334 30.3998H22.2081C21.9135 30.3998 21.6747 30.161 21.6747 29.8664C21.6747 29.5719 21.9135 29.3331 22.2081 29.3331H26.1334L22.1334 23.9998H9.86672L5.86672 29.3331H9.79206C10.0866 29.3331 10.3254 29.5719 10.3254 29.8664C10.3254 30.161 10.0866 30.3998 9.79206 30.3998H5.86672C5.4627 30.3998 5.09335 30.1715 4.91267 29.8101C4.73198 29.4488 4.77097 29.0163 5.01339 28.6931L9.17339 23.1464C9.27411 23.0121 9.43218 22.9331 9.60006 22.9331H22.4001C22.5679 22.9331 22.726 23.0121 22.8267 23.1464L26.9867 28.6931C27.2291 29.0163 27.2681 29.4488 27.0874 29.8101C26.9068 30.1715 26.5374 30.3998 26.1334 30.3998Z" fill="#949495"/>
<path d="M22.4 24.0003H9.59998C9.30543 24.0003 9.06665 23.7615 9.06665 23.467V22.4003C9.06665 21.5166 9.78299 20.8003 10.6667 20.8003H21.3333C22.217 20.8003 22.9333 21.5166 22.9333 22.4003V23.467C22.9333 23.7615 22.6945 24.0003 22.4 24.0003ZM10.1333 22.9336H21.8666V22.4003C21.8666 22.1057 21.6279 21.867 21.3333 21.867H10.6667C10.3721 21.867 10.1333 22.1057 10.1333 22.4003V22.9336Z" fill="#949495"/>
<path d="M22.1051 32.0002H9.89491C9.53231 32.0002 9.19454 31.816 8.99819 31.5112C8.80183 31.2064 8.77378 30.8226 8.92371 30.4925L11.248 25.3794C11.3345 25.1891 11.5243 25.067 11.7333 25.0669H20.2667C20.4757 25.067 20.6654 25.1891 20.752 25.3794L23.0763 30.4925C23.2262 30.8226 23.1981 31.2064 23.0018 31.5112C22.8054 31.816 22.4677 32.0002 22.1051 32.0002ZM12.0784 26.1336L9.89651 30.9336H22.1099L19.9259 26.1336H12.0784Z" fill="#949495"/>
<path d="M21.8666 10.6667H10.1333C9.83876 10.6667 9.59998 10.4279 9.59998 10.1333V1.06667C9.59998 0.477563 10.0775 0 10.6666 0H21.3333C21.9224 0 22.4 0.477563 22.4 1.06667V10.1333C22.4 10.4279 22.1612 10.6667 21.8666 10.6667ZM10.6666 9.6H21.3333V1.06667H10.6666V9.6Z" fill="#949495"/>
<path d="M22.9333 10.6668H9.06666C8.77211 10.6668 8.53333 10.428 8.53333 10.1334C8.53333 9.83888 8.77211 9.6001 9.06666 9.6001H22.9333C23.2279 9.6001 23.4667 9.83888 23.4667 10.1334C23.4667 10.428 23.2279 10.6668 22.9333 10.6668Z" fill="#949495"/>
<path d="M18.1333 28.2664H13.8666C13.572 28.2664 13.3333 28.0276 13.3333 27.733C13.3333 27.4385 13.572 27.1997 13.8666 27.1997H18.1333C18.4278 27.1997 18.6666 27.4385 18.6666 27.733C18.6666 28.0276 18.4278 28.2664 18.1333 28.2664Z" fill="#949495"/>
<path d="M19.1999 29.867H12.7999C12.5054 29.867 12.2666 29.6282 12.2666 29.3336C12.2666 29.0391 12.5054 28.8003 12.7999 28.8003H19.1999C19.4945 28.8003 19.7333 29.0391 19.7333 29.3336C19.7333 29.6282 19.4945 29.867 19.1999 29.867Z" fill="#949495"/>
<path d="M2.66663 15.9999C2.37208 15.9999 2.1333 15.7611 2.1333 15.4666V14.9332C2.1333 14.6387 2.37208 14.3999 2.66663 14.3999C2.96119 14.3999 3.19997 14.6387 3.19997 14.9332V15.4666C3.19997 15.7611 2.96119 15.9999 2.66663 15.9999Z" fill="#949495"/>
<path d="M2.66663 21.3336C2.37208 21.3336 2.1333 21.0948 2.1333 20.8002V17.6002C2.1333 17.3057 2.37208 17.0669 2.66663 17.0669C2.96119 17.0669 3.19997 17.3057 3.19997 17.6002V20.8002C3.19997 21.0948 2.96119 21.3336 2.66663 21.3336Z" fill="#949495"/>
<path d="M28.2666 20.2664C28.5612 20.2664 28.7999 20.0276 28.7999 19.733C28.7999 19.4385 28.5612 19.1997 28.2666 19.1997C27.9721 19.1997 27.7333 19.4385 27.7333 19.733C27.7333 20.0276 27.9721 20.2664 28.2666 20.2664Z" fill="#949495"/>
<path d="M28.2666 21.867C28.5612 21.867 28.7999 21.6282 28.7999 21.3336C28.7999 21.0391 28.5612 20.8003 28.2666 20.8003C27.9721 20.8003 27.7333 21.0391 27.7333 21.3336C27.7333 21.6282 27.9721 21.867 28.2666 21.867Z" fill="#949495"/>
<path d="M28.2666 23.4666C28.5612 23.4666 28.7999 23.2278 28.7999 22.9332C28.7999 22.6387 28.5612 22.3999 28.2666 22.3999C27.9721 22.3999 27.7333 22.6387 27.7333 22.9332C27.7333 23.2278 27.9721 23.4666 28.2666 23.4666Z" fill="#949495"/>
</g>
<defs>
<clipPath id="clip0">
<rect width="32" height="32" fill="white"/>
</clipPath>
</defs>
</svg>
