<svg width="32" height="32" viewBox="0 0 32 32" fill="none" xmlns="http://www.w3.org/2000/svg">
<g clip-path="url(#clip0)">
<path d="M31.4669 12.8003L15.6429 14.4003L14.8589 14.3149L0.533569 12.8003L5.07224 7.80826C5.57647 7.25041 6.29361 6.93254 7.04557 6.9336H24.9549C25.7069 6.93254 26.424 7.25041 26.9282 7.80826L31.4669 12.8003Z" fill="#CAD9FC"/>
<path d="M29.8669 12.8003L14.8589 14.3149L0.533569 12.8003L5.07224 7.80826C5.57647 7.25041 6.29361 6.93254 7.04557 6.9336H23.3549C24.1069 6.93254 24.824 7.25041 25.3282 7.80826L29.8669 12.8003Z" fill="#E8EDFC"/>
<path d="M21.8669 1.06702V10.1337H10.1335V1.06702C10.1335 0.772473 10.3723 0.533691 10.6669 0.533691H21.3335C21.6281 0.533691 21.8669 0.772473 21.8669 1.06702Z" fill="#E8EDFC"/>
<path d="M20.2669 1.06702V10.1337H10.1335V1.06702C10.1335 0.772473 10.3723 0.533691 10.6669 0.533691H19.7335C20.0281 0.533691 20.2669 0.772473 20.2669 1.06702Z" fill="white"/>
<path d="M31.4669 12.8003V22.9336C31.4669 23.6409 31.186 24.3191 30.6859 24.8192C30.1858 25.3193 29.5075 25.6003 28.8002 25.6003H3.20024C2.49299 25.6003 1.81472 25.3193 1.31462 24.8192C0.814521 24.3191 0.533569 23.6409 0.533569 22.9336V12.8003H31.4669Z" fill="#CAD9FC"/>
<path d="M29.8669 12.8003V22.9336C29.8669 23.6409 29.586 24.3191 29.0859 24.8192C28.5858 25.3193 27.9075 25.6003 27.2002 25.6003H3.20024C2.49299 25.6003 1.81472 25.3193 1.31462 24.8192C0.814521 24.3191 0.533569 23.6409 0.533569 22.9336V12.8003H29.8669Z" fill="#E8EDFC"/>
<path d="M24.5336 20.7999V25.5999H7.46692V20.7999C7.46692 18.4435 9.37717 16.5332 11.7336 16.5332H20.2669C22.6233 16.5332 24.5336 18.4435 24.5336 20.7999Z" fill="#7FACFA"/>
<path d="M22.9336 20.7999V25.5999H7.46692V20.7999C7.46692 18.4435 9.37717 16.5332 11.7336 16.5332H18.6669C21.0233 16.5332 22.9336 18.4435 22.9336 20.7999Z" fill="#CAD9FC"/>
<path d="M28.2669 17.6001C28.856 17.6001 29.3335 17.1226 29.3335 16.5335C29.3335 15.9444 28.856 15.4668 28.2669 15.4668C27.6778 15.4668 27.2002 15.9444 27.2002 16.5335C27.2002 17.1226 27.6778 17.6001 28.2669 17.6001Z" fill="#A4C2F7"/>
<path d="M22.4001 22.3997V24.533H9.6001V22.3997C9.60185 21.8113 10.0784 21.3348 10.6668 21.333H21.3334C21.9218 21.3348 22.3983 21.8113 22.4001 22.3997Z" fill="#CAD9FC"/>
<path d="M20.8001 22.3997V24.533H9.6001V22.3997C9.60185 21.8113 10.0784 21.3348 10.6668 21.333H19.7334C20.3218 21.3348 20.7983 21.8113 20.8001 22.3997Z" fill="#E8EDFC"/>
<path d="M26.1335 29.8668H5.86683C5.66482 29.8668 5.48015 29.7526 5.3898 29.572C5.29946 29.3913 5.31896 29.1751 5.44017 29.0135L8.00017 25.6001L9.60017 23.4668H22.4002L24.0002 25.6001L26.5602 29.0135C26.6814 29.1751 26.7009 29.3913 26.6105 29.572C26.5202 29.7526 26.3355 29.8668 26.1335 29.8668Z" fill="#CAD9FC"/>
<path d="M24.5335 29.8668H5.86683C5.66482 29.8668 5.48015 29.7526 5.3898 29.572C5.29946 29.3913 5.31896 29.1751 5.44017 29.0135L8.00017 25.6001L9.60017 23.4668H20.8002L22.4002 25.6001L24.9602 29.0135C25.0814 29.1751 25.1009 29.3913 25.0105 29.572C24.9202 29.7526 24.7355 29.8668 24.5335 29.8668Z" fill="#E8EDFC"/>
<path d="M22.1069 31.4668H9.89355C9.71281 31.4664 9.54456 31.3745 9.44655 31.2226C9.34854 31.0708 9.33411 30.8796 9.40822 30.7148L11.5896 25.9148C11.6764 25.7245 11.8657 25.6017 12.0749 25.6001H19.9256C20.1348 25.6017 20.324 25.7245 20.4109 25.9148L22.5922 30.7148C22.6663 30.8796 22.6519 31.0708 22.5539 31.2226C22.4559 31.3745 22.2876 31.4664 22.1069 31.4668Z" fill="#E8EDFC"/>
<path d="M20.7469 31.4668H9.89355C9.71281 31.4664 9.54456 31.3745 9.44655 31.2226C9.34854 31.0708 9.33411 30.8796 9.40822 30.7148L11.5896 25.9148C11.6764 25.7245 11.8657 25.6017 12.0749 25.6001H18.5602C18.7703 25.5988 18.9611 25.7224 19.0456 25.9148L21.2322 30.7148C21.3063 30.8796 21.2919 31.0708 21.1939 31.2226C21.0959 31.3745 20.9276 31.4664 20.7469 31.4668Z" fill="white"/>
<path d="M3.00016 25.6227H4.60016C3.1274 25.6227 1.9335 24.4288 1.9335 22.9561V12.8227L6.47216 7.83073C6.97639 7.27287 7.69353 6.955 8.4455 6.95606L6.8455 6.95606C6.09353 6.955 5.37639 7.27287 4.87216 7.83073L0.333496 12.8227V22.9561C0.333496 24.4288 1.5274 25.6227 3.00016 25.6227Z" fill="white"/>
<path d="M20.2669 26.1331H11.7335C11.439 26.1331 11.2002 25.8943 11.2002 25.5997C11.2002 25.3052 11.439 25.0664 11.7335 25.0664H20.2669C20.5614 25.0664 20.8002 25.3052 20.8002 25.5997C20.8002 25.8943 20.5614 26.1331 20.2669 26.1331Z" fill="#428DFF"/>
<path d="M20.2669 26.1331H11.7335C11.439 26.1331 11.2002 25.8943 11.2002 25.5997C11.2002 25.3052 11.439 25.0664 11.7335 25.0664H20.2669C20.5614 25.0664 20.8002 25.3052 20.8002 25.5997C20.8002 25.8943 20.5614 26.1331 20.2669 26.1331Z" fill="#428DFF"/>
<path d="M20.2669 26.1331H11.7335C11.439 26.1331 11.2002 25.8943 11.2002 25.5997C11.2002 25.3052 11.439 25.0664 11.7335 25.0664H20.2669C20.5614 25.0664 20.8002 25.3052 20.8002 25.5997C20.8002 25.8943 20.5614 26.1331 20.2669 26.1331Z" fill="#428DFF"/>
<path d="M0.000244141 22.9336V16.0003V12.8003H1.06691V16.0003V22.9336H0.000244141Z" fill="white"/>
<path d="M0.533578 20.2666C0.239026 20.2666 0.000244141 20.5054 0.000244141 20.7999V22.9333H1.06691V20.7999C1.06691 20.5054 0.828129 20.2666 0.533578 20.2666Z" fill="#428DFF"/>
<path d="M1.06691 12.8003H0.000244141V16.5336C0.000244141 16.8282 0.239026 17.067 0.533578 17.067C0.828129 17.067 1.06691 16.8282 1.06691 16.5336V12.8003Z" fill="#428DFF"/>
<path d="M0.000244141 18.6666C0.00231368 18.8078 0.0575428 18.943 0.154911 19.0453L0.234911 19.1093C0.264632 19.1295 0.296917 19.1456 0.330911 19.1573C0.361131 19.1727 0.393491 19.1835 0.426911 19.1893C0.462188 19.1952 0.497823 19.1988 0.533578 19.2C0.674765 19.1979 0.809981 19.1427 0.912244 19.0453C0.960456 18.9943 0.998472 18.9346 1.02424 18.8693C1.10471 18.6704 1.06086 18.4427 0.912244 18.288C0.861254 18.2398 0.801514 18.2017 0.736244 18.176C0.672126 18.1486 0.603272 18.1341 0.533578 18.1333C0.39239 18.1354 0.257174 18.1906 0.154911 18.288C0.0575428 18.3902 0.00231368 18.5254 0.000244141 18.6666H0.000244141Z" fill="#428DFF"/>
<path d="M8.00024 26.1332H3.20024C1.43366 26.1315 0.00200808 24.6998 0.000244141 22.9332C0.000244141 22.6387 0.239026 22.3999 0.533578 22.3999C0.828129 22.3999 1.06691 22.6387 1.06691 22.9332C1.06691 24.1114 2.02204 25.0666 3.20024 25.0666H8.00024C8.2948 25.0666 8.53358 25.3054 8.53358 25.5999C8.53358 25.8945 8.2948 26.1332 8.00024 26.1332Z" fill="#428DFF"/>
<path d="M28.8002 26.1333H24.0002C23.7057 26.1333 23.4669 25.8945 23.4669 25.5999C23.4669 25.3054 23.7057 25.0666 24.0002 25.0666H28.8002C29.9785 25.0666 30.9336 24.1115 30.9336 22.9333V13.3333H0.533578C0.239026 13.3333 0.000244141 13.0945 0.000244141 12.7999C0.000244141 12.5054 0.239026 12.2666 0.533578 12.2666H31.4669C31.7615 12.2666 32.0002 12.5054 32.0002 12.7999V22.9333C31.9985 24.6998 30.5668 26.1315 28.8002 26.1333Z" fill="#428DFF"/>
<path d="M31.4669 13.3332H0.533535C0.322355 13.3333 0.131019 13.2088 0.0455937 13.0156C-0.0398318 12.8225 -0.00325638 12.5972 0.138868 12.441L4.6786 7.44737C5.28563 6.78091 6.14513 6.40072 7.0466 6.3999H10.1335C10.4281 6.3999 10.6669 6.63868 10.6669 6.93324C10.6669 7.22779 10.4281 7.46657 10.1335 7.46657H7.0466C6.44553 7.46702 5.87245 7.72065 5.46793 8.16523L1.7394 12.2666H30.261L26.5325 8.16523C26.128 7.72065 25.5549 7.46702 24.9538 7.46657H21.8669C21.5723 7.46657 21.3335 7.22779 21.3335 6.93324C21.3335 6.63868 21.5723 6.3999 21.8669 6.3999H24.9538C25.8553 6.40072 26.7148 6.78091 27.3218 7.44737L31.8615 12.441C32.0037 12.5972 32.0402 12.8225 31.9548 13.0156C31.8694 13.2088 31.678 13.3333 31.4669 13.3332Z" fill="#428DFF"/>
<path d="M24.5336 26.1333H24.0003C23.7057 26.1333 23.4669 25.8945 23.4669 25.6C23.4669 25.3054 23.7057 25.0667 24.0003 25.0667V20.8C23.9979 18.7391 22.3278 17.069 20.2669 17.0667H11.7336C9.67271 17.069 8.00261 18.7391 8.00026 20.8V25.0667C8.29481 25.0667 8.53359 25.3054 8.53359 25.6C8.53359 25.8945 8.29481 26.1333 8.00026 26.1333H7.46693C7.17238 26.1333 6.93359 25.8945 6.93359 25.6V20.8C6.93683 18.1504 9.08397 16.0032 11.7336 16H20.2669C22.9166 16.0032 25.0637 18.1504 25.0669 20.8V25.6C25.0669 25.8945 24.8281 26.1333 24.5336 26.1333Z" fill="#428DFF"/>
<path d="M20.2669 26.1331H11.7335C11.439 26.1331 11.2002 25.8943 11.2002 25.5997C11.2002 25.3052 11.439 25.0664 11.7335 25.0664H20.2669C20.5614 25.0664 20.8002 25.3052 20.8002 25.5997C20.8002 25.8943 20.5614 26.1331 20.2669 26.1331Z" fill="#428DFF"/>
<path d="M28.2669 18.1331C27.3832 18.1331 26.6669 17.4168 26.6669 16.5331C26.6669 15.6494 27.3832 14.9331 28.2669 14.9331C29.1505 14.9331 29.8669 15.6494 29.8669 16.5331C29.8669 17.4168 29.1505 18.1331 28.2669 18.1331ZM28.2669 15.9998C27.9723 15.9998 27.7335 16.2386 27.7335 16.5331C27.7335 16.8277 27.9723 17.0664 28.2669 17.0664C28.5614 17.0664 28.8002 16.8277 28.8002 16.5331C28.8002 16.2386 28.5614 15.9998 28.2669 15.9998Z" fill="#428DFF"/>
<path d="M26.1335 30.3998H22.2082C21.9136 30.3998 21.6748 30.161 21.6748 29.8664C21.6748 29.5719 21.9136 29.3331 22.2082 29.3331H26.1335L22.1335 23.9998H9.86684L5.86684 29.3331H9.79218C10.0867 29.3331 10.3255 29.5719 10.3255 29.8664C10.3255 30.161 10.0867 30.3998 9.79218 30.3998H5.86684C5.46282 30.3998 5.09347 30.1715 4.91279 29.8101C4.7321 29.4488 4.7711 29.0163 5.01351 28.6931L9.17351 23.1464C9.27423 23.0121 9.43231 22.9331 9.60018 22.9331H22.4002C22.568 22.9331 22.7261 23.0121 22.8268 23.1464L26.9868 28.6931C27.2293 29.0163 27.2683 29.4488 27.0876 29.8101C26.9069 30.1715 26.5375 30.3998 26.1335 30.3998Z" fill="#428DFF"/>
<path d="M22.4001 24.0003H9.60011C9.30555 24.0003 9.06677 23.7615 9.06677 23.467V22.4003C9.06677 21.5166 9.78312 20.8003 10.6668 20.8003H21.3334C22.2171 20.8003 22.9334 21.5166 22.9334 22.4003V23.467C22.9334 23.7615 22.6946 24.0003 22.4001 24.0003ZM10.1334 22.9336H21.8668V22.4003C21.8668 22.1057 21.628 21.867 21.3334 21.867H10.6668C10.3722 21.867 10.1334 22.1057 10.1334 22.4003V22.9336Z" fill="#428DFF"/>
<path d="M22.1053 31.9997H9.89516C9.53255 31.9997 9.19479 31.8155 8.99843 31.5107C8.80207 31.2059 8.77402 30.8222 8.92396 30.492L11.2482 25.3789C11.3348 25.1886 11.5245 25.0665 11.7336 25.0664H20.2669C20.4759 25.0665 20.6657 25.1886 20.7522 25.3789L23.0765 30.492C23.2264 30.8222 23.1984 31.2059 23.002 31.5107C22.8057 31.8155 22.4679 31.9997 22.1053 31.9997ZM12.0786 26.1331L9.89676 30.9331H22.1101L19.9261 26.1331H12.0786Z" fill="#428DFF"/>
<path d="M21.8668 10.6667H10.1334C9.83888 10.6667 9.6001 10.4279 9.6001 10.1333V1.06667C9.6001 0.477563 10.0777 0 10.6668 0H21.3334C21.9225 0 22.4001 0.477563 22.4001 1.06667V10.1333C22.4001 10.4279 22.1613 10.6667 21.8668 10.6667ZM10.6668 9.6H21.3334V1.06667H10.6668V9.6Z" fill="#428DFF"/>
<path d="M22.9334 10.6668H9.06678C8.77223 10.6668 8.53345 10.428 8.53345 10.1334C8.53345 9.83888 8.77223 9.6001 9.06678 9.6001H22.9334C23.228 9.6001 23.4668 9.83888 23.4668 10.1334C23.4668 10.428 23.228 10.6668 22.9334 10.6668Z" fill="#428DFF"/>
<path d="M18.1335 28.2664H13.8668C13.5723 28.2664 13.3335 28.0276 13.3335 27.733C13.3335 27.4385 13.5723 27.1997 13.8668 27.1997H18.1335C18.428 27.1997 18.6668 27.4385 18.6668 27.733C18.6668 28.0276 18.428 28.2664 18.1335 28.2664Z" fill="#428DFF"/>
<path d="M19.2002 29.8669H12.8002C12.5056 29.8669 12.2668 29.6282 12.2668 29.3336C12.2668 29.0391 12.5056 28.8003 12.8002 28.8003H19.2002C19.4947 28.8003 19.7335 29.0391 19.7335 29.3336C19.7335 29.6282 19.4947 29.8669 19.2002 29.8669Z" fill="#428DFF"/>
<path d="M2.66688 15.9999C2.37233 15.9999 2.13354 15.7611 2.13354 15.4666V14.9332C2.13354 14.6387 2.37233 14.3999 2.66688 14.3999C2.96143 14.3999 3.20021 14.6387 3.20021 14.9332V15.4666C3.20021 15.7611 2.96143 15.9999 2.66688 15.9999Z" fill="#428DFF"/>
<path d="M2.66688 21.3331C2.37233 21.3331 2.13354 21.0943 2.13354 20.7997V17.5997C2.13354 17.3052 2.37233 17.0664 2.66688 17.0664C2.96143 17.0664 3.20021 17.3052 3.20021 17.5997V20.7997C3.20021 21.0943 2.96143 21.3331 2.66688 21.3331Z" fill="#428DFF"/>
<path d="M28.2668 20.2664C28.5614 20.2664 28.8002 20.0276 28.8002 19.733C28.8002 19.4385 28.5614 19.1997 28.2668 19.1997C27.9723 19.1997 27.7335 19.4385 27.7335 19.733C27.7335 20.0276 27.9723 20.2664 28.2668 20.2664Z" fill="#428DFF"/>
<path d="M28.2668 21.8669C28.5614 21.8669 28.8002 21.6282 28.8002 21.3336C28.8002 21.0391 28.5614 20.8003 28.2668 20.8003C27.9723 20.8003 27.7335 21.0391 27.7335 21.3336C27.7335 21.6282 27.9723 21.8669 28.2668 21.8669Z" fill="#428DFF"/>
<path d="M28.2668 23.4666C28.5614 23.4666 28.8002 23.2278 28.8002 22.9332C28.8002 22.6387 28.5614 22.3999 28.2668 22.3999C27.9723 22.3999 27.7335 22.6387 27.7335 22.9332C27.7335 23.2278 27.9723 23.4666 28.2668 23.4666Z" fill="#428DFF"/>
</g>
<defs>
<clipPath id="clip0">
<rect width="32" height="32" fill="white"/>
</clipPath>
</defs>
</svg>
