<svg width="16" height="16" viewBox="0 0 16 16" fill="none" xmlns="http://www.w3.org/2000/svg">
<g clip-path="url(#clip0)">
<path d="M2.43481 7.30452L8.00003 0.347994L13.5652 7.30452L10.087 7.30452L10.087 15.3045C10.087 15.4958 9.93046 15.6523 9.73916 15.6523L6.2609 15.6523C6.06959 15.6523 5.91307 15.4958 5.91307 15.3045L5.91307 7.30452L2.43481 7.30452Z" fill="#CCE4FF"/>
<path d="M8.27171 0.130434C8.20562 0.0479992 8.1058 -8.05713e-07 8.00006 -8.14957e-07C7.89432 -8.24201e-07 7.79449 0.0479992 7.72841 0.130434L2.16319 7.08696C2.07971 7.1913 2.06336 7.33426 2.1211 7.45496C2.17919 7.57565 2.30127 7.65217 2.43484 7.65217L5.56527 7.65217L5.56527 15.3043C5.56527 15.688 5.87727 16 6.26093 16L9.73919 16C10.1228 16 10.4348 15.688 10.4348 15.3043L10.4348 7.65217L13.5653 7.65217C13.6988 7.65217 13.8209 7.57565 13.8787 7.45496C13.9368 7.33461 13.9204 7.1913 13.8366 7.08696L8.27171 0.130434ZM10.087 6.95652C9.89501 6.95652 9.73919 7.11235 9.73919 7.30435L9.73919 15.3043L6.26093 15.3033L6.26093 7.30435C6.26093 7.11235 6.1051 6.95652 5.9131 6.95652L3.15867 6.95652L8.00006 0.904695L12.8414 6.95652L10.087 6.95652Z" fill="#007AFF"/>
</g>
<defs>
<clipPath id="clip0">
<rect x="16" y="16" width="16" height="16" transform="rotate(-180 16 16)" fill="white"/>
</clipPath>
</defs>
</svg>
