<svg width="16" height="16" viewBox="0 0 16 16" fill="none" xmlns="http://www.w3.org/2000/svg">
<path d="M13.5652 8.69548L7.99997 15.652L2.43475 8.69548H5.91301V0.695482C5.91301 0.504178 6.06954 0.347656 6.26084 0.347656H9.7391C9.93041 0.347656 10.0869 0.504178 10.0869 0.695482V8.69548H13.5652Z" fill="#CCE4FF"/>
<path d="M7.72829 15.8696C7.79438 15.952 7.8942 16 7.99994 16C8.10568 16 8.20551 15.952 8.2716 15.8696L13.8368 8.91304C13.9203 8.8087 13.9366 8.66574 13.8789 8.54504C13.8208 8.42435 13.6987 8.34783 13.5652 8.34783H10.4347V0.695652C10.4347 0.312 10.1227 0 9.73907 0H6.26081C5.87716 0 5.56516 0.312 5.56516 0.695652V8.34783H2.43473C2.30116 8.34783 2.17908 8.42435 2.12134 8.54504C2.06325 8.66539 2.0796 8.8087 2.16342 8.91304L7.72829 15.8696ZM5.91299 9.04348C6.10499 9.04348 6.26081 8.88765 6.26081 8.69565V0.695652L9.73907 0.696696V8.69565C9.73907 8.88765 9.8949 9.04348 10.0869 9.04348H12.8413L7.99994 15.0953L3.15855 9.04348H5.91299Z" fill="#007AFF"/>
</svg>
