<svg width="25" height="23" viewBox="0 0 25 23" fill="none" xmlns="http://www.w3.org/2000/svg">
<g clip-path="url(#clip0)">
<path d="M18.1383 2.4501V4.14651C18.1383 4.45884 17.8697 4.71198 17.5385 4.71198H16.5384V4.67799C16.7775 4.59826 16.9377 4.3855 16.9384 4.14651V2.4501C16.9384 1.40923 16.0429 0.56543 14.9384 0.56543H16.1385C17.243 0.56543 18.1383 1.40923 18.1383 2.4501V2.4501Z" fill="#F0F0F0"/>
<path d="M16.9385 2.4501V4.14651C16.9378 4.3855 16.7775 4.59826 16.5384 4.67799V2.6387C16.5384 2.32638 16.2698 2.07323 15.9384 2.07323H10.3385C10.007 2.07323 9.73842 2.32638 9.73842 2.6387V4.71198H8.73848C8.67018 4.71233 8.60225 4.70076 8.53853 4.67799C8.29921 4.59826 8.13918 4.3855 8.13844 4.14651V2.4501C8.13844 1.40923 9.03383 0.56543 10.1385 0.56543H14.9384C16.0429 0.56543 16.9385 1.40923 16.9385 2.4501V2.4501Z" fill="#F0F0F0"/>
<path d="M21.3385 5.27734V20.3557C21.3385 21.3966 20.443 22.2404 19.3385 22.2404H6.53848C5.4338 22.2404 4.53841 21.3966 4.53841 20.3557V5.27734H21.3385Z" fill="#F0F0F0"/>
<path d="M20.1385 5.27734V20.3557C20.1385 20.8556 19.9277 21.335 19.5527 21.6884C19.1775 22.042 18.6688 22.2404 18.1384 22.2404H6.53848C5.4338 22.2404 4.53841 21.3966 4.53841 20.3557V5.27734H20.1385Z" fill="#FAFAFA"/>
<path d="M6.7384 6.78516H19.1385C19.4697 6.78516 19.7383 7.0383 19.7383 7.35045V20.1671C19.7383 20.4793 19.4697 20.7324 19.1385 20.7324H6.7384C6.40698 20.7324 6.13837 20.4793 6.13837 20.1671V7.35045C6.13837 7.0383 6.40698 6.78516 6.7384 6.78516Z" fill="#F1F1F1"/>
<path d="M6.7384 6.78516H17.9384C18.2698 6.78516 18.5385 7.0383 18.5385 7.35045V20.1671C18.5385 20.4793 18.2698 20.7324 17.9384 20.7324H6.7384C6.40698 20.7324 6.13837 20.4793 6.13837 20.1671V7.35045C6.13837 7.0383 6.40698 6.78516 6.7384 6.78516V6.78516Z" fill="#EAEAEA"/>
<path d="M8.33836 8.29297H9.53843C9.86985 8.29297 10.1385 8.54611 10.1385 8.85844V18.6592C10.1385 18.9715 9.86985 19.2246 9.53843 19.2246H8.33836C8.00712 19.2246 7.73832 18.9715 7.73832 18.6592V8.85844C7.73832 8.54611 8.00712 8.29297 8.33836 8.29297V8.29297Z" fill="#F1F1F1"/>
<path d="M8.93839 8.85844V18.6592C8.93839 18.9715 8.66978 19.2246 8.33836 19.2246C8.00712 19.2246 7.73832 18.9715 7.73832 18.6592V8.85844C7.73832 8.54611 8.00712 8.29297 8.33836 8.29297C8.66978 8.29297 8.93839 8.54611 8.93839 8.85844V8.85844Z" fill="#F1F1F1"/>
<path d="M12.3385 8.29297H13.5384C13.8698 8.29297 14.1384 8.54611 14.1384 8.85844V18.6592C14.1384 18.9715 13.8698 19.2246 13.5384 19.2246H12.3385C12.0071 19.2246 11.7385 18.9715 11.7385 18.6592V8.85844C11.7385 8.54611 12.0071 8.29297 12.3385 8.29297V8.29297Z" fill="#F1F1F1"/>
<path d="M12.9384 8.85844V18.6592C12.9384 18.9715 12.6698 19.2246 12.3385 19.2246C12.0071 19.2246 11.7385 18.9715 11.7385 18.6592V8.85844C11.7385 8.54611 12.0071 8.29297 12.3385 8.29297C12.6698 8.29297 12.9384 8.54611 12.9384 8.85844V8.85844Z" fill="#F1F1F1"/>
<path d="M16.3384 8.29297H17.5385C17.8697 8.29297 18.1384 8.54611 18.1384 8.85844V18.6592C18.1384 18.9715 17.8697 19.2246 17.5385 19.2246H16.3384C16.007 19.2246 15.7384 18.9715 15.7384 18.6592V8.85844C15.7384 8.54611 16.007 8.29297 16.3384 8.29297V8.29297Z" fill="#F1F1F1"/>
<path d="M16.9385 8.85844V18.6592C16.9385 18.9715 16.6699 19.2246 16.3384 19.2246C16.007 19.2246 15.7384 18.9715 15.7384 18.6592V8.85844C15.7384 8.54611 16.007 8.29297 16.3384 8.29297C16.6699 8.29297 16.9385 8.54611 16.9385 8.85844V8.85844Z" fill="#F1F1F1"/>
<path d="M3.13837 3.76953H22.7383C23.0698 3.76953 23.3384 4.02267 23.3384 4.335V4.71204C23.3384 5.02419 23.0698 5.27734 22.7383 5.27734H3.13837C2.80714 5.27734 2.53852 5.02419 2.53852 4.71204V4.335C2.53852 4.02267 2.80714 3.76953 3.13837 3.76953V3.76953Z" fill="#F1F1F1"/>
<path d="M3.13837 3.76953H21.1384C21.4698 3.76953 21.7384 4.02267 21.7384 4.335V4.71204C21.7384 5.02419 21.4698 5.27734 21.1384 5.27734H3.13837C2.80714 5.27734 2.53852 5.02419 2.53852 4.71204V4.335C2.53852 4.02267 2.80714 3.76953 3.13837 3.76953V3.76953Z" fill="#F1F1F1"/>
<path d="M9.33852 2.4501C9.33852 1.40923 10.2339 0.56543 11.3384 0.56543H10.1385C9.03383 0.56543 8.13844 1.40923 8.13844 2.4501V3.76947H9.33852V2.4501Z" fill="white"/>
<path d="M6.53848 22.2404H7.73837C6.63387 22.2404 5.73849 21.3966 5.73849 20.3557V5.27734H4.53841V20.3557C4.53841 21.3966 5.4338 22.2404 6.53848 22.2404Z" fill="white"/>
<path d="M4.33845 3.76953H3.13837C2.80714 3.76953 2.53852 4.02267 2.53852 4.335V4.71204C2.53852 5.02419 2.80714 5.27734 3.13837 5.27734H4.33845C4.00703 5.27734 3.73841 5.02419 3.73841 4.71204V4.335C3.73841 4.02267 4.00703 3.76953 4.33845 3.76953Z" fill="white"/>
<path d="M4.93846 5.27734V20.3557H4.13847V5.27734H4.93846Z" fill="white"/>
<path d="M19.1385 21.1096C19.4037 21.1096 19.658 21.0102 19.8455 20.8335C20.0332 20.6568 20.1385 20.4171 20.1385 20.1672V7.35054C20.1385 7.10068 20.0332 6.86099 19.8455 6.68429C19.658 6.50742 19.4037 6.4082 19.1385 6.4082H6.73843C6.18619 6.4082 5.73849 6.83011 5.73849 7.35054V20.1672C5.73849 20.6877 6.18619 21.1096 6.73843 21.1096H19.1385ZM6.53848 20.1672V7.35054C6.53848 7.24649 6.62802 7.16211 6.73843 7.16211H19.1385C19.2489 7.16211 19.3385 7.24649 19.3385 7.35054V20.1672C19.3385 20.2713 19.2489 20.3557 19.1385 20.3557H6.73843C6.62802 20.3557 6.53848 20.2713 6.53848 20.1672Z" fill="#878788"/>
<path d="M8.33838 19.6018H9.53845C9.80359 19.6018 10.0579 19.5024 10.2456 19.3257C10.4331 19.149 10.5384 18.9093 10.5384 18.6593V8.85852C10.5384 8.60849 10.4331 8.36881 10.2456 8.19211C10.0579 8.01541 9.80359 7.91602 9.53845 7.91602H8.33838C7.78613 7.91602 7.33844 8.33792 7.33844 8.85852V18.6593C7.33844 19.1799 7.78613 19.6018 8.33838 19.6018ZM8.13843 8.85852C8.13843 8.7543 8.22797 8.66992 8.33838 8.66992H9.53845C9.64886 8.66992 9.7384 8.7543 9.7384 8.85852V18.6593C9.7384 18.7635 9.64886 18.8479 9.53845 18.8479H8.33838C8.22797 18.8479 8.13843 18.7635 8.13843 18.6593V8.85852Z" fill="#878788"/>
<path d="M12.3385 19.6018H13.5384C14.0907 19.6018 14.5386 19.1799 14.5386 18.6593V8.85852C14.5386 8.33792 14.0907 7.91602 13.5384 7.91602H12.3385C11.7861 7.91602 11.3384 8.33792 11.3384 8.85852V18.6593C11.3384 19.1799 11.7861 19.6018 12.3385 19.6018V19.6018ZM12.1384 8.85852C12.1384 8.7543 12.2279 8.66992 12.3385 8.66992H13.5384C13.6488 8.66992 13.7384 8.7543 13.7384 8.85852V18.6593C13.7384 18.7635 13.6488 18.8479 13.5384 18.8479H12.3385C12.2279 18.8479 12.1384 18.7635 12.1384 18.6593V8.85852Z" fill="#878788"/>
<path d="M16.3385 19.6018H17.5385C18.0908 19.6018 18.5385 19.1799 18.5385 18.6593V8.85852C18.5385 8.33792 18.0908 7.91602 17.5385 7.91602H16.3385C15.7862 7.91602 15.3385 8.33792 15.3385 8.85852V18.6593C15.3385 19.1799 15.7862 19.6018 16.3385 19.6018ZM16.1385 8.85852C16.1385 8.7543 16.228 8.66992 16.3385 8.66992H17.5385C17.6489 8.66992 17.7385 8.7543 17.7385 8.85852V18.6593C17.7385 18.7635 17.6489 18.8479 17.5385 18.8479H16.3385C16.228 18.8479 16.1385 18.7635 16.1385 18.6593V8.85852Z" fill="#878788"/>
<path d="M18.5385 3.20422V2.26171C18.5372 1.01308 17.4635 0.0012079 16.1385 0H10.1385C8.81357 0.0012079 7.73984 1.01308 7.73837 2.26171V3.20422C7.73856 3.26737 7.74533 3.33053 7.75888 3.39265H3.1384C2.58615 3.39265 2.13846 3.81455 2.13846 4.33498V4.71202C2.13846 5.23245 2.58615 5.65436 3.1384 5.65436H4.13852V6.7853C4.13852 6.9934 4.3176 7.16216 4.53842 7.16216C4.75943 7.16216 4.93851 6.9934 4.93851 6.7853V5.65436H20.9384V20.3557C20.9384 21.1885 20.2221 21.8635 19.3385 21.8635H6.53848C5.65482 21.8635 4.93851 21.1885 4.93851 20.3557V9.80091C4.93851 9.59263 4.75943 9.42387 4.53842 9.42387C4.3176 9.42387 4.13852 9.59263 4.13852 9.80091V20.3557C4.1398 21.6043 5.21353 22.6162 6.53848 22.6174H19.3385C20.6634 22.6162 21.7372 21.6043 21.7384 20.3557V5.65436H22.7384C23.2908 5.65436 23.7385 5.23245 23.7385 4.71202V4.33498C23.7385 3.81455 23.2908 3.39265 22.7384 3.39265H18.518C18.5315 3.33053 18.5385 3.26737 18.5385 3.20422V3.20422ZM8.53854 3.20422V2.26171C8.53854 1.42895 9.25485 0.753903 10.1385 0.753903H16.1385C17.0222 0.753903 17.7385 1.42895 17.7385 2.26171V3.20422C17.7385 3.30827 17.649 3.39265 17.5385 3.39265H16.9385V2.45014C16.9385 1.92971 16.4908 1.50781 15.9384 1.50781H10.3385C9.78622 1.50781 9.33853 1.92971 9.33853 2.45014V3.39265H8.73849C8.62808 3.39265 8.53854 3.30827 8.53854 3.20422ZM10.1385 3.39265V2.45014C10.1385 2.34609 10.2281 2.26171 10.3385 2.26171H15.9384C16.049 2.26171 16.1385 2.34609 16.1385 2.45014V3.39265H10.1385ZM22.9385 4.33498V4.71202C22.9385 4.81607 22.849 4.90045 22.7384 4.90045H3.1384C3.02798 4.90045 2.93845 4.81607 2.93845 4.71202V4.33498C2.93845 4.23093 3.02798 4.14655 3.1384 4.14655H22.7384C22.849 4.14655 22.9385 4.23093 22.9385 4.33498Z" fill="#878788"/>
<path d="M4.53843 8.66992C4.70102 8.67078 4.84787 8.57898 4.91013 8.43748C4.97257 8.29616 4.93778 8.13327 4.82242 8.02542L4.76255 7.98021C4.74021 7.96588 4.71604 7.9545 4.6904 7.94621C4.66788 7.93534 4.64353 7.92775 4.61844 7.92361C4.59208 7.91947 4.56534 7.91688 4.53843 7.91602C4.43259 7.91757 4.33115 7.95657 4.25443 8.02542C4.21836 8.06148 4.18979 8.10359 4.17038 8.14983C4.11014 8.29029 4.14292 8.45129 4.25443 8.56069C4.2927 8.59468 4.33756 8.6216 4.38645 8.63989C4.4346 8.65905 4.48624 8.6694 4.53843 8.66992Z" fill="#878788"/>
</g>
<defs>
<clipPath id="clip0">
<rect x="0.919678" width="24" height="22.6174" fill="white"/>
</clipPath>
</defs>
</svg>
