<svg width="24" height="23" viewBox="0 0 24 23" fill="none" xmlns="http://www.w3.org/2000/svg">
<g clip-path="url(#clip0)">
<path d="M6.95341 20.747L0.483307 22.2133L2.03917 16.1159L17.7827 1.2793L22.6969 5.91044L6.95341 20.747Z" fill="#F1F1F1"/>
<path d="M22.5478 1.31561C21.8962 0.701491 21.0123 0.356445 20.0907 0.356445C19.1691 0.356445 18.2853 0.701447 17.6337 1.31561L22.5478 5.94658C23.1995 5.33246 23.5656 4.49959 23.5656 3.63109C23.5656 2.76259 23.1995 1.92968 22.5478 1.31561Z" fill="#F0F0F0"/>
<path d="M6.78608 20.73L6.76209 20.7081L7.06922 18.1032L4.30501 18.3926L4.61215 15.7876C4.61215 15.7876 2.23289 16.0367 1.98514 16.0627L1.96989 16.0771L0.434265 22.1553L6.78608 20.73Z" fill="#F0F0F0"/>
<path d="M0.43426 22.5647C0.301383 22.5647 0.175821 22.5074 0.0934908 22.4091C0.0111132 22.3108 -0.0189589 22.1825 0.0117783 22.0607L1.54731 15.9823C1.56588 15.9086 1.60579 15.8412 1.6627 15.7876L17.3265 1.02619C17.4079 0.949409 17.5184 0.90625 17.6336 0.90625C17.7488 0.90625 17.8593 0.949409 17.9407 1.02619L22.8552 5.65752C22.9366 5.73425 22.9824 5.83839 22.9824 5.94691C22.9824 6.05544 22.9366 6.15957 22.8552 6.23631L7.19131 20.9978C7.13449 21.0514 7.06295 21.089 6.98475 21.1065L0.534786 22.5535C0.501863 22.5611 0.468133 22.5648 0.43426 22.5647ZM2.36381 16.2845L1.0205 21.603L6.66412 20.337L21.9339 5.94687L17.6336 1.89438L2.36381 16.2845Z" fill="#878788"/>
<path d="M4.42658 18.8017C4.19607 18.8015 4.00585 18.6316 3.99322 18.4147C3.98058 18.1978 4.14994 18.0094 4.37907 17.9854L7.14342 17.696C7.29796 17.6794 7.45008 17.7419 7.54234 17.8599C7.63459 17.9779 7.65293 18.1334 7.59037 18.2675C7.5278 18.4017 7.39392 18.4942 7.23929 18.5099L4.47494 18.7993C4.45888 18.8008 4.44273 18.8017 4.42658 18.8017Z" fill="#878788"/>
<path d="M0.434228 22.5646C0.258594 22.5646 0.100252 22.4649 0.0330295 22.312C-0.0341933 22.159 0.00295741 21.983 0.127141 21.8659L1.54091 20.5336C1.71084 20.3754 1.98434 20.3763 2.15318 20.5354C2.32202 20.6945 2.32288 20.9523 2.15508 21.1124L0.741315 22.4447C0.659983 22.5216 0.549481 22.5648 0.434228 22.5646Z" fill="#878788"/>
<path d="M22.5481 6.45996C22.4328 6.46009 22.3223 6.41693 22.241 6.34002L17.3265 1.7095C17.245 1.63276 17.1992 1.52862 17.1992 1.4201C17.1992 1.31158 17.245 1.20744 17.3265 1.1307C18.8541 -0.305937 21.3276 -0.305937 22.8552 1.1307C24.3816 2.56922 24.3816 4.90154 22.8552 6.34006C22.7738 6.41693 22.6633 6.46009 22.5481 6.45996ZM18.2699 1.44087L22.5264 5.45141C23.4308 4.31044 23.3093 2.71679 22.241 1.7095C21.1714 0.703682 19.4809 0.589338 18.2699 1.44087Z" fill="#878788"/>
<path d="M20.0908 8.67126C19.9756 8.67139 19.865 8.62824 19.7837 8.55132L14.8696 3.92039C14.7 3.76056 14.7 3.50143 14.8696 3.34155C15.0392 3.18172 15.3142 3.18172 15.4839 3.34155L20.3979 7.97248C20.5221 8.08956 20.5592 8.2656 20.492 8.41853C20.4248 8.57147 20.2665 8.67122 20.0908 8.67126Z" fill="#878788"/>
<path d="M21.3192 7.51364C21.204 7.51378 21.0934 7.47062 21.0121 7.3937L16.0981 2.76278C15.9303 2.60264 15.9312 2.3449 16.1001 2.18578C16.2689 2.02667 16.5424 2.02586 16.7123 2.18399L21.6264 6.81491C21.7506 6.93199 21.7877 7.10802 21.7205 7.26096C21.6532 7.41385 21.4949 7.5136 21.3192 7.51364Z" fill="#878788"/>
<path d="M4.73409 16.1967C4.55846 16.1967 4.40012 16.097 4.3329 15.944C4.26567 15.7911 4.30282 15.6151 4.42701 15.498L14.2555 6.23608C14.4251 6.07625 14.7001 6.07625 14.8697 6.23608C15.0393 6.39591 15.0393 6.65505 14.8697 6.81492L5.04118 16.0768C4.95985 16.1537 4.8493 16.1968 4.73409 16.1967Z" fill="#878788"/>
<path d="M7.19128 18.5125C7.01564 18.5125 6.8573 18.4128 6.79008 18.2599C6.72286 18.1069 6.76001 17.9309 6.88419 17.8138L16.7122 8.55151C16.8818 8.39168 17.1568 8.39168 17.3265 8.55151C17.4961 8.71134 17.4961 8.97048 17.3265 9.13035L7.49841 18.3926C7.41703 18.4695 7.30653 18.5126 7.19128 18.5125Z" fill="#878788"/>
<path d="M0.43426 22.5647C0.301383 22.5646 0.175821 22.5073 0.0934908 22.409C0.0111132 22.3108 -0.0189589 22.1824 0.0117783 22.0606L1.54731 15.9822C1.56588 15.9085 1.60579 15.8411 1.6627 15.7876C1.73719 15.7171 1.83368 15.6709 1.93801 15.6557C2.18571 15.6301 4.56449 15.3807 4.56449 15.3807C4.69552 15.3678 4.82583 15.4109 4.91952 15.4982C5.01277 15.5861 5.05866 15.7092 5.04422 15.8328L4.79695 17.9294L7.02129 17.6963C7.15241 17.6827 7.28305 17.7259 7.37631 17.8138C7.46961 17.9018 7.51546 18.0249 7.50101 18.1484L7.20324 20.6748C7.21041 20.7251 7.20709 20.7763 7.1935 20.8255C7.15815 20.9718 7.04034 21.088 6.88684 21.1281L0.534833 22.5535C0.501911 22.561 0.468133 22.5648 0.43426 22.5647ZM2.32481 16.4391L1.0205 21.6029L6.36084 20.4045L6.57757 18.5665L4.35323 18.7995C4.22211 18.8131 4.09146 18.7699 3.99821 18.682C3.9049 18.5941 3.85906 18.471 3.8735 18.3474L4.12078 16.2508C3.58033 16.3076 2.76677 16.3927 2.32481 16.4391Z" fill="#878788"/>
</g>
<defs>
<clipPath id="clip0">
<rect width="24" height="22.6174" fill="white"/>
</clipPath>
</defs>
</svg>
