<svg width="32" height="32" viewBox="0 0 32 32" fill="none" xmlns="http://www.w3.org/2000/svg">
<path d="M19.7333 29.3333C16.5333 27.7333 17.0667 24 17.0667 24H11.2C11.2 24 11.7333 27.7333 8.53333 29.3333H19.7333Z" fill="#A4C2F7"/>
<path d="M27.2 20.2666V21.8666C27.2 23.0448 26.2449 23.9999 25.0667 23.9999H2.66666C1.48845 23.9999 0.533325 23.0448 0.533325 21.8666V20.2666H27.2Z" fill="#A4C2F7"/>
<path d="M25.6 20.2666V21.8666C25.6 23.0448 24.6449 23.9999 23.4667 23.9999H2.66666C1.48845 23.9999 0.533325 23.0448 0.533325 21.8666V20.2666H25.6Z" fill="#E8EDFC"/>
<path d="M27.2 17.6002V20.2669H0.533325V5.33353C0.533325 4.15532 1.48845 3.2002 2.66666 3.2002H14.4693C14.4217 3.37392 14.3984 3.5534 14.4 3.73353L27.2 17.6002Z" fill="url(#paint0_linear)"/>
<path d="M21.3334 30.4002C21.3334 30.9893 20.8558 31.4668 20.2667 31.4668H7.46669C6.87759 31.4668 6.40002 30.9893 6.40002 30.4002C6.40002 29.8111 6.87759 29.3335 7.46669 29.3335H20.2667C20.8558 29.3335 21.3334 29.8111 21.3334 30.4002Z" fill="#A4C2F7"/>
<path d="M19.7334 30.4002C19.7334 30.9893 19.2558 31.4668 18.6667 31.4668H7.46669C6.87759 31.4668 6.40002 30.9893 6.40002 30.4002C6.40002 29.8111 6.87759 29.3335 7.46669 29.3335H18.6667C19.2558 29.3335 19.7334 29.8111 19.7334 30.4002Z" fill="#E8EDFC"/>
<path d="M31.4667 4.2666V15.4666C31.4667 16.6448 30.5116 17.5999 29.3334 17.5999H16.5334C15.3552 17.5999 14.4 16.6448 14.4 15.4666V4.2666H31.4667Z" fill="#CAD9FC"/>
<path d="M29.8667 4.2666V15.4666C29.8667 16.6448 28.9116 17.5999 27.7334 17.5999H16.5334C15.3552 17.5999 14.4 16.6448 14.4 15.4666V4.2666H29.8667Z" fill="#E8EDFC"/>
<path d="M31.4667 3.73343V5.33343H14.4001C14.4001 3.9201 14.3681 3.55743 14.4694 3.2001C14.7124 2.25877 15.5612 1.60082 16.5334 1.6001H29.3334C30.5116 1.6001 31.4667 2.55522 31.4667 3.73343Z" fill="#CAD9FC"/>
<path d="M29.8667 3.73343V5.33343H14.4001C14.4001 3.9201 14.3681 3.55743 14.4694 3.2001C14.7124 2.25877 15.5612 1.60082 16.5334 1.6001H27.7334C28.9116 1.6001 29.8667 2.55522 29.8667 3.73343Z" fill="#E8EDFC"/>
<path d="M16.5334 7.46631H19.2001V10.133H16.5334V7.46631Z" fill="#CAD9FC"/>
<path d="M16.5333 12.2666H19.2V14.9333H16.5333V12.2666Z" fill="#CAD9FC"/>
<path d="M21.3334 7.46631H24.5334V10.133H21.3334V7.46631Z" fill="#CAD9FC"/>
<path d="M21.3334 12.2666H24.5334V14.9333H21.3334V12.2666Z" fill="#CAD9FC"/>
<path d="M26.6666 7.46631H29.3333V10.133H26.6666V7.46631Z" fill="#CAD9FC"/>
<path d="M26.6666 12.2666H29.3333V14.9333H26.6666V12.2666Z" fill="#CAD9FC"/>
<path d="M8.53336 29.3328H7.46669C6.87759 29.3328 6.40002 29.8104 6.40002 30.3995C6.40002 30.9886 6.87759 31.4662 7.46669 31.4662H9.06669C8.47759 31.4662 8.00002 30.9886 8.00002 30.3995C8.00002 29.8104 8.47759 29.3328 9.06669 29.3328H10.1334C13.3334 27.7328 12.8 23.9995 12.8 23.9995H11.2C11.2 23.9995 11.7334 27.7328 8.53336 29.3328Z" fill="white"/>
<path d="M2.66666 23.9997H4.26666C3.08845 23.9997 2.13333 23.0446 2.13333 21.8664V5.33304C2.13333 4.15483 3.08845 3.19971 4.26666 3.19971H2.66666C1.48845 3.19971 0.533325 4.15483 0.533325 5.33304V21.8664C0.533325 23.0446 1.48845 23.9997 2.66666 23.9997Z" fill="white"/>
<path d="M0 5.33301H1.06667V9.59968H0V5.33301Z" fill="white"/>
<path d="M3.88801 4.95466C3.73416 5.10724 3.68792 5.33774 3.77101 5.53785C3.8541 5.73796 4.05 5.86792 4.26668 5.86666H4.37334L4.46934 5.83466L4.56534 5.78666L4.64534 5.72266C4.74784 5.61941 4.80371 5.47877 4.80001 5.33333C4.80127 5.11665 4.67131 4.92075 4.4712 4.83766C4.27108 4.75457 4.04059 4.80081 3.88801 4.95466V4.95466Z" fill="#428DFF"/>
<path d="M7.62131 9.21593C7.46354 9.36794 7.41478 9.60098 7.49838 9.8035C7.58197 10.006 7.78092 10.1368 7.99998 10.1333H8.10664C8.14006 10.1274 8.17241 10.1166 8.20264 10.1013L8.29864 10.0533L8.37864 9.98926C8.48114 9.88601 8.53702 9.74537 8.53331 9.59993C8.53457 9.38325 8.40461 9.18735 8.2045 9.10426C8.00439 9.02117 7.77389 9.06742 7.62131 9.22126V9.21593Z" fill="#428DFF"/>
<path d="M0.533333 7.99977C0.238781 7.99977 0 7.76099 0 7.46644C0 7.17189 0.238781 6.93311 0.533333 6.93311C0.827885 6.93311 1.06667 7.17189 1.06667 7.46644C1.06667 7.76099 0.827885 7.99977 0.533333 7.99977Z" fill="#428DFF"/>
<path d="M29.3333 1.06667H28.8V0.533333C28.8 0.238781 28.5612 0 28.2667 0C27.9721 0 27.7333 0.238781 27.7333 0.533333V1.06667H26.1333V0.533333C26.1333 0.238781 25.8946 0 25.6 0C25.3054 0 25.0667 0.238781 25.0667 0.533333V1.06667H23.4667V0.533333C23.4667 0.238781 23.2279 0 22.9333 0C22.6388 0 22.4 0.238781 22.4 0.533333V1.06667H20.8V0.533333C20.8 0.238781 20.5612 0 20.2667 0C19.9721 0 19.7333 0.238781 19.7333 0.533333V1.06667H18.1333V0.533333C18.1333 0.238781 17.8946 0 17.6 0C17.3054 0 17.0667 0.238781 17.0667 0.533333V1.06667H16.5333C15.4735 1.06721 14.5146 1.69532 14.0907 2.66667H2.66667C1.19391 2.66667 0 3.86057 0 5.33333C0 5.62789 0.238781 5.86667 0.533333 5.86667C0.827885 5.86667 1.06667 5.62789 1.06667 5.33333C1.06667 4.44968 1.78301 3.73333 2.66667 3.73333H13.8667V9.38133L9.33333 13.9147L7.04533 11.6213C6.94519 11.5204 6.80887 11.4636 6.66667 11.4636C6.52446 11.4636 6.38814 11.5204 6.288 11.6213L2.288 15.6213C2.18703 15.7215 2.13024 15.8578 2.13024 16C2.13024 16.1422 2.18703 16.2785 2.288 16.3787C2.38814 16.4796 2.52446 16.5364 2.66667 16.5364C2.80887 16.5364 2.94519 16.4796 3.04533 16.3787L6.66667 12.752L8.95467 15.0453C9.05481 15.1463 9.19113 15.2031 9.33333 15.2031C9.47554 15.2031 9.61186 15.1463 9.712 15.0453L13.8667 10.8853V15.4667C13.8667 16.9394 15.0606 18.1333 16.5333 18.1333H26.6667V19.7333H1.06667V9.6C1.06667 9.30545 0.827885 9.06667 0.533333 9.06667C0.238781 9.06667 0 9.30545 0 9.6V21.8667C0 23.3394 1.19391 24.5333 2.66667 24.5333H10.6987C10.6987 25.488 10.512 27.6747 8.38933 28.8H7.46667C6.58301 28.8 5.86667 29.5163 5.86667 30.4C5.86667 31.2837 6.58301 32 7.46667 32H20.2667C21.1503 32 21.8667 31.2837 21.8667 30.4C21.8667 29.5163 21.1503 28.8 20.2667 28.8H19.8773C17.744 27.6747 17.5467 25.4827 17.568 24.5333H25.0667C26.5394 24.5333 27.7333 23.3394 27.7333 21.8667V18.1333H29.3333C30.8061 18.1333 32 16.9394 32 15.4667V3.73333C32 2.26057 30.8061 1.06667 29.3333 1.06667V1.06667ZM20.8 30.4C20.8 30.6946 20.5612 30.9333 20.2667 30.9333H7.46667C7.17212 30.9333 6.93333 30.6946 6.93333 30.4C6.93333 30.1054 7.17212 29.8667 7.46667 29.8667H20.2667C20.5612 29.8667 20.8 30.1054 20.8 30.4ZM18.0907 28.8H10.176C11.2428 27.6393 11.8165 26.1093 11.776 24.5333H16.5333C16.4812 26.1034 17.0394 27.6327 18.0907 28.8ZM25.0667 23.4667H2.66667C1.78301 23.4667 1.06667 22.7503 1.06667 21.8667V20.8H26.6667V21.8667C26.6667 22.7503 25.9503 23.4667 25.0667 23.4667ZM16.5333 2.13333H17.0667V2.66667C17.0667 2.96122 17.3054 3.2 17.6 3.2C17.8946 3.2 18.1333 2.96122 18.1333 2.66667V2.13333H19.7333V2.66667C19.7333 2.96122 19.9721 3.2 20.2667 3.2C20.5612 3.2 20.8 2.96122 20.8 2.66667V2.13333H22.4V2.66667C22.4 2.96122 22.6388 3.2 22.9333 3.2C23.2279 3.2 23.4667 2.96122 23.4667 2.66667V2.13333H25.0667V2.66667C25.0667 2.96122 25.3054 3.2 25.6 3.2C25.8946 3.2 26.1333 2.96122 26.1333 2.66667V2.13333H27.7333V2.66667C27.7333 2.96122 27.9721 3.2 28.2667 3.2C28.5612 3.2 28.8 2.96122 28.8 2.66667V2.13333H29.3333C30.217 2.13333 30.9333 2.84968 30.9333 3.73333V4.8H14.9333V3.73333C14.9333 2.84968 15.6497 2.13333 16.5333 2.13333ZM29.3333 17.0667H16.5333C15.6497 17.0667 14.9333 16.3503 14.9333 15.4667V5.86667H30.9333V15.4667C30.9333 16.3503 30.217 17.0667 29.3333 17.0667Z" fill="#428DFF"/>
<path d="M19.2 6.93311H16.5333C16.2388 6.93311 16 7.17189 16 7.46644V10.1331C16 10.4277 16.2388 10.6664 16.5333 10.6664H19.2C19.4946 10.6664 19.7333 10.4277 19.7333 10.1331V7.46644C19.7333 7.17189 19.4946 6.93311 19.2 6.93311ZM18.6667 9.59977H17.0667V7.99977H18.6667V9.59977Z" fill="#428DFF"/>
<path d="M19.2 11.7334H16.5333C16.2388 11.7334 16 11.9722 16 12.2667V14.9334C16 15.228 16.2388 15.4667 16.5333 15.4667H19.2C19.4946 15.4667 19.7333 15.228 19.7333 14.9334V12.2667C19.7333 11.9722 19.4946 11.7334 19.2 11.7334ZM18.6667 14.4001H17.0667V12.8001H18.6667V14.4001Z" fill="#428DFF"/>
<path d="M24.5333 6.93311H21.3333C21.0387 6.93311 20.7999 7.17189 20.7999 7.46644V10.1331C20.7999 10.4277 21.0387 10.6664 21.3333 10.6664H24.5333C24.8278 10.6664 25.0666 10.4277 25.0666 10.1331V7.46644C25.0666 7.17189 24.8278 6.93311 24.5333 6.93311ZM23.9999 9.59977H21.8666V7.99977H23.9999V9.59977Z" fill="#428DFF"/>
<path d="M24.5333 11.7334H21.3333C21.0387 11.7334 20.7999 11.9722 20.7999 12.2667V14.9334C20.7999 15.228 21.0387 15.4667 21.3333 15.4667H24.5333C24.8278 15.4667 25.0666 15.228 25.0666 14.9334V12.2667C25.0666 11.9722 24.8278 11.7334 24.5333 11.7334ZM23.9999 14.4001H21.8666V12.8001H23.9999V14.4001Z" fill="#428DFF"/>
<path d="M29.3333 6.93311H26.6666C26.3721 6.93311 26.1333 7.17189 26.1333 7.46644V10.1331C26.1333 10.4277 26.3721 10.6664 26.6666 10.6664H29.3333C29.6279 10.6664 29.8666 10.4277 29.8666 10.1331V7.46644C29.8666 7.17189 29.6279 6.93311 29.3333 6.93311ZM28.8 9.59977H27.2V7.99977H28.8V9.59977Z" fill="#428DFF"/>
<path d="M29.3333 11.7334H26.6666C26.3721 11.7334 26.1333 11.9722 26.1333 12.2667V14.9334C26.1333 15.228 26.3721 15.4667 26.6666 15.4667H29.3333C29.6279 15.4667 29.8666 15.228 29.8666 14.9334V12.2667C29.8666 11.9722 29.6279 11.7334 29.3333 11.7334ZM28.8 14.4001H27.2V12.8001H28.8V14.4001Z" fill="#428DFF"/>
<path d="M12.8 18.6668C13.0945 18.6668 13.3333 18.428 13.3333 18.1334C13.3333 17.8389 13.0945 17.6001 12.8 17.6001H2.66663C2.37208 17.6001 2.1333 17.8389 2.1333 18.1334C2.1333 18.428 2.37208 18.6668 2.66663 18.6668H12.8Z" fill="#428DFF"/>
<path d="M7.60001 4.98127L3.86668 9.24793C3.72851 9.4052 3.69513 9.62876 3.78132 9.81953C3.86751 10.0103 4.05734 10.133 4.26668 10.1333C4.41986 10.1331 4.56557 10.067 4.66668 9.95193L8.40001 5.68527C8.5791 5.46291 8.55132 5.13895 8.33699 4.95034C8.12265 4.76172 7.79779 4.77536 7.60001 4.98127V4.98127Z" fill="#428DFF"/>
<path d="M4.26673 5.86696C3.97218 5.86696 3.7334 5.62818 3.7334 5.33363C3.7334 5.03907 3.97218 4.80029 4.26673 4.80029C4.56128 4.80029 4.80007 5.03907 4.80007 5.33363C4.80007 5.62818 4.56128 5.86696 4.26673 5.86696Z" fill="#428DFF"/>
<path d="M8.00001 10.1336C7.70546 10.1336 7.46667 9.89478 7.46667 9.60023C7.46667 9.30568 7.70546 9.06689 8.00001 9.06689C8.29456 9.06689 8.53334 9.30568 8.53334 9.60023C8.53334 9.89478 8.29456 10.1336 8.00001 10.1336Z" fill="#428DFF"/>
<defs>
<linearGradient id="paint0_linear" x1="0.378659" y1="4.6082" x2="10.8781" y2="30.248" gradientUnits="userSpaceOnUse">
<stop stop-color="#D3DFF2"/>
<stop offset="0.17" stop-color="#D3DFF2"/>
<stop offset="0.2" stop-color="#FFF3F2"/>
<stop offset="0.25" stop-color="#FFF3F2"/>
<stop offset="0.26" stop-color="#D3DFF2"/>
<stop offset="0.4" stop-color="#D3DFF2"/>
<stop offset="0.42" stop-color="#FFF3F2"/>
<stop offset="0.49" stop-color="#FFF3F2"/>
<stop offset="0.5" stop-color="#D3DFF2"/>
<stop offset="0.71" stop-color="#D3DFF2"/>
<stop offset="0.74" stop-color="#FFF3F2"/>
<stop offset="0.83" stop-color="#FFF3F2"/>
<stop offset="0.85" stop-color="#D3DFF2"/>
</linearGradient>
</defs>
</svg>
