<svg width="32" height="30" viewBox="0 0 32 30" fill="none" xmlns="http://www.w3.org/2000/svg">
<g clip-path="url(#clip0)">
<path d="M19.1007 24.4595C19.1007 24.333 19.1094 24.2095 19.1203 24.084C19.1117 24.21 19.1038 24.3355 19.1007 24.4595Z" fill="#9BC9FF"/>
<path d="M19.1474 25.1299C19.161 25.2334 19.1785 25.3354 19.2001 25.4365C19.1785 25.3354 19.1615 25.2329 19.1474 25.1299Z" fill="#9BC9FF"/>
<path d="M19.2365 25.6079C19.2617 25.7141 19.2892 25.8181 19.3245 25.9209C19.2918 25.8181 19.2596 25.7141 19.2365 25.6079Z" fill="#9BC9FF"/>
<path d="M19.3215 23.0542C19.2282 23.356 19.1639 23.6648 19.1298 23.9773C19.393 21.6299 21.3611 19.7754 23.8518 19.5273C23.5194 19.5593 23.1906 19.6201 22.8699 19.7083C21.1616 20.1848 19.8261 21.4443 19.3215 23.0542V23.0542Z" fill="#9BC9FF"/>
<path d="M19.5463 26.4995C19.48 26.3584 19.4222 26.2129 19.3702 26.0649C19.4222 26.2129 19.48 26.3584 19.5463 26.4995Z" fill="#9BC9FF"/>
<path d="M23.9701 19.521C24.1003 19.5105 24.231 19.5029 24.3632 19.502C24.233 19.5029 24.1018 19.5105 23.9701 19.521Z" fill="#9BC9FF"/>
<path d="M26.529 19.9199C26.3791 19.8574 26.2246 19.803 26.0675 19.7539C26.2246 19.803 26.3791 19.8574 26.529 19.9199Z" fill="#9BC9FF"/>
<path d="M25.9139 19.7109C25.8076 19.6804 25.6951 19.6521 25.5831 19.6279C25.6951 19.6499 25.805 19.6804 25.9139 19.7109Z" fill="#9BC9FF"/>
<path d="M19.107 24.6177C19.11 24.7302 19.1148 24.8418 19.1258 24.9521C19.1154 24.8418 19.11 24.7302 19.107 24.6177Z" fill="#9BC9FF"/>
<path d="M24.8841 19.5232C24.7667 19.5137 24.649 19.5088 24.53 19.5059C24.651 19.5088 24.7693 19.5137 24.8841 19.5232Z" fill="#9BC9FF"/>
<path d="M25.3996 19.5925C25.2936 19.5735 25.1842 19.5569 25.0742 19.5425C25.1842 19.5569 25.2925 19.5735 25.3996 19.5925Z" fill="#9BC9FF"/>
<path d="M25.4675 0.5H9.02002V5.49995C9.02002 6.05219 8.54489 6.49994 7.95889 6.49994H2.12268V25.4998C2.12268 26.052 2.59755 26.4997 3.18381 26.4997H19.5463C19.48 26.3586 19.4222 26.2131 19.3702 26.0652C19.3536 26.0178 19.3404 25.9692 19.3251 25.9211C19.2922 25.8184 19.2619 25.7144 19.2365 25.6082C19.2228 25.5518 19.2111 25.4941 19.1994 25.4363C19.1785 25.3362 19.1608 25.2341 19.1463 25.1296C19.1383 25.0708 19.1303 25.0117 19.1251 24.9522C19.114 24.8418 19.109 24.7302 19.1059 24.6177C19.1059 24.5784 19.0994 24.5398 19.0994 24.4998C19.0994 24.4863 19.0994 24.4732 19.0994 24.4597C19.0994 24.3357 19.1085 24.2097 19.1197 24.0842C19.123 24.0488 19.123 24.0122 19.1266 23.9773C19.1608 23.6648 19.2251 23.356 19.3181 23.0542C19.8233 21.4444 21.1593 20.1849 22.8675 19.7088C23.1885 19.6207 23.5173 19.5599 23.8497 19.5279C23.889 19.5237 23.9292 19.5237 23.9691 19.5208C24.1007 19.5103 24.2344 19.5027 24.3618 19.5018H24.4051C24.4476 19.5018 24.4885 19.5074 24.531 19.5079C24.6499 19.5108 24.7675 19.5159 24.8849 19.5252C24.9481 19.5308 25.0105 19.5384 25.0732 19.5457C25.1831 19.5589 25.2913 19.5753 25.3983 19.5958C25.46 19.6067 25.5209 19.6177 25.582 19.6314C25.6939 19.6553 25.8038 19.6812 25.9126 19.7144C25.9657 19.7288 26.0185 19.7413 26.0665 19.7574C26.2255 19.8074 26.3779 19.8609 26.5273 19.9234V1.49999C26.5273 0.947994 26.053 0.500488 25.4675 0.5V0.5Z" fill="#9BC9FF"/>
<path d="M19.3251 25.9214C19.3403 25.9714 19.3536 26.0181 19.3701 26.0654C19.3536 26.0181 19.3403 25.9695 19.3251 25.9214Z" fill="#9BC9FF"/>
<path d="M24.3628 19.5C24.4196 19.5 24.4758 19.5029 24.532 19.5039C24.4895 19.5039 24.4486 19.498 24.4064 19.498C24.3913 19.5 24.3776 19.5 24.3628 19.5Z" fill="#9BC9FF"/>
<path d="M19.1067 24.6174C19.1067 24.5676 19.1023 24.5125 19.1028 24.4595V24.4995C19.1008 24.5396 19.1057 24.5781 19.1067 24.6174Z" fill="#9BC9FF"/>
<path d="M19.1994 25.436C19.2109 25.4939 19.2224 25.5515 19.2359 25.6079C19.2224 25.5496 19.2109 25.4939 19.1994 25.436Z" fill="#9BC9FF"/>
<path d="M25.0743 19.5439C25.0116 19.5366 24.9491 19.5291 24.8859 19.5234C24.9491 19.5291 25.0116 19.5366 25.0743 19.5439Z" fill="#9BC9FF"/>
<path d="M19.1261 24.9521C19.1312 25.0117 19.139 25.0708 19.1469 25.1296C19.139 25.0708 19.1312 25.0117 19.1261 24.9521Z" fill="#9BC9FF"/>
<path d="M26.0675 19.7539C26.017 19.738 25.9652 19.7256 25.9136 19.7109C25.9652 19.7256 26.017 19.738 26.0675 19.7539Z" fill="#9BC9FF"/>
<path d="M19.1294 23.9771C19.126 24.012 19.126 24.0486 19.123 24.084C19.126 24.0496 19.126 24.0129 19.1294 23.9771Z" fill="#9BC9FF"/>
<path d="M25.5831 19.6277C25.5222 19.6143 25.4611 19.6033 25.3994 19.5923C25.4611 19.6033 25.5204 19.6147 25.5831 19.6277Z" fill="#9BC9FF"/>
<path d="M23.9701 19.521C23.9305 19.5239 23.89 19.5239 23.8507 19.5281C23.8906 19.5239 23.9286 19.5239 23.9701 19.521Z" fill="#9BC9FF"/>
<path d="M27.0592 19.6058V1.49999C27.0592 0.671625 26.3465 0 25.4675 0H9.02001C9.00887 0 8.99928 0.00488277 8.98815 0.00561519C8.94514 0.00830067 8.90291 0.015869 8.86172 0.0280759C8.84488 0.0329587 8.8283 0.0366208 8.81198 0.0429684C8.75602 0.0646967 8.70473 0.0949698 8.65965 0.133055L1.76232 6.133C1.71517 6.17572 1.67708 6.22675 1.64988 6.2829C1.64185 6.29926 1.63537 6.31586 1.62967 6.33295C1.61232 6.37763 1.60195 6.4245 1.59885 6.47186C1.59885 6.48236 1.59211 6.49188 1.59211 6.50238V25.4998C1.59211 26.3281 2.30454 26.9998 3.1838 26.9998H19.2132C20.3608 29.1211 22.8271 30.3049 25.3227 29.9323C27.8183 29.5595 29.7755 27.7151 30.1708 25.3633C30.5664 23.0115 29.3102 20.6873 27.0592 19.6058V19.6058ZM8.48945 1.64207V5.49995C8.48945 5.77607 8.25188 5.99994 7.95888 5.99994H3.47965L8.48945 1.64207ZM3.1838 25.9998C2.8908 25.9998 2.65324 25.7759 2.65324 25.4998V6.99994H7.95888C8.83789 6.99994 9.55057 6.32831 9.55057 5.49995V0.999991H25.4675C25.7605 0.999991 25.9981 1.22387 25.9981 1.49999V19.2088C25.9628 19.1993 25.9258 19.1964 25.8919 19.1878C25.6942 19.1385 25.4939 19.0989 25.2919 19.0699C25.2413 19.0628 25.1916 19.0538 25.1406 19.0479C24.897 19.0172 24.652 19.001 24.4064 18.9998H24.3613C24.1178 19.0023 23.8745 19.0189 23.6333 19.0499C23.566 19.0579 23.4996 19.0684 23.4328 19.0789C23.2559 19.1075 23.081 19.1434 22.9085 19.1863C22.8458 19.2012 22.7823 19.2078 22.7201 19.2249C20.8391 19.7506 19.3683 21.1377 18.8119 22.9107C18.7945 22.9683 18.7875 23.0274 18.7717 23.0852C18.7261 23.2478 18.6873 23.4134 18.6577 23.5818C18.6466 23.6438 18.636 23.7058 18.6274 23.7683C18.5924 23.999 18.5733 24.2317 18.5702 24.4649V24.4688V24.4998C18.5725 24.7315 18.5901 24.9627 18.623 25.1922C18.6295 25.2388 18.6386 25.2847 18.6458 25.3308C18.6772 25.5232 18.7191 25.7136 18.7722 25.9019C18.7813 25.9338 18.7844 25.9678 18.794 26.0017L3.1838 25.9998ZM24.4064 28.9997C22.5079 29 20.7898 27.9397 20.0313 26.2998C19.9702 26.1697 19.9178 26.0374 19.872 25.9033C19.8525 25.8457 19.8365 25.7874 19.8191 25.7293C19.7963 25.6533 19.7733 25.5794 19.7549 25.5007C19.7362 25.4224 19.7235 25.3567 19.7103 25.2847C19.6971 25.2127 19.6865 25.1519 19.6774 25.0847C19.6668 25.0095 19.6582 24.9339 19.6518 24.8582C19.6466 24.7898 19.6435 24.7202 19.6406 24.6514C19.638 24.5823 19.6354 24.5012 19.6365 24.4297C19.6375 24.3582 19.6435 24.2798 19.6487 24.2063C19.6531 24.1402 19.6556 24.0742 19.6629 24.0064C19.9108 21.9168 21.659 20.2664 23.8758 20.0294C23.9522 20.0213 24.0289 20.0184 24.1053 20.0142C24.1818 20.0103 24.2496 20.0047 24.3224 20.0037C24.4046 20.0037 24.4869 20.0037 24.5691 20.0079C24.6388 20.0079 24.7087 20.0128 24.7776 20.0179C24.8605 20.0237 24.9426 20.0318 25.025 20.0418C25.0945 20.0508 25.1634 20.0613 25.2323 20.0723C25.3097 20.0853 25.3872 20.0982 25.4636 20.1148C25.54 20.1314 25.6297 20.1548 25.7126 20.1768C25.7714 20.1929 25.8315 20.2073 25.8898 20.2269C26.0336 20.2718 26.1758 20.3213 26.3141 20.3797C28.3804 21.2352 29.5291 23.3367 29.0682 25.4187C28.6074 27.5005 26.6631 28.9941 24.4064 28.9997V28.9997Z" fill="#1E81CE"/>
<path d="M27.5898 23.9995H24.937V21.4995C24.937 21.2234 24.6994 20.9995 24.4064 20.9995C24.1134 20.9995 23.8758 21.2234 23.8758 21.4995V23.9995H21.223C20.93 23.9995 20.6924 24.2234 20.6924 24.4995C20.6924 24.7756 20.93 24.9995 21.223 24.9995H23.8758V27.4995C23.8758 27.7756 24.1134 27.9995 24.4064 27.9995C24.6994 27.9995 24.937 27.7756 24.937 27.4995V24.9995H27.5898C27.8828 24.9995 28.1204 24.7756 28.1204 24.4995C28.1204 24.2234 27.8828 23.9995 27.5898 23.9995Z" fill="#1E81CE"/>
<path d="M11.6728 14H22.2841C22.5771 14 22.8147 13.7761 22.8147 13.5C22.8147 13.2239 22.5771 13 22.2841 13H11.6728C11.3798 13 11.1423 13.2239 11.1423 13.5C11.1423 13.7761 11.3798 14 11.6728 14V14Z" fill="#1E81CE"/>
<path d="M11.6728 17H22.2841C22.5771 17 22.8147 16.7761 22.8147 16.5C22.8147 16.2239 22.5771 16 22.2841 16H11.6728C11.3798 16 11.1423 16.2239 11.1423 16.5C11.1423 16.7761 11.3798 17 11.6728 17V17Z" fill="#1E81CE"/>
<path d="M20.1619 19.5C20.1619 19.2239 19.9243 19 19.6313 19H11.6728C11.3798 19 11.1423 19.2239 11.1423 19.5C11.1423 19.7761 11.3798 20 11.6728 20H19.6313C19.9243 20 20.1619 19.7761 20.1619 19.5Z" fill="#1E81CE"/>
<path d="M11.6728 11H22.2841C22.5771 11 22.8147 10.7761 22.8147 10.5C22.8147 10.2239 22.5771 10 22.2841 10H11.6728C11.3798 10 11.1423 10.2239 11.1423 10.5C11.1423 10.7761 11.3798 11 11.6728 11V11Z" fill="#1E81CE"/>
<path d="M8.77314 8.02559L6.89775 9.79317L6.14749 9.08614C6.01433 8.95626 5.81692 8.90401 5.63143 8.94991C5.44594 8.99556 5.30112 9.13204 5.25241 9.30684C5.20397 9.48165 5.25915 9.66768 5.39723 9.79317L6.52262 10.8537C6.72961 11.0488 7.06563 11.0488 7.27288 10.8537L9.5234 8.73262C9.72443 8.53658 9.72158 8.22457 9.51692 8.0317C9.31226 7.83883 8.98143 7.83614 8.77314 8.02559Z" fill="#1E81CE"/>
<path d="M8.77314 11.0251L6.89775 12.7927L6.14749 12.0857C6.01433 11.9558 5.81692 11.9035 5.63143 11.9494C5.44594 11.9951 5.30112 12.1316 5.25241 12.3064C5.20397 12.4812 5.25915 12.6672 5.39723 12.7927L6.52262 13.8532C6.72961 14.0483 7.06563 14.0483 7.27288 13.8532L9.5234 11.7321C9.72443 11.5361 9.72158 11.2241 9.51692 11.0312C9.31226 10.8383 8.98143 10.8357 8.77314 11.0251Z" fill="#1E81CE"/>
<path d="M8.77315 14.0251L6.89776 15.7927L6.1475 15.0857C5.93921 14.8962 5.60838 14.8989 5.40372 15.0918C5.19905 15.2846 5.1962 15.5966 5.39724 15.7927L6.52263 16.8532C6.72962 17.0483 7.06563 17.0483 7.27289 16.8532L9.52341 14.7321C9.72444 14.5361 9.72159 14.2241 9.51693 14.0312C9.31227 13.8383 8.98144 13.8357 8.77315 14.0251Z" fill="#1E81CE"/>
<path d="M8.77315 17.0251L6.89776 18.7927L6.1475 18.0856C5.93921 17.8962 5.60838 17.8989 5.40372 18.0918C5.19905 18.2846 5.1962 18.5966 5.39724 18.7927L6.52263 19.8532C6.72962 20.0483 7.06563 20.0483 7.27289 19.8532L9.52341 17.7321C9.72444 17.5361 9.72159 17.2241 9.51693 17.0312C9.31227 16.8383 8.98144 16.8357 8.77315 17.0251V17.0251Z" fill="#1E81CE"/>
</g>
<defs>
<clipPath id="clip0">
<rect width="31.8342" height="30" fill="white"/>
</clipPath>
</defs>
</svg>
