<svg width="24" height="23" viewBox="0 0 24 23" fill="none" xmlns="http://www.w3.org/2000/svg">
<g clip-path="url(#clip0)">
<path d="M17.2185 2.4501V4.14651C17.2185 4.45884 16.9499 4.71198 16.6187 4.71198H15.6186V4.67799C15.8577 4.59826 16.0179 4.3855 16.0186 4.14651V2.4501C16.0186 1.40923 15.1231 0.56543 14.0186 0.56543H15.2187C16.3232 0.56543 17.2185 1.40923 17.2185 2.4501V2.4501Z" fill="#A4C2F7"/>
<path d="M16.0187 2.4501V4.14651C16.018 4.3855 15.8577 4.59826 15.6186 4.67799V2.6387C15.6186 2.32638 15.35 2.07323 15.0186 2.07323H9.41865C9.08723 2.07323 8.81862 2.32638 8.81862 2.6387V4.71198H7.81868C7.75038 4.71233 7.68245 4.70076 7.61873 4.67799C7.37941 4.59826 7.21938 4.3855 7.21864 4.14651V2.4501C7.21864 1.40923 8.11403 0.56543 9.2187 0.56543H14.0186C15.1231 0.56543 16.0187 1.40923 16.0187 2.4501V2.4501Z" fill="#E3E7F2"/>
<path d="M20.4187 5.27734V20.3557C20.4187 21.3966 19.5232 22.2404 18.4187 22.2404H5.61868C4.514 22.2404 3.61861 21.3966 3.61861 20.3557V5.27734H20.4187Z" fill="#A4C2F7"/>
<path d="M19.2187 5.27734V20.3557C19.2187 20.8556 19.0079 21.335 18.6329 21.6884C18.2577 22.042 17.749 22.2404 17.2186 22.2404H5.61868C4.514 22.2404 3.61861 21.3966 3.61861 20.3557V5.27734H19.2187Z" fill="#E3E7F2"/>
<path d="M5.8186 6.78516H18.2187C18.5499 6.78516 18.8185 7.0383 18.8185 7.35045V20.1671C18.8185 20.4793 18.5499 20.7324 18.2187 20.7324H5.8186C5.48718 20.7324 5.21857 20.4793 5.21857 20.1671V7.35045C5.21857 7.0383 5.48718 6.78516 5.8186 6.78516Z" fill="#A4C2F7"/>
<path d="M5.8186 6.78516H17.0186C17.35 6.78516 17.6187 7.0383 17.6187 7.35045V20.1671C17.6187 20.4793 17.35 20.7324 17.0186 20.7324H5.8186C5.48718 20.7324 5.21857 20.4793 5.21857 20.1671V7.35045C5.21857 7.0383 5.48718 6.78516 5.8186 6.78516V6.78516Z" fill="#D4E1F4"/>
<path d="M7.41856 8.29297H8.61863C8.95005 8.29297 9.21867 8.54611 9.21867 8.85844V18.6592C9.21867 18.9715 8.95005 19.2246 8.61863 19.2246H7.41856C7.08732 19.2246 6.81852 18.9715 6.81852 18.6592V8.85844C6.81852 8.54611 7.08732 8.29297 7.41856 8.29297V8.29297Z" fill="#A4C2F7"/>
<path d="M8.01859 8.85844V18.6592C8.01859 18.9715 7.74998 19.2246 7.41856 19.2246C7.08732 19.2246 6.81852 18.9715 6.81852 18.6592V8.85844C6.81852 8.54611 7.08732 8.29297 7.41856 8.29297C7.74998 8.29297 8.01859 8.54611 8.01859 8.85844V8.85844Z" fill="#E3E7F2"/>
<path d="M11.4187 8.29297H12.6186C12.95 8.29297 13.2186 8.54611 13.2186 8.85844V18.6592C13.2186 18.9715 12.95 19.2246 12.6186 19.2246H11.4187C11.0873 19.2246 10.8187 18.9715 10.8187 18.6592V8.85844C10.8187 8.54611 11.0873 8.29297 11.4187 8.29297V8.29297Z" fill="#A4C2F7"/>
<path d="M12.0186 8.85844V18.6592C12.0186 18.9715 11.75 19.2246 11.4187 19.2246C11.0873 19.2246 10.8187 18.9715 10.8187 18.6592V8.85844C10.8187 8.54611 11.0873 8.29297 11.4187 8.29297C11.75 8.29297 12.0186 8.54611 12.0186 8.85844V8.85844Z" fill="#E3E7F2"/>
<path d="M15.4186 8.29297H16.6187C16.9499 8.29297 17.2186 8.54611 17.2186 8.85844V18.6592C17.2186 18.9715 16.9499 19.2246 16.6187 19.2246H15.4186C15.0872 19.2246 14.8186 18.9715 14.8186 18.6592V8.85844C14.8186 8.54611 15.0872 8.29297 15.4186 8.29297V8.29297Z" fill="#A4C2F7"/>
<path d="M16.0187 8.85844V18.6592C16.0187 18.9715 15.7501 19.2246 15.4186 19.2246C15.0872 19.2246 14.8186 18.9715 14.8186 18.6592V8.85844C14.8186 8.54611 15.0872 8.29297 15.4186 8.29297C15.7501 8.29297 16.0187 8.54611 16.0187 8.85844V8.85844Z" fill="#E3E7F2"/>
<path d="M2.21857 3.76953H21.8186C22.15 3.76953 22.4186 4.02267 22.4186 4.335V4.71204C22.4186 5.02419 22.15 5.27734 21.8186 5.27734H2.21857C1.88734 5.27734 1.61872 5.02419 1.61872 4.71204V4.335C1.61872 4.02267 1.88734 3.76953 2.21857 3.76953V3.76953Z" fill="#A4C2F7"/>
<path d="M2.21857 3.76953H20.2186C20.55 3.76953 20.8186 4.02267 20.8186 4.335V4.71204C20.8186 5.02419 20.55 5.27734 20.2186 5.27734H2.21857C1.88734 5.27734 1.61872 5.02419 1.61872 4.71204V4.335C1.61872 4.02267 1.88734 3.76953 2.21857 3.76953V3.76953Z" fill="#D4E1F4"/>
<path d="M8.41872 2.4501C8.41872 1.40923 9.3141 0.56543 10.4186 0.56543H9.2187C8.11403 0.56543 7.21864 1.40923 7.21864 2.4501V3.76947H8.41872V2.4501Z" fill="white"/>
<path d="M5.61868 22.2404H6.81857C5.71407 22.2404 4.81869 21.3966 4.81869 20.3557V5.27734H3.61861V20.3557C3.61861 21.3966 4.514 22.2404 5.61868 22.2404Z" fill="white"/>
<path d="M3.41865 3.76953H2.21857C1.88734 3.76953 1.61872 4.02267 1.61872 4.335V4.71204C1.61872 5.02419 1.88734 5.27734 2.21857 5.27734H3.41865C3.08723 5.27734 2.81861 5.02419 2.81861 4.71204V4.335C2.81861 4.02267 3.08723 3.76953 3.41865 3.76953Z" fill="white"/>
<path d="M4.01866 5.27734V20.3557H3.21867V5.27734H4.01866Z" fill="white"/>
<path d="M18.2187 21.1096C18.4839 21.1096 18.7382 21.0102 18.9257 20.8335C19.1134 20.6568 19.2187 20.4171 19.2187 20.1672V7.35054C19.2187 7.10068 19.1134 6.86099 18.9257 6.68429C18.7382 6.50742 18.4839 6.4082 18.2187 6.4082H5.81863C5.26639 6.4082 4.8187 6.83011 4.8187 7.35054V20.1672C4.8187 20.6877 5.26639 21.1096 5.81863 21.1096H18.2187ZM5.61868 20.1672V7.35054C5.61868 7.24649 5.70822 7.16211 5.81863 7.16211H18.2187C18.3291 7.16211 18.4187 7.24649 18.4187 7.35054V20.1672C18.4187 20.2713 18.3291 20.3557 18.2187 20.3557H5.81863C5.70822 20.3557 5.61868 20.2713 5.61868 20.1672Z" fill="#116FFF"/>
<path d="M7.41858 19.6018H8.61865C8.88379 19.6018 9.13812 19.5024 9.32581 19.3257C9.51331 19.149 9.61859 18.9093 9.61859 18.6593V8.85852C9.61859 8.60849 9.51331 8.36881 9.32581 8.19211C9.13812 8.01541 8.88379 7.91602 8.61865 7.91602H7.41858C6.86633 7.91602 6.41864 8.33792 6.41864 8.85852V18.6593C6.41864 19.1799 6.86633 19.6018 7.41858 19.6018ZM7.21863 8.85852C7.21863 8.7543 7.30817 8.66992 7.41858 8.66992H8.61865C8.72906 8.66992 8.8186 8.7543 8.8186 8.85852V18.6593C8.8186 18.7635 8.72906 18.8479 8.61865 18.8479H7.41858C7.30817 18.8479 7.21863 18.7635 7.21863 18.6593V8.85852Z" fill="#116FFF"/>
<path d="M11.4187 19.6018H12.6186C13.1709 19.6018 13.6188 19.1799 13.6188 18.6593V8.85852C13.6188 8.33792 13.1709 7.91602 12.6186 7.91602H11.4187C10.8663 7.91602 10.4186 8.33792 10.4186 8.85852V18.6593C10.4186 19.1799 10.8663 19.6018 11.4187 19.6018V19.6018ZM11.2186 8.85852C11.2186 8.7543 11.3081 8.66992 11.4187 8.66992H12.6186C12.729 8.66992 12.8186 8.7543 12.8186 8.85852V18.6593C12.8186 18.7635 12.729 18.8479 12.6186 18.8479H11.4187C11.3081 18.8479 11.2186 18.7635 11.2186 18.6593V8.85852Z" fill="#116FFF"/>
<path d="M15.4187 19.6018H16.6187C17.171 19.6018 17.6187 19.1799 17.6187 18.6593V8.85852C17.6187 8.33792 17.171 7.91602 16.6187 7.91602H15.4187C14.8664 7.91602 14.4187 8.33792 14.4187 8.85852V18.6593C14.4187 19.1799 14.8664 19.6018 15.4187 19.6018ZM15.2187 8.85852C15.2187 8.7543 15.3082 8.66992 15.4187 8.66992H16.6187C16.7291 8.66992 16.8187 8.7543 16.8187 8.85852V18.6593C16.8187 18.7635 16.7291 18.8479 16.6187 18.8479H15.4187C15.3082 18.8479 15.2187 18.7635 15.2187 18.6593V8.85852Z" fill="#116FFF"/>
<path d="M17.6187 3.20422V2.26171C17.6174 1.01308 16.5437 0.0012079 15.2187 0H9.21872C7.89377 0.0012079 6.82004 1.01308 6.81857 2.26171V3.20422C6.81876 3.26737 6.82553 3.33053 6.83908 3.39265H2.2186C1.66635 3.39265 1.21866 3.81455 1.21866 4.33498V4.71202C1.21866 5.23245 1.66635 5.65436 2.2186 5.65436H3.21872V6.7853C3.21872 6.9934 3.3978 7.16216 3.61862 7.16216C3.83963 7.16216 4.01871 6.9934 4.01871 6.7853V5.65436H20.0186V20.3557C20.0186 21.1885 19.3023 21.8635 18.4187 21.8635H5.61868C4.73502 21.8635 4.01871 21.1885 4.01871 20.3557V9.80091C4.01871 9.59263 3.83963 9.42387 3.61862 9.42387C3.3978 9.42387 3.21872 9.59263 3.21872 9.80091V20.3557C3.22 21.6043 4.29373 22.6162 5.61868 22.6174H18.4187C19.7436 22.6162 20.8174 21.6043 20.8186 20.3557V5.65436H21.8186C22.371 5.65436 22.8187 5.23245 22.8187 4.71202V4.33498C22.8187 3.81455 22.371 3.39265 21.8186 3.39265H17.5982C17.6117 3.33053 17.6187 3.26737 17.6187 3.20422V3.20422ZM7.61874 3.20422V2.26171C7.61874 1.42895 8.33505 0.753903 9.21872 0.753903H15.2187C16.1024 0.753903 16.8187 1.42895 16.8187 2.26171V3.20422C16.8187 3.30827 16.7292 3.39265 16.6187 3.39265H16.0187V2.45014C16.0187 1.92971 15.571 1.50781 15.0186 1.50781H9.41867C8.86642 1.50781 8.41873 1.92971 8.41873 2.45014V3.39265H7.8187C7.70828 3.39265 7.61874 3.30827 7.61874 3.20422ZM9.21872 3.39265V2.45014C9.21872 2.34609 9.30826 2.26171 9.41867 2.26171H15.0186C15.1292 2.26171 15.2187 2.34609 15.2187 2.45014V3.39265H9.21872ZM22.0187 4.33498V4.71202C22.0187 4.81607 21.9292 4.90045 21.8186 4.90045H2.2186C2.10818 4.90045 2.01865 4.81607 2.01865 4.71202V4.33498C2.01865 4.23093 2.10818 4.14655 2.2186 4.14655H21.8186C21.9292 4.14655 22.0187 4.23093 22.0187 4.33498Z" fill="#116FFF"/>
<path d="M3.61863 8.66992C3.78122 8.67078 3.92807 8.57898 3.99033 8.43748C4.05277 8.29616 4.01798 8.13327 3.90262 8.02542L3.84275 7.98021C3.82041 7.96588 3.79624 7.9545 3.7706 7.94621C3.74808 7.93534 3.72373 7.92775 3.69864 7.92361C3.67228 7.91947 3.64554 7.91688 3.61863 7.91602C3.51279 7.91757 3.41135 7.95657 3.33463 8.02542C3.29856 8.06148 3.26999 8.10359 3.25058 8.14983C3.19034 8.29029 3.22312 8.45129 3.33463 8.56069C3.3729 8.59468 3.41776 8.6216 3.46665 8.63989C3.5148 8.65905 3.56644 8.6694 3.61863 8.66992Z" fill="#116FFF"/>
</g>
<defs>
<clipPath id="clip0">
<rect x="-0.00012207" width="24" height="22.6174" fill="white"/>
</clipPath>
</defs>
</svg>
