<svg width="25" height="23" viewBox="0 0 25 23" fill="none" xmlns="http://www.w3.org/2000/svg">
<g clip-path="url(#clip0)">
<path d="M22.1197 3.76953V20.7326C22.1197 21.5653 21.4034 22.2404 20.5197 22.2404H5.31971C4.43607 22.2404 3.71973 21.5653 3.71973 20.7326V3.76953H22.1197V3.76953Z" fill="#F1F1F1"/>
<path d="M20.9197 3.76953V20.7326C20.9197 21.5653 20.2034 22.2404 19.3197 22.2404H5.31971C4.43607 22.2404 3.71973 21.5653 3.71973 20.7326V3.76953H20.9197V3.76953Z" fill="#F0F0F0"/>
<path d="M8.11968 8.29297H17.7197C17.9406 8.29297 18.1197 8.46176 18.1197 8.66991V17.7169C18.1197 17.9251 17.9406 18.0938 17.7197 18.0938H8.11968C7.89876 18.0938 7.7197 17.925 7.7197 17.7169V8.66991C7.7197 8.46176 7.89876 8.29297 8.11968 8.29297Z" fill="#F1F1F1"/>
<path d="M8.11968 8.29297H16.5197C16.7406 8.29297 16.9197 8.46176 16.9197 8.66991V17.7169C16.9197 17.9251 16.7406 18.0938 16.5197 18.0938H8.11968C7.89876 18.0938 7.7197 17.925 7.7197 17.7169V8.66991C7.7197 8.46176 7.89876 8.29297 8.11968 8.29297Z" fill="#F1F1F1"/>
<path d="M22.1197 3.01564V4.90044H3.71964V3.01564C3.72161 2.39185 4.25772 1.88662 4.91964 1.88477H20.9196C21.5816 1.88662 22.1177 2.39185 22.1197 3.01564Z" fill="#F0F0F0"/>
<path d="M20.9197 3.01564V4.90044H3.71964V3.01564C3.72161 2.39185 4.25772 1.88662 4.91964 1.88477H19.7196C20.3816 1.88662 20.9177 2.39185 20.9197 3.01564Z" fill="#F0F0F0"/>
<path d="M6.91965 0.376953C7.3615 0.376953 7.71967 0.714492 7.71967 1.13088V2.63869C7.71967 3.05508 7.3615 3.39262 6.91965 3.39262C6.47781 3.39262 6.11964 3.05508 6.11964 2.63869V1.13088C6.11964 0.714492 6.47781 0.376953 6.91965 0.376953Z" fill="#F1F1F1"/>
<path d="M18.9196 0.376953C19.3615 0.376953 19.7196 0.714492 19.7196 1.13088V2.63869C19.7196 3.05508 19.3615 3.39262 18.9196 3.39262C18.4778 3.39262 18.1196 3.05508 18.1196 2.63869V1.13088C18.1196 0.714492 18.4778 0.376953 18.9196 0.376953Z" fill="#F1F1F1"/>
<path d="M5.31972 22.2404H6.51972C5.63608 22.2404 4.91973 21.5654 4.91973 20.7326V3.01564C4.9217 2.39185 5.45781 1.88662 6.11973 1.88477H4.91973C4.25781 1.88662 3.7217 2.39185 3.71973 3.01564V20.7326C3.71969 21.5654 4.43603 22.2404 5.31972 22.2404Z" fill="white"/>
<path d="M4.11969 4.90039V9.80086V20.7326H3.31968V9.80086V4.90039H4.11969Z" fill="white"/>
<path d="M3.31968 20.7326C3.32099 21.773 4.21565 22.6161 5.31969 22.6174H20.5197C21.6237 22.6162 22.5184 21.7731 22.5197 20.7326V3.01567C22.5197 2.18293 21.8034 1.50786 20.9197 1.50786H20.1197V1.13087C20.1197 0.50633 19.5824 0 18.9197 0C18.257 0 17.7197 0.50633 17.7197 1.13087V1.50781H8.11968V1.13087C8.11968 0.50633 7.58244 0 6.91968 0C6.25696 0 5.71968 0.50633 5.71968 1.13087V1.50781H4.91966C4.03602 1.50781 3.31968 2.18289 3.31968 3.01563V6.40824C3.31968 6.61643 3.49879 6.78518 3.71966 6.78518C3.94054 6.78518 4.11965 6.61639 4.11965 6.40824V5.27737H21.7197V20.7326C21.7197 21.3572 21.1824 21.8635 20.5197 21.8635H5.31969C4.65698 21.8635 4.11969 21.3572 4.11969 20.7326V9.42391C4.11969 9.21571 3.94059 9.04697 3.71971 9.04697C3.49884 9.04697 3.31973 9.21571 3.31973 9.42391V20.7326H3.31968ZM18.5197 1.13087C18.5197 0.922676 18.6988 0.753929 18.9197 0.753929C19.1406 0.753929 19.3197 0.92272 19.3197 1.13087V2.63868C19.3197 2.84688 19.1406 3.01563 18.9197 3.01563C18.6988 3.01563 18.5197 2.84684 18.5197 2.63868V1.13087ZM6.51969 1.13087C6.51969 0.922676 6.69876 0.753929 6.91968 0.753929C7.1406 0.753929 7.31966 0.92272 7.31966 1.13087V2.63868C7.31966 2.84688 7.1406 3.01563 6.91968 3.01563C6.69876 3.01563 6.51969 2.84684 6.51969 2.63868V1.13087V1.13087ZM4.11969 4.52348V3.01567C4.11969 2.59928 4.47787 2.26174 4.91971 2.26174H5.71968V2.63868C5.71968 3.26323 6.25696 3.76956 6.91968 3.76956C7.58244 3.76956 8.11968 3.26323 8.11968 2.63868V2.26174H17.7197V2.63868C17.7197 3.26323 18.257 3.76956 18.9197 3.76956C19.5824 3.76956 20.1197 3.26323 20.1197 2.63868V2.26174H20.9197C21.3615 2.26174 21.7197 2.59928 21.7197 3.01567V4.52348H4.11969Z" fill="#878788"/>
<path d="M3.71954 8.293C3.88206 8.29388 4.02896 8.20204 4.09131 8.06059C4.15365 7.91914 4.11896 7.75623 4.00356 7.6484L3.94356 7.60316C3.92125 7.58889 3.89706 7.57749 3.87156 7.56923C3.84887 7.55837 3.82464 7.55072 3.79956 7.54662C3.77312 7.54242 3.74636 7.5399 3.71954 7.53906C3.61365 7.54052 3.51226 7.57957 3.43553 7.6484C3.39939 7.68444 3.37084 7.72667 3.35153 7.77279C3.2912 7.9134 3.32406 8.07429 3.43553 8.18366C3.47378 8.21772 3.51859 8.24462 3.56753 8.26282C3.61567 8.28217 3.66728 8.29242 3.71954 8.293Z" fill="#878788"/>
<path d="M10.8273 13.7058C10.6856 13.5457 10.4331 13.5241 10.2633 13.6576C10.0934 13.791 10.0705 14.029 10.2121 14.1891L12.2121 16.4508C12.2827 16.5309 12.3854 16.5799 12.4957 16.5861H12.5197C12.6218 16.586 12.7201 16.5492 12.7945 16.4832L19.9945 10.0749C20.1551 9.93188 20.1622 9.69325 20.0104 9.5419C19.8587 9.39056 19.6054 9.3838 19.4449 9.52684L12.5545 15.6596L10.8273 13.7058Z" fill="#878788"/>
<path d="M18.1196 7.91602H8.11967C7.67783 7.91602 7.31966 8.25355 7.31966 8.66994V17.7169C7.31966 18.1333 7.67783 18.4708 8.11967 18.4708H17.7197C18.1615 18.4708 18.5197 18.1333 18.5197 17.7169V13.1934C18.5197 12.9852 18.3406 12.8165 18.1197 12.8165C17.8988 12.8165 17.7197 12.9852 17.7197 13.1934V17.7169H8.11967V8.66994H17.7197V9.04689C17.7197 9.25508 17.8987 9.42383 18.1196 9.42383C18.3406 9.42383 18.5196 9.25504 18.5196 9.04689V8.29296C18.5197 8.08481 18.3406 7.91602 18.1196 7.91602Z" fill="#878788"/>
</g>
<defs>
<clipPath id="clip0">
<rect x="0.919678" width="24" height="22.6174" fill="white"/>
</clipPath>
</defs>
</svg>
