<svg width="32" height="32" viewBox="0 0 32 32" fill="none" xmlns="http://www.w3.org/2000/svg">
<path d="M19.7334 29.3333C16.5334 27.7333 17.0668 24 17.0668 24H11.2001C11.2001 24 11.7334 27.7333 8.53345 29.3333H19.7334Z" fill="#F1F1F1"/>
<path d="M27.2001 20.2666V21.8666C27.2001 23.0448 26.245 23.9999 25.0668 23.9999H2.66678C1.48857 23.9999 0.533447 23.0448 0.533447 21.8666V20.2666H27.2001Z" fill="#F1F1F1"/>
<path d="M25.6001 20.2666V21.8666C25.6001 23.0448 24.645 23.9999 23.4668 23.9999H2.66678C1.48857 23.9999 0.533447 23.0448 0.533447 21.8666V20.2666H25.6001Z" fill="#F1F1F1"/>
<path d="M21.3334 30.4002C21.3334 30.9893 20.8558 31.4668 20.2667 31.4668H7.46669C6.87759 31.4668 6.40002 30.9893 6.40002 30.4002C6.40002 29.8111 6.87759 29.3335 7.46669 29.3335H20.2667C20.8558 29.3335 21.3334 29.8111 21.3334 30.4002Z" fill="#F1F1F1"/>
<path d="M19.7334 30.4002C19.7334 30.9893 19.2558 31.4668 18.6667 31.4668H7.46669C6.87759 31.4668 6.40002 30.9893 6.40002 30.4002C6.40002 29.8111 6.87759 29.3335 7.46669 29.3335H18.6667C19.2558 29.3335 19.7334 29.8111 19.7334 30.4002Z" fill="#F1F1F1"/>
<path d="M31.4667 4.2666V15.4666C31.4667 16.6448 30.5116 17.5999 29.3334 17.5999H16.5334C15.3552 17.5999 14.4 16.6448 14.4 15.4666V4.2666H31.4667Z" fill="#F1F1F1"/>
<path d="M29.8667 4.2666V15.4666C29.8667 16.6448 28.9116 17.5999 27.7334 17.5999H16.5334C15.3552 17.5999 14.4 16.6448 14.4 15.4666V4.2666H29.8667Z" fill="#F1F1F1"/>
<path d="M31.4667 3.73343V5.33343H14.4001C14.4001 3.9201 14.3681 3.55743 14.4694 3.2001C14.7124 2.25876 15.5612 1.60082 16.5334 1.6001H29.3334C30.5116 1.6001 31.4667 2.55522 31.4667 3.73343Z" fill="#F1F1F1"/>
<path d="M29.8667 3.73343V5.33343H14.4001C14.4001 3.9201 14.3681 3.55743 14.4694 3.2001C14.7124 2.25876 15.5612 1.60082 16.5334 1.6001H27.7334C28.9116 1.6001 29.8667 2.55522 29.8667 3.73343Z" fill="#F1F1F1"/>
<path d="M16.5334 7.4668H19.2001V10.1335H16.5334V7.4668Z" fill="#FAFAFA"/>
<path d="M16.5333 12.2666H19.2V14.9333H16.5333V12.2666Z" fill="#FAFAFA"/>
<path d="M21.3334 7.4668H24.5334V10.1335H21.3334V7.4668Z" fill="#FAFAFA"/>
<path d="M21.3334 12.2666H24.5334V14.9333H21.3334V12.2666Z" fill="#FAFAFA"/>
<path d="M26.6666 7.4668H29.3333V10.1335H26.6666V7.4668Z" fill="#FAFAFA"/>
<path d="M26.6666 12.2666H29.3333V14.9333H26.6666V12.2666Z" fill="#FAFAFA"/>
<path d="M8.53336 29.3333H7.46669C6.87759 29.3333 6.40002 29.8109 6.40002 30.4C6.40002 30.9891 6.87759 31.4667 7.46669 31.4667H9.06669C8.47759 31.4667 8.00003 30.9891 8.00003 30.4C8.00003 29.8109 8.47759 29.3333 9.06669 29.3333H10.1334C13.3334 27.7333 12.8 24 12.8 24H11.2C11.2 24 11.7334 27.7333 8.53336 29.3333Z" fill="white"/>
<path d="M2.66678 24.0002H4.26678C3.08857 24.0002 2.13345 23.0451 2.13345 21.8669V5.33353C2.13345 4.15532 3.08857 3.2002 4.26678 3.2002H2.66678C1.48857 3.2002 0.533447 4.15532 0.533447 5.33353V21.8669C0.533447 23.0451 1.48857 24.0002 2.66678 24.0002Z" fill="white"/>
<path d="M0 5.3335H1.06667V9.60016H0V5.3335Z" fill="white"/>
<path d="M3.88801 4.95466C3.73416 5.10724 3.68792 5.33774 3.77101 5.53785C3.8541 5.73797 4.05 5.86792 4.26668 5.86666H4.37334L4.46934 5.83466L4.56534 5.78666L4.64534 5.72266C4.74784 5.61941 4.80371 5.47877 4.80001 5.33333C4.80127 5.11665 4.67131 4.92075 4.4712 4.83766C4.27108 4.75457 4.04059 4.80081 3.88801 4.95466V4.95466Z" fill="#878788"/>
<path d="M7.62131 9.21593C7.46354 9.36794 7.41478 9.60098 7.49838 9.8035C7.58197 10.006 7.78092 10.1368 7.99998 10.1333H8.10665C8.14006 10.1274 8.17241 10.1166 8.20265 10.1013L8.29865 10.0533L8.37865 9.98926C8.48115 9.88601 8.53702 9.74537 8.53331 9.59993C8.53457 9.38325 8.40462 9.18735 8.2045 9.10426C8.00439 9.02117 7.77389 9.06742 7.62131 9.22126V9.21593Z" fill="#878788"/>
<path d="M0.533334 8.00026C0.238782 8.00026 0 7.76148 0 7.46693C0 7.17238 0.238782 6.93359 0.533334 6.93359C0.827886 6.93359 1.06667 7.17238 1.06667 7.46693C1.06667 7.76148 0.827886 8.00026 0.533334 8.00026Z" fill="#878788"/>
<path d="M29.3333 1.06667H28.8V0.533333C28.8 0.238781 28.5612 0 28.2667 0C27.9721 0 27.7333 0.238781 27.7333 0.533333V1.06667H26.1333V0.533333C26.1333 0.238781 25.8946 0 25.6 0C25.3054 0 25.0667 0.238781 25.0667 0.533333V1.06667H23.4667V0.533333C23.4667 0.238781 23.2279 0 22.9333 0C22.6388 0 22.4 0.238781 22.4 0.533333V1.06667H20.8V0.533333C20.8 0.238781 20.5612 0 20.2667 0C19.9721 0 19.7333 0.238781 19.7333 0.533333V1.06667H18.1333V0.533333C18.1333 0.238781 17.8946 0 17.6 0C17.3054 0 17.0667 0.238781 17.0667 0.533333V1.06667H16.5333C15.4735 1.06721 14.5146 1.69532 14.0907 2.66667H2.66667C1.19391 2.66667 0 3.86057 0 5.33333C0 5.62789 0.238781 5.86667 0.533333 5.86667C0.827885 5.86667 1.06667 5.62789 1.06667 5.33333C1.06667 4.44968 1.78301 3.73333 2.66667 3.73333H13.8667V9.38133L9.33333 13.9147L7.04533 11.6213C6.94519 11.5204 6.80887 11.4636 6.66667 11.4636C6.52446 11.4636 6.38814 11.5204 6.288 11.6213L2.288 15.6213C2.18703 15.7215 2.13024 15.8578 2.13024 16C2.13024 16.1422 2.18703 16.2785 2.288 16.3787C2.38814 16.4796 2.52446 16.5364 2.66667 16.5364C2.80887 16.5364 2.94519 16.4796 3.04533 16.3787L6.66667 12.752L8.95467 15.0453C9.05481 15.1463 9.19113 15.2031 9.33333 15.2031C9.47554 15.2031 9.61186 15.1463 9.712 15.0453L13.8667 10.8853V15.4667C13.8667 16.9394 15.0606 18.1333 16.5333 18.1333H26.6667V19.7333H1.06667V9.6C1.06667 9.30545 0.827885 9.06667 0.533333 9.06667C0.238781 9.06667 0 9.30545 0 9.6V21.8667C0 23.3394 1.19391 24.5333 2.66667 24.5333H10.6987C10.6987 25.488 10.512 27.6747 8.38933 28.8H7.46667C6.58301 28.8 5.86667 29.5163 5.86667 30.4C5.86667 31.2837 6.58301 32 7.46667 32H20.2667C21.1503 32 21.8667 31.2837 21.8667 30.4C21.8667 29.5163 21.1503 28.8 20.2667 28.8H19.8773C17.744 27.6747 17.5467 25.4827 17.568 24.5333H25.0667C26.5394 24.5333 27.7333 23.3394 27.7333 21.8667V18.1333H29.3333C30.8061 18.1333 32 16.9394 32 15.4667V3.73333C32 2.26057 30.8061 1.06667 29.3333 1.06667ZM20.8 30.4C20.8 30.6946 20.5612 30.9333 20.2667 30.9333H7.46667C7.17212 30.9333 6.93333 30.6946 6.93333 30.4C6.93333 30.1054 7.17212 29.8667 7.46667 29.8667H20.2667C20.5612 29.8667 20.8 30.1054 20.8 30.4ZM18.0907 28.8H10.176C11.2428 27.6393 11.8165 26.1093 11.776 24.5333H16.5333C16.4812 26.1034 17.0394 27.6326 18.0907 28.8ZM25.0667 23.4667H2.66667C1.78301 23.4667 1.06667 22.7503 1.06667 21.8667V20.8H26.6667V21.8667C26.6667 22.7503 25.9503 23.4667 25.0667 23.4667ZM16.5333 2.13333H17.0667V2.66667C17.0667 2.96122 17.3054 3.2 17.6 3.2C17.8946 3.2 18.1333 2.96122 18.1333 2.66667V2.13333H19.7333V2.66667C19.7333 2.96122 19.9721 3.2 20.2667 3.2C20.5612 3.2 20.8 2.96122 20.8 2.66667V2.13333H22.4V2.66667C22.4 2.96122 22.6388 3.2 22.9333 3.2C23.2279 3.2 23.4667 2.96122 23.4667 2.66667V2.13333H25.0667V2.66667C25.0667 2.96122 25.3054 3.2 25.6 3.2C25.8946 3.2 26.1333 2.96122 26.1333 2.66667V2.13333H27.7333V2.66667C27.7333 2.96122 27.9721 3.2 28.2667 3.2C28.5612 3.2 28.8 2.96122 28.8 2.66667V2.13333H29.3333C30.217 2.13333 30.9333 2.84968 30.9333 3.73333V4.8H14.9333V3.73333C14.9333 2.84968 15.6497 2.13333 16.5333 2.13333ZM29.3333 17.0667H16.5333C15.6497 17.0667 14.9333 16.3503 14.9333 15.4667V5.86667H30.9333V15.4667C30.9333 16.3503 30.217 17.0667 29.3333 17.0667Z" fill="#878788"/>
<path d="M19.2 6.93359H16.5333C16.2388 6.93359 16 7.17238 16 7.46693V10.1336C16 10.4281 16.2388 10.6669 16.5333 10.6669H19.2C19.4946 10.6669 19.7333 10.4281 19.7333 10.1336V7.46693C19.7333 7.17238 19.4946 6.93359 19.2 6.93359ZM18.6667 9.60026H17.0667V8.00026H18.6667V9.60026Z" fill="#878788"/>
<path d="M19.2 11.7334H16.5333C16.2388 11.7334 16 11.9722 16 12.2667V14.9334C16 15.2279 16.2388 15.4667 16.5333 15.4667H19.2C19.4946 15.4667 19.7333 15.2279 19.7333 14.9334V12.2667C19.7333 11.9722 19.4946 11.7334 19.2 11.7334ZM18.6667 14.4001H17.0667V12.8001H18.6667V14.4001Z" fill="#878788"/>
<path d="M24.5334 6.93359H21.3334C21.0388 6.93359 20.8 7.17238 20.8 7.46693V10.1336C20.8 10.4281 21.0388 10.6669 21.3334 10.6669H24.5334C24.8279 10.6669 25.0667 10.4281 25.0667 10.1336V7.46693C25.0667 7.17238 24.8279 6.93359 24.5334 6.93359ZM24.0001 9.60026H21.8667V8.00026H24.0001V9.60026Z" fill="#878788"/>
<path d="M24.5334 11.7334H21.3334C21.0388 11.7334 20.8 11.9722 20.8 12.2667V14.9334C20.8 15.2279 21.0388 15.4667 21.3334 15.4667H24.5334C24.8279 15.4667 25.0667 15.2279 25.0667 14.9334V12.2667C25.0667 11.9722 24.8279 11.7334 24.5334 11.7334ZM24.0001 14.4001H21.8667V12.8001H24.0001V14.4001Z" fill="#878788"/>
<path d="M29.3334 6.93359H26.6668C26.3722 6.93359 26.1334 7.17238 26.1334 7.46693V10.1336C26.1334 10.4281 26.3722 10.6669 26.6668 10.6669H29.3334C29.628 10.6669 29.8667 10.4281 29.8667 10.1336V7.46693C29.8667 7.17238 29.628 6.93359 29.3334 6.93359ZM28.8001 9.60026H27.2001V8.00026H28.8001V9.60026Z" fill="#878788"/>
<path d="M29.3334 11.7334H26.6668C26.3722 11.7334 26.1334 11.9722 26.1334 12.2667V14.9334C26.1334 15.2279 26.3722 15.4667 26.6668 15.4667H29.3334C29.628 15.4667 29.8667 15.2279 29.8667 14.9334V12.2667C29.8667 11.9722 29.628 11.7334 29.3334 11.7334ZM28.8001 14.4001H27.2001V12.8001H28.8001V14.4001Z" fill="#878788"/>
<path d="M12.8001 18.6668C13.0946 18.6668 13.3334 18.428 13.3334 18.1334C13.3334 17.8389 13.0946 17.6001 12.8001 17.6001H2.66676C2.3722 17.6001 2.13342 17.8389 2.13342 18.1334C2.13342 18.428 2.3722 18.6668 2.66676 18.6668H12.8001Z" fill="#878788"/>
<path d="M7.60001 4.98127L3.86668 9.24793C3.72851 9.4052 3.69513 9.62876 3.78132 9.81953C3.86751 10.0103 4.05734 10.133 4.26668 10.1333C4.41986 10.1331 4.56557 10.067 4.66668 9.95193L8.40001 5.68527C8.5791 5.46291 8.55132 5.13895 8.33698 4.95034C8.12265 4.76172 7.79779 4.77536 7.60001 4.98127V4.98127Z" fill="#878788"/>
<path d="M4.26673 5.86647C3.97218 5.86647 3.7334 5.62769 3.7334 5.33314C3.7334 5.03859 3.97218 4.7998 4.26673 4.7998C4.56129 4.7998 4.80007 5.03859 4.80007 5.33314C4.80007 5.62769 4.56129 5.86647 4.26673 5.86647Z" fill="#878788"/>
<path d="M7.99989 10.1331C7.70533 10.1331 7.46655 9.89429 7.46655 9.59974C7.46655 9.30519 7.70533 9.06641 7.99989 9.06641C8.29444 9.06641 8.53322 9.30519 8.53322 9.59974C8.53322 9.89429 8.29444 10.1331 7.99989 10.1331Z" fill="#878788"/>
</svg>
