<svg width="24" height="23" viewBox="0 0 24 23" fill="none" xmlns="http://www.w3.org/2000/svg">
<g clip-path="url(#clip0)">
<path d="M21.2 3.76953V20.7326C21.2 21.5653 20.4837 22.2404 19.6 22.2404H4.40003C3.51639 22.2404 2.80005 21.5653 2.80005 20.7326V3.76953H21.2Z" fill="#A4C2F7"/>
<path d="M20 3.76953V20.7326C20 21.5653 19.2837 22.2404 18.4 22.2404H4.40003C3.51639 22.2404 2.80005 21.5653 2.80005 20.7326V3.76953H20Z" fill="#E3E7F2"/>
<path d="M7.2 8.29297H16.8C17.0209 8.29297 17.2 8.46176 17.2 8.66991V17.7169C17.2 17.9251 17.0209 18.0938 16.8 18.0938H7.2C6.97908 18.0938 6.80002 17.925 6.80002 17.7169V8.66991C6.80002 8.46176 6.97908 8.29297 7.2 8.29297Z" fill="#A4C2F7"/>
<path d="M7.2 8.29297H15.6C15.8209 8.29297 16 8.46176 16 8.66991V17.7169C16 17.9251 15.8209 18.0938 15.6 18.0938H7.2C6.97908 18.0938 6.80002 17.925 6.80002 17.7169V8.66991C6.80002 8.46176 6.97908 8.29297 7.2 8.29297Z" fill="#E3E7F2"/>
<path d="M21.2 3.01564V4.90044H2.79996V3.01564C2.80193 2.39185 3.33804 1.88662 3.99996 1.88477H19.9999C20.6619 1.88662 21.198 2.39185 21.2 3.01564Z" fill="#A4C2F7"/>
<path d="M20 3.01564V4.90044H2.79996V3.01564C2.80193 2.39185 3.33804 1.88662 3.99996 1.88477H18.7999C19.4619 1.88662 19.998 2.39185 20 3.01564Z" fill="#E3E7F2"/>
<path d="M5.99997 0.376953C6.44182 0.376953 6.79999 0.714492 6.79999 1.13088V2.63869C6.79999 3.05508 6.44182 3.39262 5.99997 3.39262C5.55813 3.39262 5.19996 3.05508 5.19996 2.63869V1.13088C5.19996 0.714492 5.55813 0.376953 5.99997 0.376953Z" fill="#A4C2F7"/>
<path d="M18 0.376953C18.4418 0.376953 18.8 0.714492 18.8 1.13088V2.63869C18.8 3.05508 18.4418 3.39262 18 3.39262C17.5581 3.39262 17.1999 3.05508 17.1999 2.63869V1.13088C17.1999 0.714492 17.5581 0.376953 18 0.376953Z" fill="#A4C2F7"/>
<path d="M4.40004 22.2404H5.60004C4.7164 22.2404 4.00006 21.5654 4.00006 20.7326V3.01564C4.00203 2.39185 4.53813 1.88662 5.20006 1.88477H4.00006C3.33813 1.88662 2.80203 2.39185 2.80006 3.01564V20.7326C2.80001 21.5654 3.51635 22.2404 4.40004 22.2404Z" fill="white"/>
<path d="M3.20001 4.90039V9.80086V20.7326H2.4V9.80086V4.90039H3.20001Z" fill="white"/>
<path d="M2.4 20.7326C2.40131 21.773 3.29597 22.6161 4.40002 22.6174H19.6C20.704 22.6162 21.5987 21.7731 21.6 20.7326V3.01567C21.6 2.18293 20.8837 1.50786 20.0001 1.50786H19.2V1.13087C19.2 0.50633 18.6627 0 18 0C17.3373 0 16.8 0.50633 16.8 1.13087V1.50781H7.2V1.13087C7.2 0.50633 6.66277 0 6 0C5.33728 0 4.8 0.50633 4.8 1.13087V1.50781H3.99999C3.11635 1.50781 2.4 2.18289 2.4 3.01563V6.40824C2.4 6.61643 2.57911 6.78518 2.79999 6.78518C3.02086 6.78518 3.19997 6.61639 3.19997 6.40824V5.27737H20.8V20.7326C20.8 21.3572 20.2627 21.8635 19.6 21.8635H4.40002C3.7373 21.8635 3.20002 21.3572 3.20002 20.7326V9.42391C3.20002 9.21571 3.02091 9.04697 2.80003 9.04697C2.57916 9.04697 2.40005 9.21571 2.40005 9.42391V20.7326H2.4ZM17.6 1.13087C17.6 0.922676 17.7791 0.753929 18 0.753929C18.2209 0.753929 18.4 0.92272 18.4 1.13087V2.63868C18.4 2.84688 18.2209 3.01563 18 3.01563C17.7791 3.01563 17.6 2.84684 17.6 2.63868V1.13087ZM5.60002 1.13087C5.60002 0.922676 5.77908 0.753929 6 0.753929C6.22092 0.753929 6.39999 0.92272 6.39999 1.13087V2.63868C6.39999 2.84688 6.22092 3.01563 6 3.01563C5.77908 3.01563 5.60002 2.84684 5.60002 2.63868V1.13087ZM3.20002 4.52348V3.01567C3.20002 2.59928 3.55819 2.26174 4.00003 2.26174H4.8V2.63868C4.8 3.26323 5.33728 3.76956 6 3.76956C6.66277 3.76956 7.2 3.26323 7.2 2.63868V2.26174H16.8V2.63868C16.8 3.26323 17.3373 3.76956 18 3.76956C18.6627 3.76956 19.2 3.26323 19.2 2.63868V2.26174H20C20.4419 2.26174 20.8 2.59928 20.8 3.01567V4.52348H3.20002Z" fill="#116FFF"/>
<path d="M2.79987 8.293C2.96238 8.29388 3.10929 8.20204 3.17163 8.06059C3.23397 7.91914 3.19929 7.75623 3.08388 7.6484L3.02388 7.60316C3.00157 7.58889 2.97738 7.57749 2.95188 7.56923C2.92919 7.55837 2.90496 7.55072 2.87988 7.54662C2.85344 7.54242 2.82668 7.5399 2.79987 7.53906C2.69398 7.54052 2.59259 7.57957 2.51585 7.6484C2.47971 7.68444 2.45116 7.72667 2.43185 7.77279C2.37152 7.9134 2.40438 8.07429 2.51585 8.18366C2.5541 8.21772 2.59891 8.24462 2.64785 8.26282C2.69599 8.28217 2.7476 8.29242 2.79987 8.293Z" fill="#116FFF"/>
<path d="M9.90758 13.7058C9.76597 13.5457 9.51346 13.5241 9.34358 13.6576C9.17371 13.791 9.15078 14.029 9.29239 14.1891L11.2924 16.4508C11.363 16.5309 11.4657 16.5799 11.576 16.5861H11.6C11.7021 16.586 11.8004 16.5492 11.8748 16.4832L19.0748 10.0749C19.2354 9.93188 19.2425 9.69325 19.0908 9.5419C18.939 9.39056 18.6858 9.3838 18.5252 9.52684L11.6348 15.6596L9.90758 13.7058Z" fill="#116FFF"/>
<path d="M17.2 7.91602H7.19999C6.75815 7.91602 6.39998 8.25355 6.39998 8.66994V17.7169C6.39998 18.1333 6.75815 18.4708 7.19999 18.4708H16.8C17.2418 18.4708 17.6 18.1333 17.6 17.7169V13.1934C17.6 12.9852 17.4209 12.8165 17.2 12.8165C16.9791 12.8165 16.8 12.9852 16.8 13.1934V17.7169H7.19999V8.66994H16.8V9.04689C16.8 9.25508 16.979 9.42383 17.2 9.42383C17.4209 9.42383 17.6 9.25504 17.6 9.04689V8.29296C17.6 8.08481 17.4209 7.91602 17.2 7.91602Z" fill="#116FFF"/>
</g>
<defs>
<clipPath id="clip0">
<rect width="24" height="22.6174" fill="white"/>
</clipPath>
</defs>
</svg>
