<svg id="svg" version="1.1" xmlns="http://www.w3.org/2000/svg" xmlns:xlink="http://www.w3.org/1999/xlink" width="400" height="400" viewBox="0, 0, 400,400"><g id="svgg"><path id="path0" d="M160.239 145.494 C 159.936 145.797,159.921 247.730,160.224 248.518 C 160.418 249.023,167.829 245.817,168.800 244.808 C 168.910 244.693,171.790 243.183,175.200 241.451 C 178.610 239.720,183.560 237.173,186.200 235.793 C 188.840 234.413,193.250 232.121,196.000 230.701 C 203.931 226.604,212.187 222.322,217.600 219.499 C 220.350 218.065,225.390 215.454,228.800 213.699 C 232.210 211.943,237.250 209.338,240.000 207.910 C 242.750 206.482,248.060 203.730,251.800 201.796 C 259.181 197.979,260.000 197.518,260.000 197.190 C 260.000 197.070,258.155 196.027,255.900 194.872 C 253.645 193.717,249.910 191.775,247.600 190.556 C 245.290 189.337,240.430 186.797,236.800 184.912 C 230.195 181.482,224.952 178.747,218.200 175.208 C 216.220 174.171,212.080 172.013,209.000 170.412 C 205.920 168.812,201.960 166.734,200.200 165.794 C 198.440 164.855,194.570 162.832,191.600 161.298 C 188.630 159.764,184.220 157.475,181.800 156.211 C 179.380 154.947,174.610 152.464,171.200 150.693 C 167.790 148.922,164.280 147.084,163.400 146.609 C 161.296 145.474,160.530 145.204,160.239 145.494 " stroke="none" fill="#fbfafa" fill-rule="evenodd"></path><path id="path1" d="M163.000 96.011 C 161.900 96.186,154.756 96.346,147.124 96.365 C 138.343 96.387,133.156 96.547,133.000 96.800 C 132.850 97.042,129.956 97.200,125.656 97.200 C 121.741 97.200,118.390 97.369,118.180 97.578 C 117.971 97.785,115.460 98.052,112.600 98.170 C 102.564 98.586,98.997 98.855,98.620 99.226 C 98.411 99.432,96.656 99.600,94.720 99.600 C 92.640 99.600,91.200 99.764,91.200 100.000 C 91.200 100.220,90.221 100.400,89.024 100.400 C 87.827 100.400,86.736 100.580,86.600 100.800 C 86.464 101.020,85.823 101.200,85.176 101.200 C 84.529 101.200,84.000 101.380,84.000 101.600 C 84.000 101.820,83.460 102.000,82.800 102.000 C 82.140 102.000,81.600 102.180,81.600 102.400 C 81.600 102.620,81.240 102.800,80.800 102.800 C 80.360 102.800,80.000 102.980,80.000 103.200 C 80.000 103.420,79.640 103.600,79.200 103.600 C 78.760 103.600,78.400 103.780,78.400 104.000 C 78.400 104.220,78.130 104.400,77.800 104.400 C 77.470 104.400,77.200 104.580,77.200 104.800 C 77.200 105.020,76.840 105.200,76.400 105.200 C 75.960 105.200,75.600 105.380,75.600 105.600 C 75.600 105.820,75.357 106.000,75.059 106.000 C 74.762 106.000,73.954 106.540,73.263 107.200 C 72.572 107.860,71.848 108.400,71.654 108.400 C 71.170 108.400,66.000 113.196,66.000 113.646 C 66.000 113.845,65.460 114.572,64.800 115.263 C 64.140 115.954,63.600 116.762,63.600 117.059 C 63.600 117.357,63.448 117.600,63.263 117.600 C 63.077 117.600,62.495 118.455,61.968 119.500 C 61.442 120.545,60.890 121.490,60.742 121.601 C 60.594 121.711,60.347 122.476,60.192 123.301 C 60.038 124.125,59.751 124.800,59.555 124.800 C 59.360 124.800,59.200 125.340,59.200 126.000 C 59.200 126.660,59.020 127.200,58.800 127.200 C 58.580 127.200,58.400 127.740,58.400 128.400 C 58.400 129.060,58.220 129.600,58.000 129.600 C 57.780 129.600,57.600 130.410,57.600 131.400 C 57.600 132.390,57.420 133.200,57.200 133.200 C 56.980 133.200,56.800 134.100,56.800 135.200 C 56.800 136.300,56.620 137.200,56.400 137.200 C 56.180 137.200,56.000 138.089,56.000 139.176 C 56.000 140.263,55.820 141.264,55.600 141.400 C 55.380 141.536,55.200 142.807,55.200 144.224 C 55.200 145.675,55.025 146.800,54.800 146.800 C 54.565 146.800,54.400 148.200,54.400 150.200 C 54.400 152.200,54.235 153.600,54.000 153.600 C 53.756 153.600,53.600 155.440,53.600 158.320 C 53.600 160.916,53.426 163.214,53.214 163.426 C 52.210 164.430,52.206 235.966,53.210 236.970 C 53.424 237.184,53.600 239.473,53.600 242.056 C 53.600 244.756,53.770 246.858,54.000 247.000 C 54.220 247.136,54.400 248.677,54.400 250.424 C 54.400 252.275,54.567 253.600,54.800 253.600 C 55.026 253.600,55.200 254.733,55.200 256.200 C 55.200 257.667,55.374 258.800,55.600 258.800 C 55.822 258.800,56.000 259.867,56.000 261.200 C 56.000 262.533,56.178 263.600,56.400 263.600 C 56.620 263.600,56.800 264.399,56.800 265.376 C 56.800 266.353,56.980 267.264,57.200 267.400 C 57.420 267.536,57.600 268.357,57.600 269.224 C 57.600 270.091,57.780 270.800,58.000 270.800 C 58.220 270.800,58.400 271.340,58.400 272.000 C 58.400 272.660,58.580 273.200,58.800 273.200 C 59.020 273.200,59.200 273.650,59.200 274.200 C 59.200 274.750,59.364 275.200,59.565 275.200 C 59.766 275.200,60.051 275.920,60.200 276.800 C 60.349 277.680,60.634 278.400,60.835 278.400 C 61.036 278.400,61.200 278.760,61.200 279.200 C 61.200 279.640,61.359 280.000,61.553 280.000 C 61.748 280.000,62.007 280.315,62.129 280.700 C 62.432 281.657,63.670 283.668,64.404 284.399 C 64.737 284.730,65.514 285.679,66.132 286.509 C 67.830 288.792,70.850 291.600,71.607 291.600 C 71.827 291.600,72.572 292.140,73.263 292.800 C 73.954 293.460,74.762 294.000,75.059 294.000 C 75.357 294.000,75.600 294.180,75.600 294.400 C 75.600 294.620,75.960 294.800,76.400 294.800 C 76.840 294.800,77.200 294.980,77.200 295.200 C 77.200 295.420,77.470 295.600,77.800 295.600 C 78.130 295.600,78.400 295.780,78.400 296.000 C 78.400 296.220,78.760 296.400,79.200 296.400 C 79.640 296.400,80.000 296.580,80.000 296.800 C 80.000 297.020,80.360 297.200,80.800 297.200 C 81.240 297.200,81.600 297.380,81.600 297.600 C 81.600 297.820,82.140 298.000,82.800 298.000 C 83.460 298.000,84.000 298.180,84.000 298.400 C 84.000 298.620,84.529 298.800,85.176 298.800 C 85.823 298.800,86.464 298.980,86.600 299.200 C 86.736 299.420,87.827 299.600,89.024 299.600 C 90.221 299.600,91.200 299.780,91.200 300.000 C 91.200 300.237,92.659 300.400,94.776 300.400 C 96.743 300.400,98.464 300.580,98.600 300.800 C 98.740 301.027,100.737 301.200,103.224 301.200 C 105.875 301.200,107.600 301.358,107.600 301.600 C 107.600 301.846,109.592 302.000,112.776 302.000 C 115.796 302.000,118.056 302.167,118.200 302.400 C 118.350 302.643,121.311 302.800,125.744 302.800 C 129.841 302.800,133.207 302.967,133.422 303.182 C 134.585 304.345,265.415 304.345,266.578 303.182 C 266.793 302.967,270.159 302.800,274.256 302.800 C 278.689 302.800,281.650 302.643,281.800 302.400 C 281.944 302.167,284.204 302.000,287.224 302.000 C 290.408 302.000,292.400 301.846,292.400 301.600 C 292.400 301.358,294.125 301.200,296.776 301.200 C 299.263 301.200,301.260 301.027,301.400 300.800 C 301.536 300.580,303.257 300.400,305.224 300.400 C 307.341 300.400,308.800 300.237,308.800 300.000 C 308.800 299.780,309.689 299.600,310.776 299.600 C 311.863 299.600,312.864 299.420,313.000 299.200 C 313.136 298.980,313.867 298.800,314.624 298.800 C 315.381 298.800,316.000 298.620,316.000 298.400 C 316.000 298.180,316.540 298.000,317.200 298.000 C 317.860 298.000,318.400 297.820,318.400 297.600 C 318.400 297.380,318.760 297.200,319.200 297.200 C 319.640 297.200,320.000 297.020,320.000 296.800 C 320.000 296.580,320.360 296.400,320.800 296.400 C 321.240 296.400,321.600 296.220,321.600 296.000 C 321.600 295.780,321.960 295.600,322.400 295.600 C 322.840 295.600,323.200 295.420,323.200 295.200 C 323.200 294.980,323.387 294.800,323.616 294.800 C 324.079 294.800,326.267 293.333,327.199 292.397 C 327.530 292.066,328.283 291.547,328.873 291.244 C 330.249 290.538,332.330 288.573,333.821 286.572 C 334.464 285.707,335.308 284.709,335.696 284.353 C 336.083 283.997,336.400 283.495,336.400 283.236 C 336.400 282.978,336.760 282.380,337.200 281.908 C 337.640 281.436,338.000 280.813,338.000 280.525 C 338.000 280.236,338.180 280.000,338.400 280.000 C 338.620 280.000,338.800 279.640,338.800 279.200 C 338.800 278.760,338.980 278.400,339.200 278.400 C 339.420 278.400,339.600 278.040,339.600 277.600 C 339.600 277.160,339.780 276.800,340.000 276.800 C 340.220 276.800,340.400 276.451,340.400 276.024 C 340.400 275.597,340.575 275.139,340.788 275.007 C 341.002 274.875,341.295 273.875,341.440 272.784 C 341.585 271.693,341.860 270.800,342.052 270.800 C 342.243 270.800,342.400 269.990,342.400 269.000 C 342.400 268.010,342.580 267.200,342.800 267.200 C 343.020 267.200,343.200 266.401,343.200 265.424 C 343.200 264.447,343.380 263.536,343.600 263.400 C 343.820 263.264,344.000 262.173,344.000 260.976 C 344.000 259.779,344.180 258.800,344.400 258.800 C 344.625 258.800,344.800 257.675,344.800 256.224 C 344.800 254.807,344.980 253.536,345.200 253.400 C 345.420 253.264,345.600 251.633,345.600 249.776 C 345.600 247.792,345.765 246.400,346.000 246.400 C 346.244 246.400,346.400 244.541,346.400 241.624 C 346.400 238.871,346.569 236.742,346.800 236.600 C 347.062 236.438,347.200 223.737,347.200 199.800 C 347.200 175.863,347.062 163.162,346.800 163.000 C 346.570 162.858,346.400 160.737,346.400 158.000 C 346.400 155.263,346.230 153.142,346.000 153.000 C 345.780 152.864,345.600 151.334,345.600 149.600 C 345.600 147.866,345.420 146.336,345.200 146.200 C 344.980 146.064,344.800 144.883,344.800 143.576 C 344.800 142.259,344.622 141.200,344.400 141.200 C 344.178 141.200,344.000 140.133,344.000 138.800 C 344.000 137.467,343.822 136.400,343.600 136.400 C 343.380 136.400,343.200 135.500,343.200 134.400 C 343.200 133.300,343.020 132.400,342.800 132.400 C 342.580 132.400,342.400 131.680,342.400 130.800 C 342.400 129.920,342.241 129.200,342.046 129.200 C 341.851 129.200,341.568 128.210,341.417 127.000 C 341.266 125.790,340.975 124.800,340.771 124.800 C 340.567 124.800,340.400 124.440,340.400 124.000 C 340.400 123.560,340.220 123.200,340.000 123.200 C 339.780 123.200,339.600 122.966,339.600 122.680 C 339.600 121.944,338.659 120.007,338.300 120.003 C 338.135 120.001,338.000 119.640,338.000 119.200 C 338.000 118.760,337.832 118.400,337.627 118.400 C 337.422 118.400,337.138 118.034,336.996 117.587 C 336.854 117.140,336.302 116.338,335.769 115.805 C 335.236 115.272,334.798 114.693,334.796 114.518 C 334.789 114.011,328.918 108.400,328.394 108.400 C 328.134 108.400,327.417 107.860,326.800 107.200 C 326.183 106.540,325.481 106.000,325.240 106.000 C 324.998 106.000,324.800 105.820,324.800 105.600 C 324.800 105.380,324.440 105.200,324.000 105.200 C 323.560 105.200,323.199 105.065,323.197 104.900 C 323.193 104.541,321.256 103.600,320.520 103.600 C 320.234 103.600,320.000 103.420,320.000 103.200 C 320.000 102.980,319.640 102.800,319.200 102.800 C 318.760 102.800,318.400 102.620,318.400 102.400 C 318.400 102.180,317.860 102.000,317.200 102.000 C 316.540 102.000,316.000 101.820,316.000 101.600 C 316.000 101.380,315.471 101.200,314.824 101.200 C 314.177 101.200,313.536 101.020,313.400 100.800 C 313.264 100.580,312.173 100.400,310.976 100.400 C 309.779 100.400,308.800 100.220,308.800 100.000 C 308.800 99.765,307.408 99.600,305.424 99.600 C 303.567 99.600,301.936 99.420,301.800 99.200 C 301.661 98.975,299.756 98.800,297.456 98.800 C 295.203 98.800,293.189 98.630,292.980 98.422 C 292.771 98.215,290.260 97.946,287.400 97.825 C 284.540 97.705,278.780 97.419,274.600 97.191 C 255.198 96.132,168.015 95.210,163.000 96.011 M161.420 144.777 C 161.629 144.984,164.680 146.624,168.200 148.420 C 171.720 150.217,176.310 152.594,178.400 153.703 C 182.734 156.002,187.140 158.297,197.400 163.601 C 201.360 165.649,206.310 168.242,208.400 169.364 C 210.490 170.486,213.820 172.209,215.800 173.193 C 217.780 174.176,219.490 175.075,219.600 175.191 C 219.710 175.307,221.420 176.227,223.400 177.234 C 228.504 179.832,239.122 185.348,243.600 187.728 C 245.690 188.838,248.840 190.479,250.600 191.373 C 252.360 192.268,253.860 193.135,253.933 193.300 C 254.007 193.465,254.397 193.600,254.800 193.600 C 255.203 193.600,255.593 193.742,255.667 193.915 C 255.740 194.088,256.816 194.722,258.059 195.324 C 262.197 197.329,262.271 197.200,254.800 200.991 C 252.270 202.274,247.950 204.492,245.200 205.919 C 242.450 207.345,238.040 209.628,235.400 210.992 C 232.760 212.356,228.260 214.696,225.400 216.190 C 222.540 217.685,217.320 220.369,213.800 222.154 C 210.280 223.939,207.310 225.493,207.200 225.607 C 207.090 225.722,205.200 226.722,203.000 227.831 C 200.800 228.939,196.390 231.212,193.200 232.882 C 190.010 234.552,184.610 237.354,181.200 239.108 C 164.343 247.780,162.171 248.908,161.800 249.185 C 160.936 249.831,159.649 249.906,159.426 249.323 C 159.104 248.485,159.145 144.989,159.467 144.667 C 159.856 144.277,160.980 144.341,161.420 144.777 " stroke="none" fill="#e42c24" fill-rule="evenodd"></path><path id="path2" d="M159.843 145.433 C 159.488 146.356,159.545 248.719,159.900 248.938 C 160.065 249.040,160.200 225.786,160.200 197.262 C 160.200 145.628,160.204 145.401,161.000 145.517 C 161.659 145.613,161.694 145.561,161.200 145.223 C 160.375 144.659,160.125 144.697,159.843 145.433 M163.600 146.588 C 163.600 146.698,164.680 147.334,166.000 148.000 C 167.320 148.666,168.400 149.122,168.400 149.012 C 168.400 148.902,167.320 148.266,166.000 147.600 C 164.680 146.934,163.600 146.478,163.600 146.588 M172.000 150.987 C 172.000 151.097,172.900 151.643,174.000 152.200 C 175.100 152.757,176.000 153.123,176.000 153.013 C 176.000 152.903,175.100 152.357,174.000 151.800 C 172.900 151.243,172.000 150.877,172.000 150.987 M184.400 157.341 C 184.400 157.608,188.090 159.643,188.263 159.471 C 188.340 159.393,187.503 158.839,186.402 158.240 C 185.301 157.640,184.400 157.236,184.400 157.341 M199.600 165.388 C 199.600 165.498,200.680 166.134,202.000 166.800 C 203.320 167.466,204.400 167.922,204.400 167.812 C 204.400 167.702,203.320 167.066,202.000 166.400 C 200.680 165.734,199.600 165.278,199.600 165.388 M211.200 171.379 C 211.200 171.489,211.740 171.859,212.400 172.200 C 213.060 172.541,213.600 172.731,213.600 172.621 C 213.600 172.511,213.060 172.141,212.400 171.800 C 211.740 171.459,211.200 171.269,211.200 171.379 M220.600 176.296 C 221.174 176.865,225.676 179.258,225.848 179.085 C 225.927 179.006,224.689 178.257,223.096 177.420 C 221.503 176.583,220.380 176.078,220.600 176.296 M236.400 184.596 C 236.400 184.870,238.849 186.084,239.032 185.901 C 239.119 185.814,238.562 185.444,237.795 185.078 C 237.028 184.712,236.400 184.495,236.400 184.596 M247.200 190.179 C 247.200 190.289,247.740 190.659,248.400 191.000 C 249.060 191.341,249.600 191.531,249.600 191.421 C 249.600 191.311,249.060 190.941,248.400 190.600 C 247.740 190.259,247.200 190.069,247.200 190.179 M259.400 197.703 L 258.600 198.504 259.600 197.998 C 260.883 197.348,260.916 197.316,260.527 197.091 C 260.347 196.987,259.840 197.263,259.400 197.703 M253.900 200.629 C 252.405 201.440,252.496 201.778,254.000 201.000 C 254.660 200.659,255.200 200.294,255.200 200.190 C 255.200 199.932,255.157 199.947,253.900 200.629 M250.700 202.229 C 249.149 203.070,249.325 203.361,250.900 202.559 C 252.408 201.793,252.675 201.594,252.167 201.616 C 251.965 201.625,251.305 201.901,250.700 202.229 M220.700 217.829 C 219.205 218.640,219.296 218.978,220.800 218.200 C 221.460 217.859,222.000 217.494,222.000 217.390 C 222.000 217.132,221.957 217.147,220.700 217.829 M201.200 228.033 L 200.200 228.848 201.500 228.214 C 202.215 227.865,202.800 227.494,202.800 227.390 C 202.800 226.992,202.163 227.248,201.200 228.033 M189.100 234.229 C 187.605 235.040,187.696 235.378,189.200 234.600 C 189.860 234.259,190.400 233.894,190.400 233.790 C 190.400 233.532,190.357 233.547,189.100 234.229 M185.900 235.829 C 184.349 236.670,184.525 236.961,186.100 236.159 C 187.608 235.393,187.875 235.194,187.367 235.216 C 187.165 235.225,186.505 235.501,185.900 235.829 M177.900 240.027 C 177.075 240.463,176.400 240.908,176.400 241.018 C 176.400 241.127,177.120 240.849,178.000 240.400 C 178.880 239.951,179.600 239.497,179.600 239.392 C 179.600 239.130,179.597 239.131,177.900 240.027 " stroke="none" fill="#f49494" fill-rule="evenodd"></path><path id="path3" d="M159.467 144.667 C 159.145 144.989,159.104 248.485,159.426 249.323 C 159.570 249.698,159.968 249.833,160.526 249.694 C 161.584 249.430,163.166 248.400,162.513 248.400 C 162.257 248.400,161.936 248.580,161.800 248.800 C 161.664 249.020,161.113 249.200,160.576 249.200 L 159.600 249.200 159.600 196.957 L 159.600 144.713 160.634 144.973 C 161.304 145.141,161.577 145.086,161.410 144.816 C 161.123 144.351,159.878 144.255,159.467 144.667 M172.800 150.983 C 172.800 151.175,176.955 153.434,178.500 154.081 C 180.260 154.818,178.903 153.919,176.000 152.424 C 174.240 151.518,172.800 150.869,172.800 150.983 M180.000 154.822 C 181.033 155.526,183.600 156.825,183.600 156.642 C 183.600 156.433,180.005 154.397,179.650 154.406 C 179.512 154.409,179.670 154.596,180.000 154.822 M188.800 159.390 C 188.800 159.624,191.039 160.801,191.480 160.799 C 191.656 160.798,191.211 160.438,190.490 159.999 C 189.151 159.182,188.800 159.056,188.800 159.390 M201.200 165.768 C 201.200 166.051,206.529 168.805,206.715 168.619 C 206.807 168.527,205.604 167.808,204.041 167.021 C 202.478 166.234,201.200 165.670,201.200 165.768 M208.800 169.784 C 208.800 169.894,209.520 170.351,210.400 170.800 C 211.280 171.249,212.000 171.526,212.000 171.416 C 212.000 171.306,211.280 170.849,210.400 170.400 C 209.520 169.951,208.800 169.674,208.800 169.784 M216.717 174.057 C 217.441 174.520,218.127 174.806,218.242 174.692 C 218.356 174.577,217.871 174.195,217.163 173.842 C 215.370 172.947,215.149 173.053,216.717 174.057 M228.000 179.779 C 228.000 179.889,228.540 180.259,229.200 180.600 C 229.860 180.941,230.400 181.131,230.400 181.021 C 230.400 180.911,229.860 180.541,229.200 180.200 C 228.540 179.859,228.000 179.669,228.000 179.779 M231.945 182.023 C 232.685 182.474,233.377 182.757,233.482 182.651 C 233.684 182.450,231.473 181.199,230.920 181.201 C 230.744 181.202,231.205 181.572,231.945 182.023 M234.000 182.983 C 234.000 183.163,236.402 184.400,236.750 184.400 C 237.097 184.400,235.494 183.367,234.700 183.079 C 234.315 182.939,234.000 182.896,234.000 182.983 M237.400 184.694 C 237.620 184.915,240.140 186.311,243.000 187.795 C 245.860 189.279,248.020 190.311,247.800 190.087 C 247.580 189.863,245.060 188.467,242.200 186.986 C 239.340 185.504,237.180 184.473,237.400 184.694 M259.998 196.718 C 260.884 197.435,260.879 197.439,256.742 199.570 C 254.464 200.744,252.420 201.884,252.200 202.103 C 251.775 202.526,258.767 199.051,260.313 198.070 C 261.236 197.484,260.649 196.000,259.494 196.000 C 259.283 196.000,259.510 196.323,259.998 196.718 M229.500 213.627 C 227.888 214.478,227.574 214.837,228.700 214.541 C 229.357 214.368,231.633 212.808,231.200 212.827 C 231.090 212.831,230.325 213.192,229.500 213.627 M225.502 215.704 C 224.679 216.163,224.073 216.606,224.155 216.689 C 224.286 216.820,227.112 215.385,227.567 214.957 C 228.014 214.535,226.836 214.962,225.502 215.704 M221.900 217.627 C 221.075 218.063,220.400 218.508,220.400 218.618 C 220.400 218.727,221.120 218.449,222.000 218.000 C 222.880 217.551,223.600 217.097,223.600 216.992 C 223.600 216.730,223.597 216.731,221.900 217.627 M197.900 230.027 C 197.075 230.463,196.400 230.908,196.400 231.018 C 196.400 231.127,197.120 230.849,198.000 230.400 C 198.880 229.951,199.600 229.497,199.600 229.392 C 199.600 229.130,199.597 229.131,197.900 230.027 M193.902 232.104 C 193.079 232.563,192.473 233.006,192.555 233.089 C 192.686 233.220,195.512 231.785,195.967 231.357 C 196.414 230.935,195.236 231.362,193.902 232.104 M189.500 234.426 C 188.235 235.079,187.200 235.703,187.200 235.812 C 187.200 235.922,188.280 235.466,189.600 234.800 C 190.920 234.134,192.000 233.501,192.000 233.394 C 192.000 233.128,192.074 233.097,189.500 234.426 M174.300 242.229 C 173.695 242.557,173.200 242.910,173.200 243.013 C 173.200 243.399,173.832 243.157,174.800 242.400 C 175.989 241.470,175.811 241.409,174.300 242.229 M171.289 243.865 C 170.568 244.220,170.043 244.577,170.124 244.657 C 170.295 244.828,172.800 243.624,172.800 243.371 C 172.800 243.129,172.747 243.146,171.289 243.865 M164.700 247.227 C 163.875 247.663,163.200 248.108,163.200 248.218 C 163.200 248.327,163.920 248.049,164.800 247.600 C 165.680 247.151,166.400 246.697,166.400 246.592 C 166.400 246.330,166.397 246.331,164.700 247.227 " stroke="none" fill="#ec7873" fill-rule="evenodd"></path><path id="path4" d="" stroke="none" fill="#f4948c" fill-rule="evenodd"></path></g></svg>